G04 Layer: TopSolderMaskLayer*
G04 EasyEDA v6.3.22, 2020-01-02T15:01:47+01:00*
G04 c4e2bc18f26c4d9383367568540c3147,ba5f4a7848fa453cbffb73795f9272bb,10*
G04 Gerber Generator version 0.2*
G04 Scale: 100 percent, Rotated: No, Reflected: No *
G04 Dimensions in inches *
G04 leading zeros omitted , absolute positions ,2 integer and 4 decimal *
%FSLAX24Y24*%
%MOIN*%
G90*
G70D02*

%ADD16C,0.078866*%
%ADD18C,0.068000*%

%LPD*%
G54D16*
G01X1400Y7250D03*
G01X1400Y6250D03*
G01X1400Y5250D03*
G01X1400Y4250D03*
G01X1400Y3250D03*
G36*
G01X1005Y1855D02*
G01X1005Y2644D01*
G01X1794Y2644D01*
G01X1794Y1855D01*
G01X1005Y1855D01*
G37*
G01X8550Y3250D03*
G01X7550Y3250D03*
G01X6550Y3250D03*
G01X5550Y3250D03*
G01X4550Y3250D03*
G36*
G01X3155Y2855D02*
G01X3155Y3644D01*
G01X3944Y3644D01*
G01X3944Y2855D01*
G01X3155Y2855D01*
G37*
G01X10500Y2200D03*
G01X10500Y3200D03*
G01X10500Y4200D03*
G01X10500Y5200D03*
G01X10500Y6200D03*
G36*
G01X10106Y6805D02*
G01X10106Y7594D01*
G01X10893Y7594D01*
G01X10893Y6805D01*
G01X10106Y6805D01*
G37*
G01X8550Y6250D03*
G01X7550Y6250D03*
G01X6550Y6250D03*
G01X5550Y6250D03*
G01X4550Y6250D03*
G36*
G01X3155Y5855D02*
G01X3155Y6644D01*
G01X3944Y6644D01*
G01X3944Y5855D01*
G01X3155Y5855D01*
G37*
G54D18*
G01X9500Y950D03*
G01X8500Y950D03*
G01X7500Y950D03*
G01X6500Y950D03*
G01X5500Y950D03*
G01X4500Y950D03*
G01X3500Y950D03*
G01X2500Y950D03*
M00*
M02*
