G04 Layer: TopLayer*
G04 EasyEDA v6.3.22, 2020-01-03T19:35:36+01:00*
G04 9f626787e5d5468d8dcfaf528492fa1b,ba5f4a7848fa453cbffb73795f9272bb,10*
G04 Gerber Generator version 0.2*
G04 Scale: 100 percent, Rotated: No, Reflected: No *
G04 Dimensions in inches *
G04 leading zeros omitted , absolute positions ,2 integer and 4 decimal *
%FSLAX24Y24*%
%MOIN*%
G90*
G70D02*

%ADD10C,0.010000*%
%ADD11R,0.070866X0.070866*%
%ADD12C,0.070866*%
%ADD13C,0.060000*%

%LPD*%
G54D10*
G01X9200Y7950D02*
G01X8464Y7950D01*
G01X8264Y7750D01*
G01X7800Y7750D02*
G01X8264Y7750D01*
G01X4800Y4300D02*
G01X5500Y3600D01*
G01X6100Y3600D01*
G01X6800Y2900D01*
G01X1400Y5950D02*
G01X3350Y5950D01*
G01X3750Y6350D01*
G01X3750Y6350D02*
G01X4914Y5186D01*
G01X8964Y5186D01*
G01X9200Y4950D01*
G01X9200Y6950D02*
G01X7600Y6950D01*
G01X6800Y7750D01*
G01X6800Y7750D02*
G01X6125Y7075D01*
G01X5475Y7075D01*
G01X4750Y6350D01*
G01X1400Y3950D02*
G01X1519Y3830D01*
G01X3330Y3830D01*
G01X3800Y4300D01*
G01X5800Y2900D02*
G01X5100Y3600D01*
G01X4500Y3600D01*
G01X3800Y4300D01*
G01X4750Y900D02*
G01X4800Y950D01*
G01X4800Y2900D01*
G01X9200Y5950D02*
G01X7614Y5950D01*
G01X7214Y6350D01*
G01X6750Y6350D02*
G01X7214Y6350D01*
G01X1400Y4950D02*
G01X5150Y4950D01*
G01X5800Y4300D01*
G01X1400Y2950D02*
G01X3284Y2950D01*
G01X3334Y2900D01*
G01X3800Y2900D02*
G01X3334Y2900D01*
G01X3800Y2900D02*
G01X3334Y2900D01*
G54D11*
G01X3800Y2900D03*
G54D12*
G01X4800Y2900D03*
G01X5800Y2900D03*
G01X6800Y2900D03*
G54D11*
G01X6750Y6350D03*
G54D12*
G01X5750Y6350D03*
G01X4750Y6350D03*
G01X3750Y6350D03*
G01X1400Y7950D03*
G01X1400Y6950D03*
G01X1400Y5950D03*
G01X1400Y4950D03*
G01X1400Y3950D03*
G54D11*
G01X1400Y2950D03*
G54D12*
G01X7800Y4300D03*
G01X6800Y4300D03*
G01X5800Y4300D03*
G01X4800Y4300D03*
G01X3800Y4300D03*
G54D11*
G01X2800Y4300D03*
G54D12*
G01X2800Y7750D03*
G01X3800Y7750D03*
G01X4800Y7750D03*
G01X5800Y7750D03*
G01X6800Y7750D03*
G54D11*
G01X7800Y7750D03*
G54D12*
G01X9200Y2950D03*
G01X9200Y3950D03*
G01X9200Y4950D03*
G01X9200Y5950D03*
G01X9200Y6950D03*
G54D11*
G01X9200Y7950D03*
G54D13*
G01X8750Y900D03*
G01X7750Y900D03*
G01X6750Y900D03*
G01X5750Y900D03*
G01X4750Y900D03*
G01X3750Y900D03*
G01X2750Y900D03*
G01X1750Y900D03*
M00*
M02*
