G04 Layer: BottomSilkLayer*
G04 EasyEDA v6.3.22, 2020-01-03T19:35:36+01:00*
G04 9f626787e5d5468d8dcfaf528492fa1b,ba5f4a7848fa453cbffb73795f9272bb,10*
G04 Gerber Generator version 0.2*
G04 Scale: 100 percent, Rotated: No, Reflected: No *
G04 Dimensions in inches *
G04 leading zeros omitted , absolute positions ,2 integer and 4 decimal *
%FSLAX24Y24*%
%MOIN*%
G90*
G70D02*


%LPD*%

%LPD*%
G36*
G01X2390Y8936D02*
G01X2211Y8936D01*
G01X2182Y8934D01*
G01X2154Y8932D01*
G01X2128Y8927D01*
G01X2105Y8920D01*
G01X2084Y8911D01*
G01X2064Y8899D01*
G01X2048Y8885D01*
G01X2034Y8868D01*
G01X2023Y8848D01*
G01X2014Y8826D01*
G01X2009Y8801D01*
G01X2007Y8773D01*
G01X2009Y8750D01*
G01X2012Y8730D01*
G01X2017Y8711D01*
G01X2025Y8693D01*
G01X2034Y8678D01*
G01X2045Y8663D01*
G01X2057Y8650D01*
G01X2072Y8639D01*
G01X2088Y8629D01*
G01X2105Y8621D01*
G01X2123Y8614D01*
G01X2144Y8609D01*
G01X1992Y8350D01*
G01X2067Y8350D01*
G01X2213Y8603D01*
G01X2323Y8603D01*
G01X2323Y8350D01*
G01X2390Y8350D01*
G01X2390Y8936D01*
G37*

%LPC*%
G36*
G01X2323Y8882D02*
G01X2221Y8882D01*
G01X2187Y8880D01*
G01X2158Y8876D01*
G01X2133Y8868D01*
G01X2112Y8857D01*
G01X2096Y8842D01*
G01X2084Y8823D01*
G01X2077Y8800D01*
G01X2075Y8773D01*
G01X2077Y8745D01*
G01X2084Y8721D01*
G01X2096Y8701D01*
G01X2112Y8685D01*
G01X2133Y8673D01*
G01X2158Y8664D01*
G01X2187Y8658D01*
G01X2221Y8657D01*
G01X2323Y8657D01*
G01X2323Y8882D01*
G37*

%LPD*%
G36*
G01X2857Y8936D02*
G01X2523Y8936D01*
G01X2523Y8880D01*
G01X2790Y8880D01*
G01X2790Y8686D01*
G01X2565Y8686D01*
G01X2565Y8630D01*
G01X2790Y8630D01*
G01X2790Y8405D01*
G01X2515Y8405D01*
G01X2515Y8350D01*
G01X2857Y8350D01*
G01X2857Y8936D01*
G37*

%LPD*%
G36*
G01X3388Y8936D02*
G01X2963Y8936D01*
G01X2963Y8880D01*
G01X3142Y8880D01*
G01X3142Y8350D01*
G01X3209Y8350D01*
G01X3209Y8880D01*
G01X3388Y8880D01*
G01X3388Y8936D01*
G37*

%LPD*%
G36*
G01X3810Y8936D02*
G01X3647Y8936D01*
G01X3623Y8935D01*
G01X3600Y8933D01*
G01X3578Y8931D01*
G01X3558Y8927D01*
G01X3539Y8921D01*
G01X3521Y8915D01*
G01X3505Y8907D01*
G01X3489Y8898D01*
G01X3476Y8887D01*
G01X3464Y8875D01*
G01X3454Y8861D01*
G01X3446Y8845D01*
G01X3439Y8828D01*
G01X3435Y8809D01*
G01X3431Y8788D01*
G01X3431Y8743D01*
G01X3435Y8723D01*
G01X3439Y8704D01*
G01X3446Y8686D01*
G01X3454Y8670D01*
G01X3464Y8655D01*
G01X3476Y8642D01*
G01X3489Y8630D01*
G01X3504Y8620D01*
G01X3520Y8611D01*
G01X3538Y8603D01*
G01X3557Y8597D01*
G01X3577Y8592D01*
G01X3598Y8589D01*
G01X3621Y8587D01*
G01X3644Y8586D01*
G01X3743Y8586D01*
G01X3743Y8350D01*
G01X3810Y8350D01*
G01X3810Y8936D01*
G37*

%LPC*%
G36*
G01X3743Y8882D02*
G01X3657Y8882D01*
G01X3632Y8881D01*
G01X3608Y8879D01*
G01X3587Y8876D01*
G01X3568Y8871D01*
G01X3551Y8865D01*
G01X3536Y8857D01*
G01X3524Y8846D01*
G01X3514Y8835D01*
G01X3506Y8821D01*
G01X3500Y8805D01*
G01X3497Y8786D01*
G01X3496Y8765D01*
G01X3497Y8745D01*
G01X3500Y8726D01*
G01X3505Y8709D01*
G01X3513Y8694D01*
G01X3523Y8682D01*
G01X3535Y8670D01*
G01X3549Y8661D01*
G01X3566Y8653D01*
G01X3585Y8648D01*
G01X3606Y8644D01*
G01X3629Y8641D01*
G01X3655Y8640D01*
G01X3743Y8640D01*
G01X3743Y8882D01*
G37*

%LPD*%
G36*
G01X4168Y8936D02*
G01X4096Y8936D01*
G01X3896Y8350D01*
G01X3965Y8350D01*
G01X4023Y8534D01*
G01X4243Y8534D01*
G01X4302Y8350D01*
G01X4368Y8350D01*
G01X4168Y8936D01*
G37*

%LPC*%
G36*
G01X4135Y8880D02*
G01X4131Y8880D01*
G01X4124Y8854D01*
G01X4110Y8804D01*
G01X4102Y8780D01*
G01X4095Y8755D01*
G01X4087Y8731D01*
G01X4080Y8706D01*
G01X4040Y8586D01*
G01X4226Y8586D01*
G01X4196Y8682D01*
G01X4187Y8706D01*
G01X4180Y8730D01*
G01X4164Y8779D01*
G01X4143Y8854D01*
G01X4135Y8880D01*
G37*

%LPD*%
G36*
G01X4828Y8936D02*
G01X4685Y8936D01*
G01X4658Y8935D01*
G01X4633Y8932D01*
G01X4609Y8928D01*
G01X4587Y8923D01*
G01X4566Y8916D01*
G01X4546Y8907D01*
G01X4528Y8898D01*
G01X4511Y8886D01*
G01X4495Y8873D01*
G01X4481Y8859D01*
G01X4468Y8843D01*
G01X4456Y8826D01*
G01X4446Y8808D01*
G01X4436Y8788D01*
G01X4429Y8767D01*
G01X4423Y8746D01*
G01X4418Y8722D01*
G01X4414Y8697D01*
G01X4412Y8671D01*
G01X4411Y8644D01*
G01X4412Y8617D01*
G01X4414Y8592D01*
G01X4418Y8567D01*
G01X4422Y8543D01*
G01X4429Y8521D01*
G01X4436Y8500D01*
G01X4445Y8480D01*
G01X4456Y8461D01*
G01X4467Y8444D01*
G01X4480Y8428D01*
G01X4494Y8413D01*
G01X4510Y8400D01*
G01X4527Y8389D01*
G01X4546Y8378D01*
G01X4565Y8370D01*
G01X4586Y8363D01*
G01X4608Y8357D01*
G01X4632Y8353D01*
G01X4656Y8350D01*
G01X4828Y8350D01*
G01X4828Y8936D01*
G37*

%LPC*%
G36*
G01X4763Y8880D02*
G01X4664Y8880D01*
G01X4640Y8876D01*
G01X4618Y8871D01*
G01X4597Y8865D01*
G01X4578Y8856D01*
G01X4561Y8845D01*
G01X4545Y8833D01*
G01X4531Y8819D01*
G01X4519Y8803D01*
G01X4509Y8785D01*
G01X4500Y8766D01*
G01X4492Y8745D01*
G01X4487Y8722D01*
G01X4483Y8698D01*
G01X4480Y8672D01*
G01X4480Y8617D01*
G01X4483Y8591D01*
G01X4487Y8567D01*
G01X4492Y8544D01*
G01X4500Y8523D01*
G01X4509Y8503D01*
G01X4519Y8484D01*
G01X4531Y8468D01*
G01X4545Y8453D01*
G01X4561Y8440D01*
G01X4578Y8429D01*
G01X4597Y8420D01*
G01X4618Y8413D01*
G01X4640Y8408D01*
G01X4664Y8405D01*
G01X4690Y8403D01*
G01X4763Y8403D01*
G01X4763Y8880D01*
G37*

%LPD*%
G36*
G01X5188Y8936D02*
G01X5114Y8936D01*
G01X4914Y8350D01*
G01X4984Y8350D01*
G01X5043Y8534D01*
G01X5260Y8534D01*
G01X5321Y8350D01*
G01X5388Y8350D01*
G01X5188Y8936D01*
G37*

%LPC*%
G36*
G01X5153Y8880D02*
G01X5151Y8880D01*
G01X5143Y8854D01*
G01X5136Y8829D01*
G01X5128Y8804D01*
G01X5121Y8780D01*
G01X5113Y8755D01*
G01X5106Y8731D01*
G01X5098Y8706D01*
G01X5089Y8682D01*
G01X5060Y8586D01*
G01X5243Y8586D01*
G01X5214Y8682D01*
G01X5205Y8706D01*
G01X5197Y8730D01*
G01X5182Y8779D01*
G01X5161Y8854D01*
G01X5153Y8880D01*
G37*

%LPD*%
G36*
G01X5989Y8936D02*
G01X5810Y8936D01*
G01X5781Y8934D01*
G01X5754Y8932D01*
G01X5728Y8927D01*
G01X5705Y8920D01*
G01X5684Y8911D01*
G01X5664Y8899D01*
G01X5648Y8885D01*
G01X5634Y8868D01*
G01X5622Y8848D01*
G01X5614Y8826D01*
G01X5609Y8801D01*
G01X5607Y8773D01*
G01X5609Y8750D01*
G01X5612Y8730D01*
G01X5617Y8711D01*
G01X5625Y8693D01*
G01X5634Y8678D01*
G01X5645Y8663D01*
G01X5657Y8650D01*
G01X5672Y8639D01*
G01X5688Y8629D01*
G01X5705Y8621D01*
G01X5723Y8614D01*
G01X5743Y8609D01*
G01X5593Y8350D01*
G01X5668Y8350D01*
G01X5814Y8603D01*
G01X5923Y8603D01*
G01X5923Y8350D01*
G01X5989Y8350D01*
G01X5989Y8936D01*
G37*

%LPC*%
G36*
G01X5923Y8882D02*
G01X5821Y8882D01*
G01X5787Y8880D01*
G01X5758Y8876D01*
G01X5733Y8868D01*
G01X5712Y8857D01*
G01X5696Y8842D01*
G01X5684Y8823D01*
G01X5677Y8800D01*
G01X5675Y8773D01*
G01X5677Y8745D01*
G01X5684Y8721D01*
G01X5696Y8701D01*
G01X5712Y8685D01*
G01X5733Y8673D01*
G01X5758Y8664D01*
G01X5787Y8658D01*
G01X5821Y8657D01*
G01X5923Y8657D01*
G01X5923Y8882D01*
G37*

%LPD*%
G36*
G01X7280Y8936D02*
G01X7215Y8936D01*
G01X7215Y8350D01*
G01X7285Y8350D01*
G01X7505Y8728D01*
G01X7568Y8848D01*
G01X7572Y8848D01*
G01X7571Y8827D01*
G01X7569Y8783D01*
G01X7567Y8761D01*
G01X7565Y8716D01*
G01X7565Y8693D01*
G01X7564Y8671D01*
G01X7564Y8350D01*
G01X7627Y8350D01*
G01X7627Y8936D01*
G01X7560Y8936D01*
G01X7338Y8555D01*
G01X7275Y8436D01*
G01X7271Y8436D01*
G01X7273Y8480D01*
G01X7275Y8503D01*
G01X7277Y8527D01*
G01X7279Y8573D01*
G01X7279Y8596D01*
G01X7280Y8619D01*
G01X7280Y8936D01*
G37*

%LPD*%
G36*
G01X8094Y8936D02*
G01X7760Y8936D01*
G01X7760Y8880D01*
G01X8027Y8880D01*
G01X8027Y8686D01*
G01X7803Y8686D01*
G01X7803Y8630D01*
G01X8027Y8630D01*
G01X8027Y8405D01*
G01X7752Y8405D01*
G01X7752Y8350D01*
G01X8094Y8350D01*
G01X8094Y8936D01*
G37*

%LPD*%
G36*
G01X6388Y8945D02*
G01X6367Y8946D01*
G01X6345Y8945D01*
G01X6324Y8942D01*
G01X6304Y8938D01*
G01X6285Y8932D01*
G01X6266Y8925D01*
G01X6248Y8916D01*
G01X6216Y8894D01*
G01X6202Y8880D01*
G01X6188Y8865D01*
G01X6175Y8849D01*
G01X6164Y8831D01*
G01X6153Y8812D01*
G01X6144Y8792D01*
G01X6137Y8771D01*
G01X6130Y8748D01*
G01X6125Y8723D01*
G01X6122Y8698D01*
G01X6119Y8672D01*
G01X6118Y8644D01*
G01X6119Y8617D01*
G01X6122Y8590D01*
G01X6125Y8565D01*
G01X6130Y8541D01*
G01X6137Y8518D01*
G01X6144Y8496D01*
G01X6153Y8476D01*
G01X6164Y8456D01*
G01X6175Y8438D01*
G01X6188Y8422D01*
G01X6202Y8407D01*
G01X6216Y8393D01*
G01X6232Y8381D01*
G01X6248Y8370D01*
G01X6266Y8361D01*
G01X6285Y8353D01*
G01X6304Y8347D01*
G01X6324Y8343D01*
G01X6345Y8340D01*
G01X6388Y8340D01*
G01X6409Y8343D01*
G01X6429Y8347D01*
G01X6448Y8353D01*
G01X6466Y8361D01*
G01X6484Y8370D01*
G01X6501Y8381D01*
G01X6516Y8393D01*
G01X6531Y8407D01*
G01X6544Y8422D01*
G01X6557Y8438D01*
G01X6568Y8456D01*
G01X6588Y8496D01*
G01X6595Y8518D01*
G01X6602Y8541D01*
G01X6607Y8565D01*
G01X6610Y8590D01*
G01X6613Y8617D01*
G01X6614Y8644D01*
G01X6613Y8672D01*
G01X6610Y8698D01*
G01X6607Y8723D01*
G01X6602Y8748D01*
G01X6595Y8771D01*
G01X6588Y8792D01*
G01X6578Y8812D01*
G01X6568Y8831D01*
G01X6557Y8849D01*
G01X6544Y8865D01*
G01X6531Y8880D01*
G01X6516Y8894D01*
G01X6501Y8905D01*
G01X6484Y8916D01*
G01X6466Y8925D01*
G01X6448Y8932D01*
G01X6429Y8938D01*
G01X6409Y8942D01*
G01X6388Y8945D01*
G37*

%LPC*%
G36*
G01X6386Y8886D02*
G01X6367Y8888D01*
G01X6347Y8886D01*
G01X6327Y8883D01*
G01X6310Y8878D01*
G01X6292Y8871D01*
G01X6277Y8861D01*
G01X6262Y8850D01*
G01X6248Y8837D01*
G01X6236Y8822D01*
G01X6225Y8806D01*
G01X6215Y8787D01*
G01X6206Y8767D01*
G01X6199Y8746D01*
G01X6194Y8723D01*
G01X6190Y8698D01*
G01X6187Y8672D01*
G01X6186Y8644D01*
G01X6187Y8617D01*
G01X6190Y8591D01*
G01X6194Y8566D01*
G01X6199Y8543D01*
G01X6206Y8521D01*
G01X6215Y8501D01*
G01X6225Y8482D01*
G01X6236Y8465D01*
G01X6248Y8450D01*
G01X6262Y8436D01*
G01X6277Y8425D01*
G01X6292Y8415D01*
G01X6310Y8407D01*
G01X6327Y8402D01*
G01X6347Y8399D01*
G01X6367Y8398D01*
G01X6386Y8399D01*
G01X6405Y8402D01*
G01X6423Y8407D01*
G01X6440Y8415D01*
G01X6456Y8425D01*
G01X6471Y8436D01*
G01X6484Y8450D01*
G01X6497Y8465D01*
G01X6507Y8482D01*
G01X6517Y8501D01*
G01X6526Y8521D01*
G01X6533Y8543D01*
G01X6538Y8566D01*
G01X6542Y8591D01*
G01X6545Y8617D01*
G01X6546Y8644D01*
G01X6545Y8672D01*
G01X6542Y8698D01*
G01X6538Y8723D01*
G01X6533Y8746D01*
G01X6526Y8767D01*
G01X6517Y8787D01*
G01X6507Y8806D01*
G01X6497Y8822D01*
G01X6484Y8837D01*
G01X6471Y8850D01*
G01X6456Y8861D01*
G01X6440Y8871D01*
G01X6423Y8878D01*
G01X6405Y8883D01*
G01X6386Y8886D01*
G37*

%LPD*%
G36*
G01X6912Y8944D02*
G01X6886Y8946D01*
G01X6860Y8944D01*
G01X6835Y8940D01*
G01X6812Y8934D01*
G01X6789Y8925D01*
G01X6768Y8915D01*
G01X6749Y8903D01*
G01X6731Y8889D01*
G01X6715Y8873D01*
G01X6752Y8832D01*
G01X6765Y8844D01*
G01X6780Y8855D01*
G01X6795Y8864D01*
G01X6811Y8872D01*
G01X6829Y8879D01*
G01X6847Y8884D01*
G01X6866Y8886D01*
G01X6886Y8888D01*
G01X6911Y8886D01*
G01X6933Y8881D01*
G01X6952Y8873D01*
G01X6968Y8863D01*
G01X6982Y8850D01*
G01X6992Y8835D01*
G01X6997Y8817D01*
G01X7000Y8798D01*
G01X6997Y8777D01*
G01X6991Y8759D01*
G01X6981Y8744D01*
G01X6968Y8732D01*
G01X6953Y8721D01*
G01X6937Y8711D01*
G01X6919Y8703D01*
G01X6902Y8696D01*
G01X6818Y8659D01*
G01X6793Y8648D01*
G01X6770Y8635D01*
G01X6750Y8620D01*
G01X6731Y8603D01*
G01X6717Y8584D01*
G01X6705Y8561D01*
G01X6698Y8534D01*
G01X6696Y8503D01*
G01X6697Y8481D01*
G01X6702Y8459D01*
G01X6709Y8439D01*
G01X6720Y8420D01*
G01X6733Y8403D01*
G01X6749Y8387D01*
G01X6767Y8373D01*
G01X6788Y8361D01*
G01X6811Y8352D01*
G01X6836Y8345D01*
G01X6863Y8341D01*
G01X6893Y8340D01*
G01X6923Y8341D01*
G01X6952Y8346D01*
G01X6980Y8353D01*
G01X7006Y8363D01*
G01X7031Y8375D01*
G01X7054Y8390D01*
G01X7076Y8407D01*
G01X7096Y8426D01*
G01X7056Y8471D01*
G01X7039Y8455D01*
G01X7021Y8441D01*
G01X7002Y8428D01*
G01X6981Y8418D01*
G01X6960Y8409D01*
G01X6938Y8403D01*
G01X6915Y8399D01*
G01X6892Y8398D01*
G01X6863Y8399D01*
G01X6838Y8405D01*
G01X6816Y8414D01*
G01X6797Y8426D01*
G01X6783Y8440D01*
G01X6772Y8457D01*
G01X6766Y8477D01*
G01X6764Y8498D01*
G01X6765Y8520D01*
G01X6771Y8538D01*
G01X6780Y8554D01*
G01X6793Y8567D01*
G01X6807Y8578D01*
G01X6824Y8588D01*
G01X6843Y8597D01*
G01X6864Y8607D01*
G01X6947Y8644D01*
G01X6968Y8653D01*
G01X6989Y8665D01*
G01X7010Y8679D01*
G01X7028Y8695D01*
G01X7044Y8714D01*
G01X7056Y8737D01*
G01X7064Y8763D01*
G01X7068Y8792D01*
G01X7066Y8814D01*
G01X7061Y8835D01*
G01X7054Y8854D01*
G01X7044Y8872D01*
G01X7031Y8888D01*
G01X7016Y8902D01*
G01X6999Y8915D01*
G01X6980Y8926D01*
G01X6959Y8934D01*
G01X6936Y8940D01*
G01X6912Y8944D01*
G37*

%LPD*%
G36*
G01X8427Y8944D02*
G01X8402Y8946D01*
G01X8376Y8944D01*
G01X8351Y8940D01*
G01X8327Y8934D01*
G01X8305Y8925D01*
G01X8285Y8915D01*
G01X8265Y8903D01*
G01X8247Y8889D01*
G01X8231Y8873D01*
G01X8267Y8832D01*
G01X8280Y8844D01*
G01X8295Y8855D01*
G01X8310Y8864D01*
G01X8327Y8872D01*
G01X8344Y8879D01*
G01X8362Y8884D01*
G01X8381Y8886D01*
G01X8402Y8888D01*
G01X8426Y8886D01*
G01X8448Y8881D01*
G01X8468Y8873D01*
G01X8484Y8863D01*
G01X8497Y8850D01*
G01X8507Y8835D01*
G01X8513Y8817D01*
G01X8515Y8798D01*
G01X8513Y8777D01*
G01X8506Y8759D01*
G01X8496Y8744D01*
G01X8483Y8732D01*
G01X8468Y8721D01*
G01X8452Y8711D01*
G01X8435Y8703D01*
G01X8418Y8696D01*
G01X8332Y8659D01*
G01X8308Y8648D01*
G01X8285Y8635D01*
G01X8265Y8620D01*
G01X8247Y8603D01*
G01X8232Y8584D01*
G01X8221Y8561D01*
G01X8214Y8534D01*
G01X8211Y8503D01*
G01X8213Y8481D01*
G01X8218Y8459D01*
G01X8225Y8439D01*
G01X8236Y8420D01*
G01X8249Y8403D01*
G01X8264Y8387D01*
G01X8283Y8373D01*
G01X8303Y8361D01*
G01X8326Y8352D01*
G01X8351Y8345D01*
G01X8378Y8341D01*
G01X8407Y8340D01*
G01X8438Y8341D01*
G01X8468Y8346D01*
G01X8496Y8353D01*
G01X8522Y8363D01*
G01X8547Y8375D01*
G01X8570Y8390D01*
G01X8592Y8407D01*
G01X8611Y8426D01*
G01X8572Y8471D01*
G01X8555Y8455D01*
G01X8536Y8441D01*
G01X8517Y8428D01*
G01X8497Y8418D01*
G01X8475Y8409D01*
G01X8453Y8403D01*
G01X8431Y8399D01*
G01X8407Y8398D01*
G01X8379Y8399D01*
G01X8353Y8405D01*
G01X8331Y8414D01*
G01X8313Y8426D01*
G01X8298Y8440D01*
G01X8288Y8457D01*
G01X8281Y8477D01*
G01X8278Y8498D01*
G01X8281Y8520D01*
G01X8286Y8538D01*
G01X8295Y8554D01*
G01X8307Y8567D01*
G01X8322Y8578D01*
G01X8339Y8588D01*
G01X8358Y8597D01*
G01X8378Y8607D01*
G01X8464Y8644D01*
G01X8484Y8653D01*
G01X8505Y8665D01*
G01X8525Y8679D01*
G01X8543Y8695D01*
G01X8559Y8714D01*
G01X8572Y8737D01*
G01X8580Y8763D01*
G01X8582Y8792D01*
G01X8581Y8814D01*
G01X8576Y8835D01*
G01X8569Y8854D01*
G01X8559Y8872D01*
G01X8546Y8888D01*
G01X8531Y8902D01*
G01X8514Y8915D01*
G01X8495Y8926D01*
G01X8474Y8934D01*
G01X8451Y8940D01*
G01X8427Y8944D01*
G37*

%LPD*%

%LPD*%
G36*
G01X10114Y8703D02*
G01X9750Y8913D01*
G01X9750Y8840D01*
G01X10063Y8659D01*
G01X9939Y8555D01*
G01X9750Y8555D01*
G01X9750Y8488D01*
G01X10335Y8488D01*
G01X10335Y8555D01*
G01X10034Y8555D01*
G01X10034Y8557D01*
G01X10335Y8811D01*
G01X10335Y8886D01*
G01X10114Y8703D01*
G37*

%LPD*%
G36*
G01X9864Y8340D02*
G01X9823Y8378D01*
G01X9804Y8360D01*
G01X9788Y8341D01*
G01X9773Y8321D01*
G01X9761Y8300D01*
G01X9752Y8277D01*
G01X9745Y8253D01*
G01X9741Y8227D01*
G01X9739Y8200D01*
G01X9740Y8178D01*
G01X9743Y8157D01*
G01X9747Y8137D01*
G01X9753Y8118D01*
G01X9760Y8099D01*
G01X9769Y8081D01*
G01X9780Y8064D01*
G01X9792Y8048D01*
G01X9805Y8033D01*
G01X9820Y8019D01*
G01X9836Y8006D01*
G01X9854Y7994D01*
G01X9873Y7984D01*
G01X9893Y7975D01*
G01X9915Y7967D01*
G01X9938Y7960D01*
G01X9962Y7955D01*
G01X9988Y7951D01*
G01X10014Y7948D01*
G01X10070Y7948D01*
G01X10097Y7951D01*
G01X10122Y7955D01*
G01X10146Y7960D01*
G01X10169Y7967D01*
G01X10191Y7975D01*
G01X10211Y7984D01*
G01X10230Y7995D01*
G01X10248Y8007D01*
G01X10264Y8020D01*
G01X10280Y8034D01*
G01X10293Y8050D01*
G01X10305Y8066D01*
G01X10315Y8083D01*
G01X10325Y8101D01*
G01X10332Y8120D01*
G01X10338Y8140D01*
G01X10342Y8160D01*
G01X10345Y8182D01*
G01X10346Y8203D01*
G01X10344Y8230D01*
G01X10340Y8254D01*
G01X10333Y8277D01*
G01X10324Y8298D01*
G01X10313Y8317D01*
G01X10301Y8334D01*
G01X10288Y8350D01*
G01X10275Y8363D01*
G01X10231Y8326D01*
G01X10254Y8301D01*
G01X10272Y8273D01*
G01X10283Y8241D01*
G01X10288Y8205D01*
G01X10286Y8184D01*
G01X10283Y8164D01*
G01X10278Y8145D01*
G01X10271Y8127D01*
G01X10261Y8110D01*
G01X10250Y8095D01*
G01X10237Y8080D01*
G01X10222Y8067D01*
G01X10206Y8055D01*
G01X10187Y8045D01*
G01X10167Y8036D01*
G01X10145Y8029D01*
G01X10122Y8023D01*
G01X10097Y8019D01*
G01X10071Y8016D01*
G01X10043Y8015D01*
G01X10016Y8016D01*
G01X9989Y8019D01*
G01X9965Y8023D01*
G01X9941Y8028D01*
G01X9919Y8036D01*
G01X9899Y8044D01*
G01X9881Y8055D01*
G01X9864Y8066D01*
G01X9849Y8079D01*
G01X9835Y8093D01*
G01X9824Y8108D01*
G01X9815Y8125D01*
G01X9807Y8142D01*
G01X9802Y8161D01*
G01X9799Y8182D01*
G01X9797Y8203D01*
G01X9799Y8223D01*
G01X9802Y8243D01*
G01X9807Y8261D01*
G01X9815Y8279D01*
G01X9825Y8295D01*
G01X9836Y8311D01*
G01X9849Y8326D01*
G01X9864Y8340D01*
G37*

%LPD*%
G36*
G01X10335Y7705D02*
G01X9750Y7905D01*
G01X9750Y7836D01*
G01X9935Y7776D01*
G01X9935Y7559D01*
G01X9750Y7498D01*
G01X9750Y7432D01*
G01X10335Y7632D01*
G01X10335Y7705D01*
G37*

%LPC*%
G36*
G01X10081Y7730D02*
G01X9986Y7759D01*
G01X9986Y7576D01*
G01X10081Y7605D01*
G01X10106Y7614D01*
G01X10131Y7621D01*
G01X10179Y7637D01*
G01X10254Y7658D01*
G01X10280Y7665D01*
G01X10280Y7669D01*
G01X10254Y7676D01*
G01X10229Y7683D01*
G01X10204Y7691D01*
G01X10180Y7698D01*
G01X10155Y7706D01*
G01X10131Y7713D01*
G01X10106Y7721D01*
G01X10081Y7730D01*
G37*

%LPD*%
G36*
G01X10335Y7440D02*
G01X10280Y7440D01*
G01X10280Y7259D01*
G01X9750Y7259D01*
G01X9750Y7192D01*
G01X10280Y7192D01*
G01X10280Y7015D01*
G01X10335Y7015D01*
G01X10335Y7440D01*
G37*

%LPD*%
G36*
G01X9934Y6969D02*
G01X9903Y6971D01*
G01X9881Y6970D01*
G01X9860Y6965D01*
G01X9839Y6958D01*
G01X9820Y6947D01*
G01X9803Y6934D01*
G01X9787Y6918D01*
G01X9773Y6900D01*
G01X9761Y6879D01*
G01X9752Y6856D01*
G01X9745Y6831D01*
G01X9741Y6804D01*
G01X9739Y6775D01*
G01X9741Y6744D01*
G01X9746Y6715D01*
G01X9753Y6687D01*
G01X9763Y6661D01*
G01X9775Y6636D01*
G01X9790Y6613D01*
G01X9807Y6591D01*
G01X9827Y6571D01*
G01X9872Y6611D01*
G01X9856Y6628D01*
G01X9841Y6646D01*
G01X9828Y6665D01*
G01X9818Y6686D01*
G01X9809Y6707D01*
G01X9803Y6729D01*
G01X9799Y6752D01*
G01X9797Y6776D01*
G01X9799Y6804D01*
G01X9805Y6829D01*
G01X9814Y6851D01*
G01X9826Y6869D01*
G01X9840Y6884D01*
G01X9857Y6895D01*
G01X9877Y6901D01*
G01X9898Y6903D01*
G01X9920Y6901D01*
G01X9939Y6896D01*
G01X9954Y6887D01*
G01X9967Y6875D01*
G01X9978Y6860D01*
G01X9988Y6843D01*
G01X9997Y6824D01*
G01X10006Y6803D01*
G01X10043Y6719D01*
G01X10053Y6698D01*
G01X10065Y6678D01*
G01X10079Y6657D01*
G01X10095Y6639D01*
G01X10114Y6623D01*
G01X10137Y6611D01*
G01X10163Y6603D01*
G01X10193Y6600D01*
G01X10214Y6601D01*
G01X10235Y6606D01*
G01X10254Y6613D01*
G01X10272Y6623D01*
G01X10288Y6636D01*
G01X10302Y6651D01*
G01X10315Y6668D01*
G01X10326Y6687D01*
G01X10334Y6708D01*
G01X10340Y6731D01*
G01X10344Y6755D01*
G01X10346Y6780D01*
G01X10344Y6807D01*
G01X10340Y6832D01*
G01X10334Y6855D01*
G01X10325Y6878D01*
G01X10315Y6898D01*
G01X10302Y6918D01*
G01X10289Y6936D01*
G01X10273Y6951D01*
G01X10231Y6915D01*
G01X10244Y6902D01*
G01X10255Y6887D01*
G01X10264Y6872D01*
G01X10272Y6855D01*
G01X10279Y6838D01*
G01X10284Y6820D01*
G01X10286Y6801D01*
G01X10288Y6780D01*
G01X10286Y6756D01*
G01X10281Y6734D01*
G01X10273Y6715D01*
G01X10263Y6698D01*
G01X10250Y6685D01*
G01X10235Y6676D01*
G01X10217Y6669D01*
G01X10197Y6667D01*
G01X10177Y6670D01*
G01X10159Y6676D01*
G01X10144Y6686D01*
G01X10131Y6699D01*
G01X10121Y6714D01*
G01X10111Y6730D01*
G01X10103Y6748D01*
G01X10096Y6765D01*
G01X10060Y6850D01*
G01X10048Y6874D01*
G01X10035Y6897D01*
G01X10020Y6917D01*
G01X10003Y6936D01*
G01X9984Y6951D01*
G01X9960Y6962D01*
G01X9934Y6969D01*
G37*

%LPD*%
G36*
G01X9970Y6488D02*
G01X9939Y6490D01*
G01X9909Y6488D01*
G01X9880Y6482D01*
G01X9854Y6474D01*
G01X9831Y6462D01*
G01X9810Y6448D01*
G01X9792Y6431D01*
G01X9776Y6413D01*
G01X9763Y6393D01*
G01X9753Y6371D01*
G01X9746Y6348D01*
G01X9741Y6325D01*
G01X9739Y6301D01*
G01X9741Y6268D01*
G01X9746Y6239D01*
G01X9753Y6213D01*
G01X9763Y6189D01*
G01X9775Y6168D01*
G01X9788Y6148D01*
G01X9802Y6131D01*
G01X9817Y6115D01*
G01X9860Y6148D01*
G01X9847Y6162D01*
G01X9835Y6176D01*
G01X9824Y6192D01*
G01X9814Y6209D01*
G01X9806Y6227D01*
G01X9799Y6248D01*
G01X9795Y6271D01*
G01X9793Y6296D01*
G01X9796Y6321D01*
G01X9804Y6345D01*
G01X9816Y6367D01*
G01X9832Y6386D01*
G01X9853Y6401D01*
G01X9878Y6413D01*
G01X9906Y6421D01*
G01X9938Y6423D01*
G01X9968Y6421D01*
G01X9995Y6415D01*
G01X10019Y6404D01*
G01X10039Y6390D01*
G01X10055Y6371D01*
G01X10066Y6350D01*
G01X10073Y6326D01*
G01X10076Y6298D01*
G01X10073Y6271D01*
G01X10067Y6246D01*
G01X10056Y6223D01*
G01X10040Y6200D01*
G01X10064Y6163D01*
G01X10335Y6182D01*
G01X10335Y6461D01*
G01X10280Y6461D01*
G01X10280Y6240D01*
G01X10102Y6223D01*
G01X10112Y6244D01*
G01X10120Y6265D01*
G01X10125Y6288D01*
G01X10127Y6315D01*
G01X10125Y6338D01*
G01X10122Y6361D01*
G01X10115Y6383D01*
G01X10107Y6403D01*
G01X10095Y6421D01*
G01X10081Y6438D01*
G01X10065Y6453D01*
G01X10045Y6466D01*
G01X10023Y6476D01*
G01X9998Y6483D01*
G01X9970Y6488D01*
G37*

%LPD*%
G36*
G01X10335Y6011D02*
G01X9750Y6011D01*
G01X9750Y5951D01*
G01X10128Y5951D01*
G01X10172Y5953D01*
G01X10194Y5955D01*
G01X10217Y5956D01*
G01X10238Y5957D01*
G01X10257Y5959D01*
G01X10257Y5955D01*
G01X10125Y5909D01*
G01X9810Y5794D01*
G01X9810Y5748D01*
G01X10125Y5634D01*
G01X10257Y5588D01*
G01X10257Y5584D01*
G01X10238Y5585D01*
G01X10217Y5586D01*
G01X10194Y5588D01*
G01X10128Y5591D01*
G01X10107Y5591D01*
G01X10088Y5592D01*
G01X9750Y5592D01*
G01X9750Y5532D01*
G01X10335Y5532D01*
G01X10335Y5613D01*
G01X10015Y5728D01*
G01X9984Y5740D01*
G01X9953Y5750D01*
G01X9922Y5761D01*
G01X9890Y5771D01*
G01X9890Y5776D01*
G01X9922Y5786D01*
G01X9953Y5796D01*
G01X10015Y5815D01*
G01X10335Y5930D01*
G01X10335Y6011D01*
G37*

%LPD*%
G36*
G01X9998Y5415D02*
G01X9947Y5415D01*
G01X9947Y5213D01*
G01X9998Y5213D01*
G01X9998Y5415D01*
G37*

%LPD*%
G36*
G01X10081Y5135D02*
G01X10044Y5136D01*
G01X10007Y5135D01*
G01X9972Y5132D01*
G01X9940Y5128D01*
G01X9910Y5123D01*
G01X9883Y5116D01*
G01X9858Y5108D01*
G01X9835Y5098D01*
G01X9815Y5087D01*
G01X9797Y5075D01*
G01X9782Y5061D01*
G01X9769Y5047D01*
G01X9758Y5031D01*
G01X9750Y5014D01*
G01X9744Y4996D01*
G01X9741Y4977D01*
G01X9739Y4957D01*
G01X9741Y4936D01*
G01X9744Y4917D01*
G01X9750Y4899D01*
G01X9758Y4882D01*
G01X9769Y4866D01*
G01X9782Y4851D01*
G01X9797Y4838D01*
G01X9815Y4825D01*
G01X9835Y4814D01*
G01X9858Y4805D01*
G01X9883Y4796D01*
G01X9910Y4789D01*
G01X9940Y4784D01*
G01X9972Y4780D01*
G01X10007Y4777D01*
G01X10044Y4776D01*
G01X10081Y4777D01*
G01X10116Y4780D01*
G01X10148Y4784D01*
G01X10177Y4789D01*
G01X10204Y4796D01*
G01X10229Y4805D01*
G01X10251Y4814D01*
G01X10271Y4825D01*
G01X10289Y4838D01*
G01X10304Y4851D01*
G01X10317Y4866D01*
G01X10327Y4882D01*
G01X10335Y4899D01*
G01X10341Y4917D01*
G01X10344Y4936D01*
G01X10346Y4957D01*
G01X10344Y4977D01*
G01X10341Y4996D01*
G01X10335Y5014D01*
G01X10327Y5031D01*
G01X10317Y5047D01*
G01X10304Y5061D01*
G01X10289Y5075D01*
G01X10271Y5087D01*
G01X10251Y5098D01*
G01X10229Y5108D01*
G01X10204Y5116D01*
G01X10177Y5123D01*
G01X10148Y5128D01*
G01X10116Y5132D01*
G01X10081Y5135D01*
G37*

%LPC*%
G36*
G01X10085Y5071D02*
G01X10003Y5071D01*
G01X9965Y5068D01*
G01X9931Y5063D01*
G01X9902Y5057D01*
G01X9875Y5049D01*
G01X9853Y5040D01*
G01X9834Y5029D01*
G01X9818Y5017D01*
G01X9806Y5003D01*
G01X9798Y4989D01*
G01X9793Y4973D01*
G01X9792Y4957D01*
G01X9793Y4940D01*
G01X9798Y4924D01*
G01X9806Y4909D01*
G01X9818Y4896D01*
G01X9834Y4883D01*
G01X9853Y4872D01*
G01X9875Y4863D01*
G01X9902Y4855D01*
G01X9931Y4848D01*
G01X9965Y4843D01*
G01X10003Y4840D01*
G01X10085Y4840D01*
G01X10122Y4843D01*
G01X10155Y4848D01*
G01X10185Y4855D01*
G01X10210Y4863D01*
G01X10233Y4872D01*
G01X10251Y4883D01*
G01X10266Y4896D01*
G01X10278Y4909D01*
G01X10286Y4924D01*
G01X10291Y4940D01*
G01X10293Y4957D01*
G01X10291Y4973D01*
G01X10286Y4989D01*
G01X10278Y5003D01*
G01X10266Y5017D01*
G01X10251Y5029D01*
G01X10233Y5040D01*
G01X10210Y5049D01*
G01X10185Y5057D01*
G01X10155Y5063D01*
G01X10122Y5068D01*
G01X10085Y5071D01*
G37*

%LPD*%
G36*
G01X9806Y4696D02*
G01X9750Y4696D01*
G01X9750Y4334D01*
G01X9789Y4334D01*
G01X9813Y4361D01*
G01X9859Y4411D01*
G01X9903Y4455D01*
G01X9924Y4474D01*
G01X9944Y4492D01*
G01X9965Y4509D01*
G01X9984Y4525D01*
G01X10003Y4539D01*
G01X10022Y4551D01*
G01X10040Y4562D01*
G01X10058Y4572D01*
G01X10092Y4588D01*
G01X10109Y4593D01*
G01X10125Y4598D01*
G01X10141Y4601D01*
G01X10156Y4603D01*
G01X10172Y4603D01*
G01X10197Y4602D01*
G01X10219Y4597D01*
G01X10240Y4588D01*
G01X10258Y4576D01*
G01X10272Y4561D01*
G01X10283Y4542D01*
G01X10290Y4519D01*
G01X10293Y4492D01*
G01X10291Y4475D01*
G01X10287Y4457D01*
G01X10281Y4440D01*
G01X10273Y4424D01*
G01X10263Y4409D01*
G01X10251Y4394D01*
G01X10238Y4381D01*
G01X10223Y4367D01*
G01X10260Y4330D01*
G01X10278Y4347D01*
G01X10295Y4366D01*
G01X10310Y4385D01*
G01X10322Y4405D01*
G01X10332Y4426D01*
G01X10339Y4449D01*
G01X10344Y4473D01*
G01X10346Y4500D01*
G01X10344Y4525D01*
G01X10340Y4548D01*
G01X10334Y4570D01*
G01X10324Y4589D01*
G01X10313Y4607D01*
G01X10299Y4623D01*
G01X10283Y4636D01*
G01X10265Y4647D01*
G01X10245Y4656D01*
G01X10223Y4662D01*
G01X10200Y4666D01*
G01X10175Y4667D01*
G01X10157Y4667D01*
G01X10139Y4665D01*
G01X10103Y4657D01*
G01X10085Y4651D01*
G01X10067Y4644D01*
G01X10048Y4636D01*
G01X10030Y4626D01*
G01X10012Y4615D01*
G01X9993Y4603D01*
G01X9975Y4591D01*
G01X9956Y4577D01*
G01X9937Y4562D01*
G01X9918Y4546D01*
G01X9899Y4529D01*
G01X9880Y4511D01*
G01X9860Y4493D01*
G01X9840Y4473D01*
G01X9821Y4453D01*
G01X9801Y4432D01*
G01X9802Y4456D01*
G01X9804Y4481D01*
G01X9805Y4505D01*
G01X9806Y4528D01*
G01X9806Y4696D01*
G37*

%LPD*%
G36*
G01X10081Y4256D02*
G01X10044Y4257D01*
G01X10007Y4256D01*
G01X9972Y4253D01*
G01X9940Y4250D01*
G01X9910Y4244D01*
G01X9883Y4237D01*
G01X9858Y4229D01*
G01X9835Y4219D01*
G01X9815Y4208D01*
G01X9797Y4196D01*
G01X9782Y4183D01*
G01X9769Y4168D01*
G01X9758Y4152D01*
G01X9750Y4136D01*
G01X9744Y4117D01*
G01X9741Y4098D01*
G01X9739Y4078D01*
G01X9741Y4058D01*
G01X9744Y4039D01*
G01X9750Y4021D01*
G01X9758Y4003D01*
G01X9769Y3988D01*
G01X9782Y3973D01*
G01X9797Y3959D01*
G01X9815Y3947D01*
G01X9835Y3936D01*
G01X9858Y3926D01*
G01X9883Y3918D01*
G01X9910Y3911D01*
G01X9940Y3905D01*
G01X9972Y3902D01*
G01X10007Y3899D01*
G01X10044Y3898D01*
G01X10081Y3899D01*
G01X10116Y3902D01*
G01X10148Y3905D01*
G01X10177Y3911D01*
G01X10204Y3918D01*
G01X10229Y3926D01*
G01X10251Y3936D01*
G01X10271Y3947D01*
G01X10289Y3959D01*
G01X10304Y3973D01*
G01X10317Y3988D01*
G01X10327Y4003D01*
G01X10335Y4021D01*
G01X10341Y4039D01*
G01X10344Y4058D01*
G01X10346Y4078D01*
G01X10344Y4098D01*
G01X10341Y4117D01*
G01X10335Y4136D01*
G01X10327Y4152D01*
G01X10317Y4168D01*
G01X10304Y4183D01*
G01X10289Y4196D01*
G01X10271Y4208D01*
G01X10251Y4219D01*
G01X10229Y4229D01*
G01X10204Y4237D01*
G01X10177Y4244D01*
G01X10148Y4250D01*
G01X10116Y4253D01*
G01X10081Y4256D01*
G37*

%LPC*%
G36*
G01X10085Y4192D02*
G01X10044Y4194D01*
G01X10003Y4192D01*
G01X9965Y4190D01*
G01X9931Y4185D01*
G01X9902Y4179D01*
G01X9875Y4171D01*
G01X9853Y4162D01*
G01X9834Y4151D01*
G01X9818Y4139D01*
G01X9806Y4126D01*
G01X9798Y4111D01*
G01X9793Y4095D01*
G01X9792Y4078D01*
G01X9793Y4061D01*
G01X9798Y4046D01*
G01X9806Y4031D01*
G01X9818Y4017D01*
G01X9834Y4005D01*
G01X9853Y3994D01*
G01X9875Y3984D01*
G01X9902Y3976D01*
G01X9931Y3970D01*
G01X9965Y3965D01*
G01X10003Y3963D01*
G01X10044Y3961D01*
G01X10085Y3963D01*
G01X10122Y3965D01*
G01X10155Y3970D01*
G01X10185Y3976D01*
G01X10210Y3984D01*
G01X10233Y3994D01*
G01X10251Y4005D01*
G01X10266Y4017D01*
G01X10278Y4031D01*
G01X10286Y4046D01*
G01X10291Y4061D01*
G01X10293Y4078D01*
G01X10291Y4095D01*
G01X10286Y4111D01*
G01X10278Y4126D01*
G01X10266Y4139D01*
G01X10251Y4151D01*
G01X10233Y4162D01*
G01X10210Y4171D01*
G01X10185Y4179D01*
G01X10155Y4185D01*
G01X10122Y4190D01*
G01X10085Y4192D01*
G37*

%LPD*%
G36*
G01X9806Y3817D02*
G01X9750Y3817D01*
G01X9750Y3455D01*
G01X9789Y3455D01*
G01X9813Y3483D01*
G01X9836Y3509D01*
G01X9859Y3533D01*
G01X9881Y3555D01*
G01X9903Y3576D01*
G01X9924Y3596D01*
G01X9944Y3615D01*
G01X9965Y3631D01*
G01X9984Y3647D01*
G01X10003Y3661D01*
G01X10022Y3673D01*
G01X10040Y3684D01*
G01X10058Y3694D01*
G01X10075Y3703D01*
G01X10092Y3710D01*
G01X10109Y3715D01*
G01X10125Y3720D01*
G01X10141Y3723D01*
G01X10156Y3725D01*
G01X10172Y3726D01*
G01X10197Y3724D01*
G01X10219Y3719D01*
G01X10240Y3711D01*
G01X10258Y3698D01*
G01X10272Y3683D01*
G01X10283Y3664D01*
G01X10290Y3641D01*
G01X10293Y3615D01*
G01X10291Y3596D01*
G01X10287Y3579D01*
G01X10281Y3562D01*
G01X10273Y3546D01*
G01X10263Y3531D01*
G01X10251Y3517D01*
G01X10238Y3503D01*
G01X10223Y3490D01*
G01X10260Y3451D01*
G01X10278Y3469D01*
G01X10295Y3488D01*
G01X10310Y3507D01*
G01X10322Y3527D01*
G01X10332Y3548D01*
G01X10339Y3571D01*
G01X10344Y3595D01*
G01X10346Y3621D01*
G01X10344Y3647D01*
G01X10340Y3670D01*
G01X10334Y3692D01*
G01X10324Y3711D01*
G01X10313Y3729D01*
G01X10299Y3744D01*
G01X10283Y3758D01*
G01X10265Y3769D01*
G01X10245Y3778D01*
G01X10223Y3784D01*
G01X10200Y3788D01*
G01X10175Y3790D01*
G01X10157Y3789D01*
G01X10139Y3787D01*
G01X10103Y3779D01*
G01X10085Y3773D01*
G01X10067Y3765D01*
G01X10048Y3757D01*
G01X10030Y3748D01*
G01X10012Y3737D01*
G01X9993Y3725D01*
G01X9975Y3712D01*
G01X9937Y3684D01*
G01X9918Y3667D01*
G01X9899Y3651D01*
G01X9880Y3633D01*
G01X9840Y3595D01*
G01X9821Y3575D01*
G01X9801Y3553D01*
G01X9802Y3577D01*
G01X9804Y3602D01*
G01X9806Y3650D01*
G01X9806Y3817D01*
G37*

%LPD*%
G36*
G01X10056Y3373D02*
G01X10002Y3373D01*
G01X9976Y3369D01*
G01X9951Y3364D01*
G01X9928Y3357D01*
G01X9907Y3349D01*
G01X9888Y3339D01*
G01X9871Y3328D01*
G01X9855Y3316D01*
G01X9841Y3303D01*
G01X9829Y3289D01*
G01X9819Y3275D01*
G01X9810Y3260D01*
G01X9804Y3245D01*
G01X9799Y3230D01*
G01X9797Y3215D01*
G01X9796Y3200D01*
G01X9800Y3165D01*
G01X9812Y3137D01*
G01X9833Y3117D01*
G01X9863Y3107D01*
G01X9839Y3082D01*
G01X9819Y3056D01*
G01X9806Y3027D01*
G01X9801Y2998D01*
G01X9802Y2976D01*
G01X9809Y2956D01*
G01X9819Y2938D01*
G01X9833Y2922D01*
G01X9851Y2909D01*
G01X9873Y2900D01*
G01X9898Y2894D01*
G01X9927Y2892D01*
G01X9950Y2893D01*
G01X9974Y2897D01*
G01X9998Y2903D01*
G01X10021Y2913D01*
G01X10043Y2924D01*
G01X10064Y2938D01*
G01X10083Y2953D01*
G01X10099Y2971D01*
G01X10113Y2992D01*
G01X10123Y3013D01*
G01X10129Y3037D01*
G01X10131Y3063D01*
G01X10129Y3084D01*
G01X10121Y3103D01*
G01X10107Y3120D01*
G01X10088Y3134D01*
G01X10088Y3136D01*
G01X10123Y3144D01*
G01X10123Y3190D01*
G01X9923Y3150D01*
G01X9901Y3148D01*
G01X9882Y3150D01*
G01X9867Y3154D01*
G01X9856Y3162D01*
G01X9847Y3173D01*
G01X9842Y3187D01*
G01X9840Y3205D01*
G01X9842Y3219D01*
G01X9846Y3233D01*
G01X9853Y3247D01*
G01X9863Y3261D01*
G01X9875Y3274D01*
G01X9890Y3286D01*
G01X9907Y3298D01*
G01X9927Y3307D01*
G01X9948Y3315D01*
G01X9973Y3321D01*
G01X9999Y3325D01*
G01X10027Y3326D01*
G01X10055Y3326D01*
G01X10081Y3323D01*
G01X10129Y3311D01*
G01X10151Y3301D01*
G01X10172Y3290D01*
G01X10191Y3278D01*
G01X10208Y3263D01*
G01X10224Y3246D01*
G01X10238Y3228D01*
G01X10250Y3208D01*
G01X10260Y3186D01*
G01X10268Y3162D01*
G01X10274Y3136D01*
G01X10277Y3109D01*
G01X10278Y3080D01*
G01X10278Y3059D01*
G01X10276Y3040D01*
G01X10272Y3020D01*
G01X10268Y3001D01*
G01X10254Y2963D01*
G01X10245Y2945D01*
G01X10235Y2927D01*
G01X10224Y2910D01*
G01X10212Y2893D01*
G01X10199Y2878D01*
G01X10169Y2848D01*
G01X10152Y2835D01*
G01X10134Y2823D01*
G01X10115Y2811D01*
G01X10096Y2801D01*
G01X10075Y2792D01*
G01X10053Y2784D01*
G01X10031Y2778D01*
G01X10008Y2773D01*
G01X9984Y2769D01*
G01X9958Y2766D01*
G01X9932Y2765D01*
G01X9907Y2766D01*
G01X9883Y2769D01*
G01X9860Y2773D01*
G01X9838Y2778D01*
G01X9817Y2786D01*
G01X9797Y2794D01*
G01X9778Y2804D01*
G01X9761Y2815D01*
G01X9745Y2828D01*
G01X9731Y2841D01*
G01X9717Y2856D01*
G01X9705Y2872D01*
G01X9694Y2889D01*
G01X9685Y2907D01*
G01X9677Y2925D01*
G01X9670Y2945D01*
G01X9665Y2965D01*
G01X9661Y2987D01*
G01X9659Y3009D01*
G01X9659Y3052D01*
G01X9661Y3072D01*
G01X9665Y3092D01*
G01X9670Y3110D01*
G01X9676Y3128D01*
G01X9683Y3145D01*
G01X9691Y3162D01*
G01X9700Y3178D01*
G01X9660Y3196D01*
G01X9649Y3176D01*
G01X9639Y3156D01*
G01X9631Y3136D01*
G01X9625Y3115D01*
G01X9620Y3094D01*
G01X9616Y3072D01*
G01X9614Y3050D01*
G01X9614Y3006D01*
G01X9616Y2984D01*
G01X9619Y2964D01*
G01X9623Y2944D01*
G01X9628Y2924D01*
G01X9634Y2905D01*
G01X9642Y2886D01*
G01X9650Y2869D01*
G01X9660Y2852D01*
G01X9682Y2820D01*
G01X9695Y2806D01*
G01X9709Y2792D01*
G01X9724Y2780D01*
G01X9740Y2768D01*
G01X9757Y2757D01*
G01X9775Y2748D01*
G01X9794Y2740D01*
G01X9815Y2732D01*
G01X9836Y2726D01*
G01X9858Y2722D01*
G01X9881Y2718D01*
G01X9905Y2716D01*
G01X9931Y2715D01*
G01X9956Y2716D01*
G01X9980Y2718D01*
G01X10004Y2721D01*
G01X10027Y2726D01*
G01X10049Y2731D01*
G01X10071Y2738D01*
G01X10092Y2746D01*
G01X10112Y2754D01*
G01X10131Y2764D01*
G01X10150Y2775D01*
G01X10168Y2786D01*
G01X10185Y2799D01*
G01X10201Y2812D01*
G01X10216Y2826D01*
G01X10230Y2841D01*
G01X10243Y2856D01*
G01X10256Y2873D01*
G01X10278Y2907D01*
G01X10296Y2943D01*
G01X10303Y2962D01*
G01X10309Y2982D01*
G01X10314Y3001D01*
G01X10318Y3021D01*
G01X10321Y3042D01*
G01X10323Y3063D01*
G01X10323Y3110D01*
G01X10320Y3135D01*
G01X10316Y3159D01*
G01X10310Y3182D01*
G01X10302Y3204D01*
G01X10293Y3225D01*
G01X10282Y3245D01*
G01X10271Y3263D01*
G01X10257Y3280D01*
G01X10242Y3296D01*
G01X10226Y3310D01*
G01X10209Y3323D01*
G01X10171Y3345D01*
G01X10150Y3353D01*
G01X10128Y3361D01*
G01X10105Y3366D01*
G01X10081Y3370D01*
G01X10056Y3373D01*
G37*

%LPC*%
G36*
G01X10065Y3108D02*
G01X10047Y3121D01*
G01X9902Y3096D01*
G01X9877Y3072D01*
G01X9860Y3050D01*
G01X9851Y3030D01*
G01X9847Y3009D01*
G01X9852Y2984D01*
G01X9867Y2963D01*
G01X9892Y2950D01*
G01X9931Y2944D01*
G01X9957Y2946D01*
G01X9984Y2953D01*
G01X10010Y2963D01*
G01X10033Y2976D01*
G01X10054Y2993D01*
G01X10070Y3013D01*
G01X10081Y3036D01*
G01X10085Y3061D01*
G01X10083Y3079D01*
G01X10076Y3094D01*
G01X10065Y3108D01*
G37*

%LPD*%
G36*
G01X9894Y2638D02*
G01X9865Y2642D01*
G01X9840Y2639D01*
G01X9817Y2632D01*
G01X9795Y2619D01*
G01X9777Y2602D01*
G01X9761Y2580D01*
G01X9750Y2554D01*
G01X9742Y2523D01*
G01X9739Y2488D01*
G01X9741Y2465D01*
G01X9744Y2442D01*
G01X9749Y2420D01*
G01X9756Y2399D01*
G01X9765Y2379D01*
G01X9775Y2360D01*
G01X9786Y2343D01*
G01X9798Y2326D01*
G01X9843Y2359D01*
G01X9821Y2388D01*
G01X9805Y2418D01*
G01X9794Y2452D01*
G01X9790Y2490D01*
G01X9796Y2529D01*
G01X9811Y2557D01*
G01X9834Y2574D01*
G01X9863Y2580D01*
G01X9879Y2577D01*
G01X9893Y2571D01*
G01X9905Y2561D01*
G01X9915Y2547D01*
G01X9925Y2532D01*
G01X9933Y2515D01*
G01X9940Y2497D01*
G01X9947Y2478D01*
G01X9956Y2455D01*
G01X9966Y2432D01*
G01X9977Y2411D01*
G01X9990Y2391D01*
G01X10006Y2375D01*
G01X10025Y2362D01*
G01X10046Y2353D01*
G01X10072Y2351D01*
G01X10096Y2353D01*
G01X10119Y2360D01*
G01X10140Y2372D01*
G01X10157Y2389D01*
G01X10172Y2410D01*
G01X10183Y2435D01*
G01X10190Y2464D01*
G01X10193Y2498D01*
G01X10189Y2535D01*
G01X10179Y2570D01*
G01X10163Y2601D01*
G01X10144Y2628D01*
G01X10102Y2596D01*
G01X10117Y2574D01*
G01X10129Y2551D01*
G01X10138Y2525D01*
G01X10140Y2498D01*
G01X10135Y2460D01*
G01X10121Y2434D01*
G01X10101Y2419D01*
G01X10076Y2413D01*
G01X10047Y2421D01*
G01X10027Y2442D01*
G01X10011Y2472D01*
G01X9997Y2507D01*
G01X9988Y2532D01*
G01X9978Y2555D01*
G01X9966Y2578D01*
G01X9953Y2598D01*
G01X9937Y2616D01*
G01X9917Y2630D01*
G01X9894Y2638D01*
G37*

%LPD*%
G36*
G01X9990Y2267D02*
G01X9969Y2267D01*
G01X9960Y2265D01*
G01X9952Y2263D01*
G01X9952Y1969D01*
G01X9928Y1971D01*
G01X9906Y1975D01*
G01X9886Y1981D01*
G01X9867Y1990D01*
G01X9851Y2000D01*
G01X9835Y2012D01*
G01X9822Y2026D01*
G01X9812Y2041D01*
G01X9803Y2058D01*
G01X9797Y2076D01*
G01X9793Y2096D01*
G01X9792Y2117D01*
G01X9794Y2147D01*
G01X9801Y2176D01*
G01X9812Y2202D01*
G01X9827Y2226D01*
G01X9784Y2251D01*
G01X9775Y2236D01*
G01X9767Y2221D01*
G01X9759Y2205D01*
G01X9752Y2188D01*
G01X9747Y2170D01*
G01X9743Y2151D01*
G01X9740Y2130D01*
G01X9739Y2109D01*
G01X9740Y2088D01*
G01X9743Y2067D01*
G01X9748Y2048D01*
G01X9755Y2029D01*
G01X9763Y2011D01*
G01X9773Y1994D01*
G01X9785Y1978D01*
G01X9799Y1964D01*
G01X9815Y1950D01*
G01X9831Y1938D01*
G01X9850Y1928D01*
G01X9870Y1920D01*
G01X9892Y1913D01*
G01X9915Y1908D01*
G01X9939Y1905D01*
G01X9965Y1903D01*
G01X9991Y1905D01*
G01X10015Y1908D01*
G01X10039Y1913D01*
G01X10060Y1920D01*
G01X10080Y1928D01*
G01X10099Y1938D01*
G01X10116Y1950D01*
G01X10131Y1963D01*
G01X10145Y1977D01*
G01X10157Y1992D01*
G01X10168Y2008D01*
G01X10177Y2025D01*
G01X10184Y2042D01*
G01X10189Y2060D01*
G01X10192Y2078D01*
G01X10193Y2096D01*
G01X10191Y2123D01*
G01X10186Y2147D01*
G01X10178Y2169D01*
G01X10168Y2189D01*
G01X10155Y2207D01*
G01X10138Y2223D01*
G01X10120Y2236D01*
G01X10098Y2247D01*
G01X10075Y2256D01*
G01X10049Y2262D01*
G01X10021Y2266D01*
G01X9990Y2267D01*
G37*

%LPC*%
G36*
G01X10032Y2207D02*
G01X10000Y2209D01*
G01X10000Y1967D01*
G01X10031Y1973D01*
G01X10059Y1983D01*
G01X10082Y1996D01*
G01X10102Y2012D01*
G01X10118Y2031D01*
G01X10130Y2051D01*
G01X10137Y2074D01*
G01X10139Y2098D01*
G01X10137Y2123D01*
G01X10131Y2144D01*
G01X10119Y2164D01*
G01X10104Y2180D01*
G01X10084Y2192D01*
G01X10060Y2202D01*
G01X10032Y2207D01*
G37*

%LPD*%
G36*
G01X10181Y1786D02*
G01X9750Y1786D01*
G01X9750Y1732D01*
G01X9818Y1728D01*
G01X9818Y1725D01*
G01X9786Y1693D01*
G01X9773Y1677D01*
G01X9761Y1660D01*
G01X9752Y1642D01*
G01X9745Y1623D01*
G01X9741Y1602D01*
G01X9739Y1580D01*
G01X9741Y1559D01*
G01X9744Y1540D01*
G01X9750Y1522D01*
G01X9758Y1507D01*
G01X9769Y1493D01*
G01X9782Y1481D01*
G01X9797Y1471D01*
G01X9815Y1463D01*
G01X9835Y1457D01*
G01X9856Y1453D01*
G01X9881Y1450D01*
G01X10181Y1450D01*
G01X10181Y1515D01*
G01X9915Y1515D01*
G01X9886Y1516D01*
G01X9862Y1519D01*
G01X9841Y1526D01*
G01X9824Y1534D01*
G01X9811Y1546D01*
G01X9802Y1561D01*
G01X9797Y1579D01*
G01X9796Y1600D01*
G01X9797Y1616D01*
G01X9800Y1632D01*
G01X9806Y1647D01*
G01X9814Y1662D01*
G01X9825Y1676D01*
G01X9838Y1691D01*
G01X9853Y1706D01*
G01X9872Y1721D01*
G01X10181Y1721D01*
G01X10181Y1786D01*
G37*

%LPD*%
G36*
G01X10188Y1372D02*
G01X10184Y1382D01*
G01X10127Y1369D01*
G01X10130Y1359D01*
G01X10132Y1350D01*
G01X10133Y1340D01*
G01X10134Y1328D01*
G01X10132Y1314D01*
G01X10128Y1300D01*
G01X10121Y1285D01*
G01X10111Y1270D01*
G01X10097Y1256D01*
G01X10079Y1242D01*
G01X10057Y1229D01*
G01X10031Y1217D01*
G01X9750Y1217D01*
G01X9750Y1153D01*
G01X10181Y1153D01*
G01X10181Y1205D01*
G01X10102Y1211D01*
G01X10102Y1215D01*
G01X10122Y1226D01*
G01X10139Y1239D01*
G01X10155Y1253D01*
G01X10168Y1268D01*
G01X10178Y1284D01*
G01X10186Y1301D01*
G01X10191Y1318D01*
G01X10193Y1336D01*
G01X10192Y1350D01*
G01X10191Y1361D01*
G01X10188Y1372D01*
G37*

%LPD*%
G36*
G01X10181Y1001D02*
G01X9750Y1001D01*
G01X9750Y948D01*
G01X9818Y942D01*
G01X9818Y940D01*
G01X9802Y924D01*
G01X9786Y909D01*
G01X9773Y892D01*
G01X9761Y875D01*
G01X9752Y857D01*
G01X9745Y838D01*
G01X9741Y817D01*
G01X9739Y796D01*
G01X9741Y774D01*
G01X9744Y755D01*
G01X9750Y737D01*
G01X9758Y721D01*
G01X9769Y708D01*
G01X9782Y696D01*
G01X9797Y686D01*
G01X9815Y678D01*
G01X9835Y672D01*
G01X9856Y668D01*
G01X9881Y665D01*
G01X10181Y665D01*
G01X10181Y730D01*
G01X9915Y730D01*
G01X9886Y731D01*
G01X9862Y734D01*
G01X9841Y741D01*
G01X9824Y750D01*
G01X9811Y761D01*
G01X9802Y776D01*
G01X9797Y794D01*
G01X9796Y815D01*
G01X9797Y832D01*
G01X9800Y847D01*
G01X9806Y862D01*
G01X9814Y877D01*
G01X9825Y891D01*
G01X9838Y906D01*
G01X9853Y921D01*
G01X9872Y936D01*
G01X10181Y936D01*
G01X10181Y1001D01*
G37*

%LPD*%
G36*
G01X9721Y582D02*
G01X9697Y584D01*
G01X9677Y583D01*
G01X9659Y578D01*
G01X9640Y569D01*
G01X9623Y558D01*
G01X9608Y544D01*
G01X9593Y526D01*
G01X9581Y506D01*
G01X9569Y484D01*
G01X9561Y458D01*
G01X9554Y431D01*
G01X9550Y401D01*
G01X9548Y369D01*
G01X9549Y344D01*
G01X9552Y319D01*
G01X9556Y297D01*
G01X9562Y276D01*
G01X9570Y257D01*
G01X9579Y241D01*
G01X9590Y226D01*
G01X9602Y214D01*
G01X9616Y205D01*
G01X9631Y197D01*
G01X9648Y193D01*
G01X9665Y192D01*
G01X9693Y196D01*
G01X9719Y209D01*
G01X9743Y229D01*
G01X9764Y255D01*
G01X9768Y255D01*
G01X9780Y240D01*
G01X9796Y227D01*
G01X9815Y219D01*
G01X9839Y215D01*
G01X9865Y220D01*
G01X9887Y232D01*
G01X9905Y247D01*
G01X9919Y263D01*
G01X9922Y263D01*
G01X9943Y243D01*
G01X9970Y225D01*
G01X10002Y212D01*
G01X10039Y207D01*
G01X10062Y209D01*
G01X10083Y213D01*
G01X10102Y220D01*
G01X10120Y230D01*
G01X10136Y241D01*
G01X10151Y255D01*
G01X10163Y270D01*
G01X10173Y287D01*
G01X10181Y306D01*
G01X10188Y326D01*
G01X10191Y346D01*
G01X10193Y367D01*
G01X10192Y385D01*
G01X10189Y401D01*
G01X10186Y415D01*
G01X10181Y428D01*
G01X10181Y578D01*
G01X10131Y578D01*
G01X10131Y486D01*
G01X10114Y501D01*
G01X10091Y513D01*
G01X10066Y521D01*
G01X10038Y523D01*
G01X10015Y522D01*
G01X9994Y518D01*
G01X9975Y511D01*
G01X9957Y503D01*
G01X9942Y492D01*
G01X9927Y478D01*
G01X9915Y464D01*
G01X9905Y447D01*
G01X9897Y429D01*
G01X9891Y410D01*
G01X9888Y389D01*
G01X9886Y367D01*
G01X9888Y351D01*
G01X9890Y334D01*
G01X9895Y317D01*
G01X9902Y301D01*
G01X9892Y290D01*
G01X9880Y281D01*
G01X9865Y275D01*
G01X9847Y273D01*
G01X9828Y276D01*
G01X9813Y289D01*
G01X9803Y313D01*
G01X9800Y350D01*
G01X9800Y436D01*
G01X9798Y471D01*
G01X9793Y501D01*
G01X9786Y526D01*
G01X9775Y548D01*
G01X9760Y564D01*
G01X9743Y575D01*
G01X9721Y582D01*
G37*

%LPC*%
G36*
G01X9714Y515D02*
G01X9688Y521D01*
G01X9670Y518D01*
G01X9653Y511D01*
G01X9638Y498D01*
G01X9623Y482D01*
G01X9611Y461D01*
G01X9602Y437D01*
G01X9597Y409D01*
G01X9594Y378D01*
G01X9596Y350D01*
G01X9600Y324D01*
G01X9607Y302D01*
G01X9616Y283D01*
G01X9627Y268D01*
G01X9641Y257D01*
G01X9656Y251D01*
G01X9673Y248D01*
G01X9693Y251D01*
G01X9713Y260D01*
G01X9733Y275D01*
G01X9752Y296D01*
G01X9748Y311D01*
G01X9746Y326D01*
G01X9744Y340D01*
G01X9743Y351D01*
G01X9743Y430D01*
G01X9741Y469D01*
G01X9731Y498D01*
G01X9714Y515D01*
G37*
G36*
G01X10062Y463D02*
G01X10039Y465D01*
G01X10016Y463D01*
G01X9995Y457D01*
G01X9976Y448D01*
G01X9961Y436D01*
G01X9948Y421D01*
G01X9939Y405D01*
G01X9934Y386D01*
G01X9931Y367D01*
G01X9934Y348D01*
G01X9939Y330D01*
G01X9948Y314D01*
G01X9961Y300D01*
G01X9976Y288D01*
G01X9995Y279D01*
G01X10016Y273D01*
G01X10039Y271D01*
G01X10063Y273D01*
G01X10083Y279D01*
G01X10101Y288D01*
G01X10116Y300D01*
G01X10128Y314D01*
G01X10136Y330D01*
G01X10142Y348D01*
G01X10143Y367D01*
G01X10142Y387D01*
G01X10136Y405D01*
G01X10127Y421D01*
G01X10115Y436D01*
G01X10101Y448D01*
G01X10083Y457D01*
G01X10062Y463D01*
G37*

%LPD*%

%LPD*%
G36*
G01X851Y8856D02*
G01X834Y8857D01*
G01X806Y8853D01*
G01X780Y8840D01*
G01X756Y8820D01*
G01X734Y8794D01*
G01X732Y8794D01*
G01X719Y8809D01*
G01X703Y8822D01*
G01X684Y8830D01*
G01X659Y8834D01*
G01X634Y8829D01*
G01X612Y8817D01*
G01X594Y8802D01*
G01X580Y8786D01*
G01X576Y8786D01*
G01X556Y8806D01*
G01X529Y8824D01*
G01X497Y8837D01*
G01X459Y8842D01*
G01X437Y8840D01*
G01X416Y8836D01*
G01X397Y8829D01*
G01X379Y8819D01*
G01X363Y8808D01*
G01X348Y8794D01*
G01X336Y8779D01*
G01X326Y8762D01*
G01X317Y8743D01*
G01X311Y8723D01*
G01X308Y8703D01*
G01X307Y8682D01*
G01X307Y8664D01*
G01X310Y8648D01*
G01X313Y8634D01*
G01X317Y8621D01*
G01X317Y8471D01*
G01X367Y8471D01*
G01X367Y8563D01*
G01X386Y8548D01*
G01X408Y8536D01*
G01X433Y8528D01*
G01X461Y8526D01*
G01X484Y8527D01*
G01X505Y8531D01*
G01X524Y8538D01*
G01X542Y8546D01*
G01X557Y8557D01*
G01X571Y8571D01*
G01X584Y8585D01*
G01X594Y8602D01*
G01X602Y8620D01*
G01X608Y8639D01*
G01X611Y8660D01*
G01X613Y8682D01*
G01X611Y8698D01*
G01X609Y8715D01*
G01X604Y8732D01*
G01X596Y8748D01*
G01X607Y8759D01*
G01X619Y8768D01*
G01X634Y8774D01*
G01X651Y8776D01*
G01X671Y8773D01*
G01X686Y8760D01*
G01X696Y8736D01*
G01X700Y8700D01*
G01X700Y8613D01*
G01X701Y8578D01*
G01X706Y8548D01*
G01X713Y8523D01*
G01X724Y8501D01*
G01X739Y8485D01*
G01X757Y8474D01*
G01X778Y8467D01*
G01X803Y8465D01*
G01X822Y8466D01*
G01X840Y8471D01*
G01X859Y8480D01*
G01X876Y8491D01*
G01X891Y8505D01*
G01X906Y8523D01*
G01X919Y8543D01*
G01X930Y8565D01*
G01X938Y8591D01*
G01X945Y8618D01*
G01X949Y8648D01*
G01X951Y8680D01*
G01X950Y8705D01*
G01X947Y8730D01*
G01X943Y8752D01*
G01X937Y8773D01*
G01X929Y8792D01*
G01X920Y8808D01*
G01X909Y8823D01*
G01X897Y8835D01*
G01X883Y8844D01*
G01X868Y8852D01*
G01X851Y8856D01*
G37*

%LPC*%
G36*
G01X843Y8798D02*
G01X826Y8801D01*
G01X806Y8798D01*
G01X786Y8789D01*
G01X766Y8774D01*
G01X748Y8753D01*
G01X751Y8738D01*
G01X753Y8723D01*
G01X755Y8709D01*
G01X755Y8619D01*
G01X758Y8580D01*
G01X768Y8551D01*
G01X785Y8534D01*
G01X811Y8528D01*
G01X829Y8531D01*
G01X846Y8538D01*
G01X861Y8551D01*
G01X876Y8567D01*
G01X888Y8588D01*
G01X896Y8612D01*
G01X903Y8640D01*
G01X905Y8671D01*
G01X903Y8699D01*
G01X899Y8725D01*
G01X892Y8747D01*
G01X883Y8766D01*
G01X871Y8781D01*
G01X858Y8792D01*
G01X843Y8798D01*
G37*
G36*
G01X483Y8776D02*
G01X459Y8778D01*
G01X436Y8776D01*
G01X416Y8770D01*
G01X398Y8761D01*
G01X383Y8749D01*
G01X371Y8735D01*
G01X363Y8719D01*
G01X357Y8701D01*
G01X355Y8682D01*
G01X357Y8662D01*
G01X363Y8644D01*
G01X371Y8628D01*
G01X384Y8613D01*
G01X398Y8601D01*
G01X416Y8592D01*
G01X437Y8586D01*
G01X459Y8584D01*
G01X483Y8586D01*
G01X504Y8592D01*
G01X523Y8601D01*
G01X538Y8613D01*
G01X551Y8628D01*
G01X560Y8644D01*
G01X565Y8663D01*
G01X567Y8682D01*
G01X565Y8701D01*
G01X560Y8719D01*
G01X551Y8735D01*
G01X538Y8749D01*
G01X523Y8761D01*
G01X504Y8770D01*
G01X483Y8776D01*
G37*

%LPD*%
G36*
G01X618Y8384D02*
G01X317Y8384D01*
G01X317Y8319D01*
G01X584Y8319D01*
G01X613Y8318D01*
G01X637Y8315D01*
G01X658Y8308D01*
G01X675Y8299D01*
G01X688Y8288D01*
G01X696Y8273D01*
G01X702Y8255D01*
G01X703Y8234D01*
G01X702Y8217D01*
G01X699Y8202D01*
G01X693Y8187D01*
G01X685Y8172D01*
G01X674Y8158D01*
G01X661Y8143D01*
G01X646Y8128D01*
G01X628Y8113D01*
G01X317Y8113D01*
G01X317Y8048D01*
G01X750Y8048D01*
G01X750Y8101D01*
G01X680Y8107D01*
G01X680Y8109D01*
G01X697Y8125D01*
G01X713Y8140D01*
G01X726Y8157D01*
G01X738Y8174D01*
G01X747Y8192D01*
G01X754Y8211D01*
G01X758Y8232D01*
G01X759Y8253D01*
G01X758Y8275D01*
G01X755Y8294D01*
G01X749Y8312D01*
G01X741Y8328D01*
G01X730Y8341D01*
G01X717Y8353D01*
G01X702Y8363D01*
G01X684Y8371D01*
G01X665Y8377D01*
G01X642Y8381D01*
G01X618Y8384D01*
G37*

%LPD*%
G36*
G01X750Y7896D02*
G01X317Y7896D01*
G01X317Y7844D01*
G01X396Y7838D01*
G01X396Y7834D01*
G01X377Y7823D01*
G01X360Y7810D01*
G01X344Y7796D01*
G01X331Y7781D01*
G01X321Y7765D01*
G01X313Y7748D01*
G01X308Y7731D01*
G01X307Y7713D01*
G01X307Y7700D01*
G01X308Y7688D01*
G01X311Y7677D01*
G01X315Y7667D01*
G01X373Y7680D01*
G01X369Y7690D01*
G01X367Y7699D01*
G01X366Y7709D01*
G01X365Y7721D01*
G01X367Y7735D01*
G01X371Y7749D01*
G01X378Y7764D01*
G01X388Y7779D01*
G01X402Y7793D01*
G01X420Y7807D01*
G01X442Y7820D01*
G01X467Y7832D01*
G01X750Y7832D01*
G01X750Y7896D01*
G37*

%LPD*%
G36*
G01X592Y7600D02*
G01X317Y7600D01*
G01X317Y7534D01*
G01X584Y7534D01*
G01X613Y7533D01*
G01X637Y7530D01*
G01X658Y7523D01*
G01X675Y7515D01*
G01X688Y7503D01*
G01X696Y7488D01*
G01X702Y7470D01*
G01X703Y7450D01*
G01X702Y7433D01*
G01X699Y7417D01*
G01X693Y7402D01*
G01X685Y7387D01*
G01X674Y7373D01*
G01X661Y7358D01*
G01X646Y7343D01*
G01X628Y7328D01*
G01X317Y7328D01*
G01X317Y7263D01*
G01X750Y7263D01*
G01X750Y7317D01*
G01X680Y7321D01*
G01X680Y7325D01*
G01X697Y7340D01*
G01X713Y7356D01*
G01X726Y7372D01*
G01X738Y7389D01*
G01X747Y7407D01*
G01X754Y7426D01*
G01X758Y7447D01*
G01X759Y7469D01*
G01X758Y7490D01*
G01X755Y7509D01*
G01X749Y7527D01*
G01X741Y7542D01*
G01X730Y7556D01*
G01X717Y7568D01*
G01X702Y7578D01*
G01X684Y7586D01*
G01X665Y7592D01*
G01X642Y7596D01*
G01X618Y7599D01*
G01X592Y7600D01*
G37*

%LPD*%
G36*
G01X559Y7144D02*
G01X534Y7146D01*
G01X508Y7144D01*
G01X484Y7141D01*
G01X461Y7136D01*
G01X439Y7129D01*
G01X419Y7121D01*
G01X400Y7111D01*
G01X383Y7099D01*
G01X367Y7086D01*
G01X354Y7072D01*
G01X342Y7057D01*
G01X331Y7041D01*
G01X322Y7025D01*
G01X315Y7007D01*
G01X307Y6971D01*
G01X307Y6953D01*
G01X308Y6926D01*
G01X313Y6902D01*
G01X321Y6880D01*
G01X331Y6860D01*
G01X344Y6842D01*
G01X361Y6826D01*
G01X379Y6813D01*
G01X401Y6802D01*
G01X424Y6793D01*
G01X450Y6787D01*
G01X478Y6783D01*
G01X509Y6782D01*
G01X530Y6782D01*
G01X548Y6786D01*
G01X548Y7080D01*
G01X571Y7078D01*
G01X593Y7074D01*
G01X613Y7068D01*
G01X632Y7059D01*
G01X648Y7049D01*
G01X663Y7037D01*
G01X676Y7023D01*
G01X687Y7008D01*
G01X696Y6991D01*
G01X702Y6973D01*
G01X706Y6953D01*
G01X707Y6932D01*
G01X705Y6902D01*
G01X698Y6873D01*
G01X687Y6847D01*
G01X673Y6823D01*
G01X715Y6798D01*
G01X724Y6813D01*
G01X732Y6828D01*
G01X740Y6844D01*
G01X746Y6861D01*
G01X752Y6879D01*
G01X756Y6898D01*
G01X759Y6919D01*
G01X759Y6961D01*
G01X756Y6982D01*
G01X751Y7001D01*
G01X744Y7020D01*
G01X736Y7038D01*
G01X726Y7055D01*
G01X713Y7071D01*
G01X700Y7085D01*
G01X684Y7099D01*
G01X667Y7111D01*
G01X649Y7121D01*
G01X629Y7129D01*
G01X607Y7136D01*
G01X584Y7141D01*
G01X559Y7144D01*
G37*

%LPC*%
G36*
G01X500Y6840D02*
G01X500Y7082D01*
G01X468Y7076D01*
G01X440Y7066D01*
G01X417Y7053D01*
G01X396Y7037D01*
G01X380Y7018D01*
G01X369Y6998D01*
G01X362Y6975D01*
G01X359Y6951D01*
G01X362Y6926D01*
G01X369Y6905D01*
G01X380Y6885D01*
G01X395Y6869D01*
G01X415Y6857D01*
G01X439Y6847D01*
G01X467Y6842D01*
G01X500Y6840D01*
G37*

%LPD*%
G36*
G01X713Y6706D02*
G01X701Y6723D01*
G01X657Y6690D01*
G01X678Y6661D01*
G01X694Y6631D01*
G01X705Y6597D01*
G01X709Y6559D01*
G01X703Y6520D01*
G01X688Y6492D01*
G01X665Y6475D01*
G01X636Y6469D01*
G01X620Y6472D01*
G01X606Y6478D01*
G01X594Y6488D01*
G01X584Y6502D01*
G01X574Y6517D01*
G01X566Y6534D01*
G01X559Y6552D01*
G01X551Y6571D01*
G01X543Y6594D01*
G01X533Y6617D01*
G01X522Y6638D01*
G01X509Y6658D01*
G01X493Y6674D01*
G01X475Y6687D01*
G01X453Y6696D01*
G01X428Y6698D01*
G01X403Y6696D01*
G01X380Y6689D01*
G01X359Y6677D01*
G01X342Y6660D01*
G01X327Y6639D01*
G01X316Y6614D01*
G01X309Y6585D01*
G01X307Y6551D01*
G01X310Y6514D01*
G01X320Y6479D01*
G01X336Y6448D01*
G01X355Y6421D01*
G01X396Y6453D01*
G01X382Y6475D01*
G01X370Y6498D01*
G01X361Y6524D01*
G01X359Y6551D01*
G01X364Y6589D01*
G01X378Y6615D01*
G01X398Y6630D01*
G01X423Y6636D01*
G01X452Y6628D01*
G01X472Y6607D01*
G01X488Y6577D01*
G01X501Y6542D01*
G01X511Y6517D01*
G01X521Y6494D01*
G01X533Y6471D01*
G01X546Y6451D01*
G01X562Y6433D01*
G01X582Y6419D01*
G01X605Y6411D01*
G01X634Y6407D01*
G01X659Y6410D01*
G01X682Y6417D01*
G01X704Y6430D01*
G01X722Y6447D01*
G01X738Y6469D01*
G01X750Y6495D01*
G01X757Y6526D01*
G01X759Y6561D01*
G01X758Y6584D01*
G01X755Y6607D01*
G01X750Y6629D01*
G01X743Y6650D01*
G01X734Y6670D01*
G01X724Y6689D01*
G01X713Y6706D01*
G37*

%LPD*%
G36*
G01X594Y6333D02*
G01X569Y6334D01*
G01X544Y6333D01*
G01X519Y6331D01*
G01X495Y6328D01*
G01X472Y6323D01*
G01X450Y6318D01*
G01X428Y6311D01*
G01X407Y6303D01*
G01X387Y6295D01*
G01X367Y6285D01*
G01X349Y6275D01*
G01X331Y6263D01*
G01X314Y6250D01*
G01X298Y6237D01*
G01X283Y6223D01*
G01X255Y6193D01*
G01X243Y6176D01*
G01X221Y6142D01*
G01X203Y6106D01*
G01X196Y6087D01*
G01X190Y6067D01*
G01X185Y6048D01*
G01X181Y6028D01*
G01X178Y6007D01*
G01X176Y5986D01*
G01X176Y5939D01*
G01X179Y5914D01*
G01X183Y5890D01*
G01X189Y5867D01*
G01X197Y5845D01*
G01X206Y5824D01*
G01X217Y5804D01*
G01X228Y5786D01*
G01X242Y5769D01*
G01X257Y5753D01*
G01X273Y5739D01*
G01X290Y5726D01*
G01X328Y5704D01*
G01X349Y5696D01*
G01X371Y5688D01*
G01X394Y5683D01*
G01X418Y5679D01*
G01X443Y5676D01*
G01X497Y5676D01*
G01X523Y5680D01*
G01X548Y5685D01*
G01X571Y5692D01*
G01X592Y5700D01*
G01X611Y5710D01*
G01X628Y5721D01*
G01X644Y5733D01*
G01X658Y5746D01*
G01X670Y5760D01*
G01X680Y5774D01*
G01X688Y5789D01*
G01X695Y5804D01*
G01X700Y5819D01*
G01X703Y5834D01*
G01X703Y5850D01*
G01X700Y5884D01*
G01X687Y5912D01*
G01X666Y5932D01*
G01X636Y5942D01*
G01X661Y5967D01*
G01X680Y5993D01*
G01X694Y6022D01*
G01X698Y6051D01*
G01X696Y6073D01*
G01X690Y6093D01*
G01X680Y6111D01*
G01X666Y6127D01*
G01X648Y6140D01*
G01X626Y6149D01*
G01X601Y6155D01*
G01X573Y6157D01*
G01X549Y6156D01*
G01X525Y6152D01*
G01X501Y6146D01*
G01X478Y6136D01*
G01X456Y6125D01*
G01X435Y6111D01*
G01X416Y6096D01*
G01X400Y6078D01*
G01X386Y6057D01*
G01X376Y6036D01*
G01X370Y6012D01*
G01X367Y5986D01*
G01X370Y5965D01*
G01X378Y5946D01*
G01X392Y5929D01*
G01X411Y5915D01*
G01X411Y5913D01*
G01X376Y5905D01*
G01X376Y5859D01*
G01X576Y5899D01*
G01X598Y5901D01*
G01X617Y5900D01*
G01X632Y5895D01*
G01X644Y5887D01*
G01X652Y5876D01*
G01X657Y5862D01*
G01X659Y5844D01*
G01X657Y5830D01*
G01X653Y5816D01*
G01X646Y5802D01*
G01X636Y5788D01*
G01X624Y5775D01*
G01X609Y5763D01*
G01X592Y5751D01*
G01X573Y5742D01*
G01X551Y5734D01*
G01X526Y5728D01*
G01X500Y5724D01*
G01X471Y5723D01*
G01X444Y5723D01*
G01X419Y5726D01*
G01X394Y5732D01*
G01X370Y5738D01*
G01X348Y5748D01*
G01X328Y5759D01*
G01X308Y5771D01*
G01X291Y5786D01*
G01X275Y5803D01*
G01X261Y5821D01*
G01X249Y5841D01*
G01X239Y5863D01*
G01X231Y5887D01*
G01X225Y5913D01*
G01X222Y5940D01*
G01X221Y5969D01*
G01X221Y5990D01*
G01X223Y6009D01*
G01X227Y6029D01*
G01X232Y6048D01*
G01X238Y6067D01*
G01X245Y6086D01*
G01X263Y6122D01*
G01X287Y6156D01*
G01X300Y6171D01*
G01X330Y6201D01*
G01X347Y6214D01*
G01X365Y6226D01*
G01X384Y6238D01*
G01X403Y6248D01*
G01X424Y6257D01*
G01X446Y6265D01*
G01X468Y6271D01*
G01X491Y6276D01*
G01X515Y6280D01*
G01X541Y6283D01*
G01X567Y6284D01*
G01X592Y6283D01*
G01X616Y6280D01*
G01X639Y6276D01*
G01X661Y6271D01*
G01X682Y6263D01*
G01X702Y6255D01*
G01X721Y6245D01*
G01X738Y6234D01*
G01X754Y6221D01*
G01X768Y6208D01*
G01X782Y6193D01*
G01X794Y6177D01*
G01X805Y6160D01*
G01X814Y6142D01*
G01X822Y6124D01*
G01X829Y6104D01*
G01X834Y6084D01*
G01X838Y6062D01*
G01X840Y6040D01*
G01X840Y5997D01*
G01X838Y5977D01*
G01X834Y5957D01*
G01X829Y5939D01*
G01X823Y5921D01*
G01X816Y5904D01*
G01X808Y5887D01*
G01X800Y5871D01*
G01X840Y5853D01*
G01X860Y5893D01*
G01X868Y5913D01*
G01X874Y5934D01*
G01X879Y5955D01*
G01X883Y5977D01*
G01X885Y5999D01*
G01X886Y6021D01*
G01X885Y6043D01*
G01X883Y6065D01*
G01X880Y6085D01*
G01X876Y6105D01*
G01X871Y6125D01*
G01X865Y6144D01*
G01X857Y6163D01*
G01X849Y6180D01*
G01X839Y6197D01*
G01X817Y6229D01*
G01X804Y6243D01*
G01X790Y6257D01*
G01X775Y6269D01*
G01X759Y6281D01*
G01X742Y6292D01*
G01X724Y6301D01*
G01X705Y6309D01*
G01X684Y6317D01*
G01X663Y6323D01*
G01X641Y6327D01*
G01X618Y6331D01*
G01X594Y6333D01*
G37*

%LPC*%
G36*
G01X607Y6100D02*
G01X569Y6105D01*
G01X542Y6103D01*
G01X515Y6096D01*
G01X490Y6086D01*
G01X466Y6073D01*
G01X445Y6056D01*
G01X429Y6036D01*
G01X418Y6013D01*
G01X415Y5988D01*
G01X416Y5970D01*
G01X423Y5955D01*
G01X434Y5941D01*
G01X453Y5928D01*
G01X598Y5953D01*
G01X622Y5977D01*
G01X639Y5999D01*
G01X648Y6019D01*
G01X651Y6040D01*
G01X647Y6065D01*
G01X632Y6086D01*
G01X607Y6100D01*
G37*

%LPD*%
G36*
G01X276Y5559D02*
G01X240Y5598D01*
G01X221Y5580D01*
G01X204Y5561D01*
G01X190Y5542D01*
G01X177Y5522D01*
G01X167Y5501D01*
G01X160Y5478D01*
G01X155Y5454D01*
G01X153Y5428D01*
G01X155Y5402D01*
G01X159Y5379D01*
G01X165Y5357D01*
G01X175Y5338D01*
G01X186Y5320D01*
G01X200Y5305D01*
G01X216Y5291D01*
G01X234Y5280D01*
G01X254Y5271D01*
G01X276Y5265D01*
G01X299Y5261D01*
G01X325Y5259D01*
G01X342Y5260D01*
G01X360Y5262D01*
G01X396Y5270D01*
G01X414Y5276D01*
G01X432Y5284D01*
G01X451Y5292D01*
G01X469Y5301D01*
G01X487Y5312D01*
G01X505Y5324D01*
G01X524Y5337D01*
G01X562Y5365D01*
G01X581Y5382D01*
G01X600Y5398D01*
G01X619Y5416D01*
G01X659Y5454D01*
G01X678Y5475D01*
G01X698Y5496D01*
G01X696Y5472D01*
G01X695Y5447D01*
G01X694Y5423D01*
G01X694Y5232D01*
G01X750Y5232D01*
G01X750Y5594D01*
G01X711Y5594D01*
G01X686Y5566D01*
G01X663Y5540D01*
G01X640Y5516D01*
G01X618Y5494D01*
G01X596Y5473D01*
G01X575Y5453D01*
G01X555Y5434D01*
G01X534Y5418D01*
G01X515Y5402D01*
G01X496Y5388D01*
G01X477Y5376D01*
G01X459Y5365D01*
G01X441Y5355D01*
G01X424Y5346D01*
G01X407Y5339D01*
G01X390Y5334D01*
G01X374Y5329D01*
G01X358Y5326D01*
G01X343Y5324D01*
G01X328Y5323D01*
G01X303Y5325D01*
G01X280Y5330D01*
G01X259Y5338D01*
G01X241Y5351D01*
G01X226Y5366D01*
G01X216Y5385D01*
G01X209Y5408D01*
G01X207Y5434D01*
G01X208Y5453D01*
G01X212Y5470D01*
G01X218Y5487D01*
G01X226Y5503D01*
G01X236Y5518D01*
G01X248Y5532D01*
G01X261Y5546D01*
G01X276Y5559D01*
G37*

%LPD*%
G36*
G01X492Y5150D02*
G01X455Y5151D01*
G01X418Y5150D01*
G01X383Y5147D01*
G01X351Y5144D01*
G01X322Y5138D01*
G01X295Y5131D01*
G01X270Y5123D01*
G01X248Y5113D01*
G01X228Y5102D01*
G01X210Y5090D01*
G01X195Y5076D01*
G01X182Y5061D01*
G01X172Y5046D01*
G01X164Y5028D01*
G01X158Y5010D01*
G01X155Y4991D01*
G01X153Y4971D01*
G01X155Y4951D01*
G01X158Y4932D01*
G01X164Y4913D01*
G01X172Y4897D01*
G01X182Y4881D01*
G01X195Y4866D01*
G01X210Y4853D01*
G01X228Y4841D01*
G01X248Y4830D01*
G01X270Y4820D01*
G01X295Y4812D01*
G01X322Y4805D01*
G01X351Y4800D01*
G01X383Y4796D01*
G01X418Y4793D01*
G01X455Y4792D01*
G01X492Y4793D01*
G01X526Y4796D01*
G01X559Y4800D01*
G01X589Y4805D01*
G01X616Y4812D01*
G01X641Y4820D01*
G01X664Y4830D01*
G01X684Y4841D01*
G01X702Y4853D01*
G01X717Y4866D01*
G01X730Y4881D01*
G01X741Y4897D01*
G01X749Y4913D01*
G01X755Y4932D01*
G01X758Y4951D01*
G01X759Y4971D01*
G01X758Y4991D01*
G01X755Y5010D01*
G01X749Y5028D01*
G01X741Y5046D01*
G01X730Y5061D01*
G01X717Y5076D01*
G01X702Y5090D01*
G01X684Y5102D01*
G01X664Y5113D01*
G01X641Y5123D01*
G01X616Y5131D01*
G01X589Y5138D01*
G01X559Y5144D01*
G01X526Y5147D01*
G01X492Y5150D01*
G37*

%LPC*%
G36*
G01X496Y5086D02*
G01X455Y5088D01*
G01X414Y5086D01*
G01X377Y5084D01*
G01X344Y5079D01*
G01X314Y5073D01*
G01X288Y5065D01*
G01X266Y5055D01*
G01X248Y5044D01*
G01X233Y5032D01*
G01X221Y5018D01*
G01X213Y5003D01*
G01X208Y4988D01*
G01X207Y4971D01*
G01X208Y4954D01*
G01X213Y4938D01*
G01X221Y4923D01*
G01X233Y4910D01*
G01X248Y4898D01*
G01X266Y4887D01*
G01X288Y4878D01*
G01X314Y4870D01*
G01X344Y4864D01*
G01X377Y4859D01*
G01X414Y4857D01*
G01X455Y4855D01*
G01X496Y4857D01*
G01X534Y4859D01*
G01X567Y4864D01*
G01X598Y4870D01*
G01X624Y4878D01*
G01X646Y4887D01*
G01X665Y4898D01*
G01X680Y4910D01*
G01X692Y4923D01*
G01X701Y4938D01*
G01X706Y4954D01*
G01X707Y4971D01*
G01X706Y4988D01*
G01X701Y5003D01*
G01X692Y5018D01*
G01X680Y5032D01*
G01X665Y5044D01*
G01X646Y5055D01*
G01X624Y5065D01*
G01X598Y5073D01*
G01X567Y5079D01*
G01X534Y5084D01*
G01X496Y5086D01*
G37*

%LPD*%
G36*
G01X276Y4682D02*
G01X240Y4719D01*
G01X221Y4702D01*
G01X204Y4683D01*
G01X190Y4664D01*
G01X177Y4644D01*
G01X167Y4623D01*
G01X160Y4600D01*
G01X155Y4576D01*
G01X153Y4550D01*
G01X155Y4524D01*
G01X159Y4501D01*
G01X165Y4479D01*
G01X175Y4460D01*
G01X186Y4442D01*
G01X200Y4426D01*
G01X216Y4413D01*
G01X234Y4402D01*
G01X254Y4393D01*
G01X276Y4387D01*
G01X299Y4383D01*
G01X325Y4382D01*
G01X342Y4382D01*
G01X360Y4384D01*
G01X396Y4392D01*
G01X414Y4398D01*
G01X432Y4405D01*
G01X451Y4413D01*
G01X469Y4423D01*
G01X487Y4434D01*
G01X505Y4446D01*
G01X524Y4458D01*
G01X543Y4472D01*
G01X562Y4487D01*
G01X581Y4503D01*
G01X600Y4520D01*
G01X619Y4538D01*
G01X639Y4556D01*
G01X659Y4576D01*
G01X678Y4596D01*
G01X698Y4617D01*
G01X696Y4593D01*
G01X695Y4568D01*
G01X694Y4544D01*
G01X694Y4353D01*
G01X750Y4353D01*
G01X750Y4715D01*
G01X711Y4715D01*
G01X686Y4688D01*
G01X640Y4638D01*
G01X596Y4594D01*
G01X575Y4575D01*
G01X555Y4557D01*
G01X534Y4540D01*
G01X515Y4524D01*
G01X496Y4510D01*
G01X477Y4498D01*
G01X459Y4487D01*
G01X441Y4477D01*
G01X407Y4461D01*
G01X390Y4456D01*
G01X374Y4451D01*
G01X358Y4448D01*
G01X343Y4446D01*
G01X328Y4446D01*
G01X303Y4447D01*
G01X280Y4452D01*
G01X259Y4461D01*
G01X241Y4473D01*
G01X226Y4488D01*
G01X216Y4507D01*
G01X209Y4530D01*
G01X207Y4557D01*
G01X208Y4575D01*
G01X212Y4592D01*
G01X218Y4609D01*
G01X226Y4625D01*
G01X236Y4640D01*
G01X248Y4655D01*
G01X261Y4668D01*
G01X276Y4682D01*
G37*

%LPD*%
G36*
G01X492Y4272D02*
G01X455Y4273D01*
G01X418Y4272D01*
G01X383Y4269D01*
G01X351Y4265D01*
G01X322Y4260D01*
G01X295Y4253D01*
G01X270Y4244D01*
G01X248Y4235D01*
G01X228Y4224D01*
G01X210Y4211D01*
G01X195Y4198D01*
G01X182Y4183D01*
G01X172Y4167D01*
G01X164Y4150D01*
G01X158Y4132D01*
G01X155Y4113D01*
G01X153Y4092D01*
G01X155Y4072D01*
G01X158Y4053D01*
G01X164Y4035D01*
G01X172Y4018D01*
G01X182Y4002D01*
G01X195Y3988D01*
G01X210Y3974D01*
G01X228Y3962D01*
G01X248Y3951D01*
G01X270Y3941D01*
G01X295Y3933D01*
G01X322Y3926D01*
G01X351Y3921D01*
G01X383Y3917D01*
G01X418Y3914D01*
G01X455Y3913D01*
G01X492Y3914D01*
G01X526Y3917D01*
G01X559Y3921D01*
G01X589Y3926D01*
G01X616Y3933D01*
G01X641Y3941D01*
G01X664Y3951D01*
G01X684Y3962D01*
G01X702Y3974D01*
G01X717Y3988D01*
G01X730Y4002D01*
G01X741Y4018D01*
G01X749Y4035D01*
G01X755Y4053D01*
G01X758Y4072D01*
G01X759Y4092D01*
G01X758Y4113D01*
G01X755Y4132D01*
G01X749Y4150D01*
G01X741Y4167D01*
G01X730Y4183D01*
G01X717Y4198D01*
G01X702Y4211D01*
G01X684Y4224D01*
G01X664Y4235D01*
G01X641Y4244D01*
G01X616Y4253D01*
G01X589Y4260D01*
G01X559Y4265D01*
G01X526Y4269D01*
G01X492Y4272D01*
G37*

%LPC*%
G36*
G01X496Y4209D02*
G01X414Y4209D01*
G01X377Y4206D01*
G01X344Y4201D01*
G01X314Y4194D01*
G01X288Y4186D01*
G01X266Y4177D01*
G01X248Y4166D01*
G01X233Y4153D01*
G01X221Y4140D01*
G01X213Y4125D01*
G01X208Y4109D01*
G01X207Y4092D01*
G01X208Y4076D01*
G01X213Y4060D01*
G01X221Y4046D01*
G01X233Y4032D01*
G01X248Y4020D01*
G01X266Y4009D01*
G01X288Y4000D01*
G01X314Y3992D01*
G01X344Y3986D01*
G01X377Y3981D01*
G01X414Y3978D01*
G01X496Y3978D01*
G01X534Y3981D01*
G01X567Y3986D01*
G01X598Y3992D01*
G01X624Y4000D01*
G01X646Y4009D01*
G01X665Y4020D01*
G01X680Y4032D01*
G01X692Y4046D01*
G01X701Y4060D01*
G01X706Y4076D01*
G01X707Y4092D01*
G01X706Y4109D01*
G01X701Y4125D01*
G01X692Y4140D01*
G01X680Y4153D01*
G01X665Y4166D01*
G01X646Y4177D01*
G01X624Y4186D01*
G01X598Y4194D01*
G01X567Y4201D01*
G01X534Y4206D01*
G01X496Y4209D01*
G37*

%LPD*%
G36*
G01X551Y3836D02*
G01X501Y3836D01*
G01X501Y3634D01*
G01X551Y3634D01*
G01X551Y3836D01*
G37*

%LPD*%
G36*
G01X750Y3517D02*
G01X163Y3517D01*
G01X163Y3436D01*
G01X484Y3321D01*
G01X515Y3309D01*
G01X546Y3299D01*
G01X578Y3288D01*
G01X609Y3278D01*
G01X609Y3273D01*
G01X578Y3263D01*
G01X546Y3253D01*
G01X484Y3234D01*
G01X163Y3119D01*
G01X163Y3038D01*
G01X750Y3038D01*
G01X750Y3098D01*
G01X371Y3098D01*
G01X327Y3096D01*
G01X305Y3094D01*
G01X282Y3093D01*
G01X261Y3092D01*
G01X242Y3090D01*
G01X242Y3094D01*
G01X375Y3140D01*
G01X690Y3255D01*
G01X690Y3301D01*
G01X375Y3415D01*
G01X242Y3461D01*
G01X242Y3465D01*
G01X261Y3464D01*
G01X282Y3463D01*
G01X305Y3461D01*
G01X371Y3458D01*
G01X392Y3458D01*
G01X411Y3457D01*
G01X750Y3457D01*
G01X750Y3517D01*
G37*

%LPD*%
G36*
G01X697Y2918D02*
G01X682Y2934D01*
G01X640Y2901D01*
G01X664Y2873D01*
G01X675Y2857D01*
G01X685Y2840D01*
G01X694Y2822D01*
G01X700Y2801D01*
G01X704Y2778D01*
G01X705Y2753D01*
G01X703Y2728D01*
G01X695Y2704D01*
G01X683Y2682D01*
G01X667Y2663D01*
G01X646Y2648D01*
G01X621Y2636D01*
G01X593Y2628D01*
G01X561Y2626D01*
G01X531Y2628D01*
G01X504Y2634D01*
G01X480Y2645D01*
G01X460Y2659D01*
G01X444Y2678D01*
G01X433Y2699D01*
G01X426Y2723D01*
G01X423Y2751D01*
G01X426Y2778D01*
G01X432Y2803D01*
G01X443Y2826D01*
G01X459Y2850D01*
G01X436Y2886D01*
G01X163Y2867D01*
G01X163Y2588D01*
G01X219Y2588D01*
G01X219Y2809D01*
G01X398Y2826D01*
G01X387Y2805D01*
G01X379Y2784D01*
G01X374Y2761D01*
G01X373Y2734D01*
G01X374Y2711D01*
G01X377Y2688D01*
G01X384Y2666D01*
G01X392Y2646D01*
G01X404Y2628D01*
G01X418Y2611D01*
G01X434Y2596D01*
G01X454Y2583D01*
G01X476Y2573D01*
G01X501Y2566D01*
G01X529Y2561D01*
G01X559Y2559D01*
G01X590Y2561D01*
G01X619Y2567D01*
G01X645Y2575D01*
G01X668Y2587D01*
G01X689Y2601D01*
G01X707Y2618D01*
G01X723Y2636D01*
G01X736Y2656D01*
G01X746Y2678D01*
G01X753Y2701D01*
G01X758Y2725D01*
G01X759Y2748D01*
G01X758Y2781D01*
G01X753Y2810D01*
G01X746Y2836D01*
G01X736Y2860D01*
G01X724Y2881D01*
G01X711Y2901D01*
G01X697Y2918D01*
G37*

%LPD*%
G36*
G01X692Y2458D02*
G01X673Y2478D01*
G01X628Y2438D01*
G01X644Y2421D01*
G01X658Y2403D01*
G01X671Y2384D01*
G01X681Y2363D01*
G01X690Y2342D01*
G01X696Y2320D01*
G01X700Y2297D01*
G01X701Y2273D01*
G01X700Y2245D01*
G01X694Y2220D01*
G01X685Y2198D01*
G01X673Y2180D01*
G01X659Y2165D01*
G01X642Y2154D01*
G01X622Y2148D01*
G01X601Y2146D01*
G01X579Y2148D01*
G01X561Y2153D01*
G01X545Y2162D01*
G01X532Y2175D01*
G01X521Y2189D01*
G01X511Y2206D01*
G01X502Y2225D01*
G01X492Y2246D01*
G01X455Y2330D01*
G01X446Y2351D01*
G01X434Y2371D01*
G01X420Y2392D01*
G01X404Y2410D01*
G01X385Y2426D01*
G01X362Y2438D01*
G01X336Y2446D01*
G01X307Y2450D01*
G01X285Y2448D01*
G01X264Y2443D01*
G01X245Y2436D01*
G01X227Y2426D01*
G01X211Y2413D01*
G01X197Y2398D01*
G01X184Y2381D01*
G01X173Y2362D01*
G01X165Y2341D01*
G01X159Y2318D01*
G01X155Y2294D01*
G01X153Y2269D01*
G01X155Y2242D01*
G01X159Y2217D01*
G01X165Y2194D01*
G01X174Y2171D01*
G01X184Y2151D01*
G01X196Y2131D01*
G01X210Y2113D01*
G01X226Y2098D01*
G01X267Y2134D01*
G01X255Y2147D01*
G01X244Y2162D01*
G01X235Y2177D01*
G01X227Y2194D01*
G01X220Y2211D01*
G01X215Y2229D01*
G01X213Y2248D01*
G01X211Y2269D01*
G01X213Y2293D01*
G01X218Y2315D01*
G01X226Y2334D01*
G01X236Y2351D01*
G01X249Y2364D01*
G01X264Y2373D01*
G01X282Y2380D01*
G01X301Y2382D01*
G01X322Y2379D01*
G01X340Y2373D01*
G01X355Y2363D01*
G01X367Y2350D01*
G01X378Y2335D01*
G01X388Y2319D01*
G01X396Y2301D01*
G01X403Y2284D01*
G01X440Y2200D01*
G01X451Y2175D01*
G01X464Y2152D01*
G01X479Y2132D01*
G01X496Y2113D01*
G01X515Y2098D01*
G01X538Y2087D01*
G01X565Y2080D01*
G01X596Y2078D01*
G01X618Y2079D01*
G01X640Y2084D01*
G01X660Y2091D01*
G01X679Y2102D01*
G01X696Y2115D01*
G01X712Y2131D01*
G01X726Y2149D01*
G01X738Y2170D01*
G01X747Y2193D01*
G01X754Y2218D01*
G01X758Y2245D01*
G01X759Y2275D01*
G01X758Y2305D01*
G01X753Y2334D01*
G01X746Y2362D01*
G01X736Y2388D01*
G01X724Y2413D01*
G01X709Y2436D01*
G01X692Y2458D01*
G37*

%LPD*%
G36*
G01X219Y2034D02*
G01X163Y2034D01*
G01X163Y1609D01*
G01X219Y1609D01*
G01X219Y1790D01*
G01X750Y1790D01*
G01X750Y1857D01*
G01X219Y1857D01*
G01X219Y2034D01*
G37*

%LPD*%
G36*
G01X750Y1551D02*
G01X750Y1617D01*
G01X163Y1417D01*
G01X163Y1344D01*
G01X750Y1144D01*
G01X750Y1213D01*
G01X565Y1273D01*
G01X565Y1490D01*
G01X750Y1551D01*
G37*

%LPC*%
G36*
G01X513Y1290D02*
G01X513Y1473D01*
G01X417Y1444D01*
G01X393Y1435D01*
G01X369Y1428D01*
G01X320Y1412D01*
G01X245Y1391D01*
G01X219Y1384D01*
G01X219Y1380D01*
G01X245Y1373D01*
G01X270Y1366D01*
G01X295Y1358D01*
G01X319Y1351D01*
G01X344Y1343D01*
G01X368Y1336D01*
G01X393Y1328D01*
G01X417Y1319D01*
G01X513Y1290D01*
G37*

%LPD*%
G36*
G01X484Y1101D02*
G01X429Y1101D01*
G01X402Y1098D01*
G01X377Y1094D01*
G01X353Y1089D01*
G01X330Y1082D01*
G01X308Y1074D01*
G01X288Y1065D01*
G01X269Y1054D01*
G01X251Y1042D01*
G01X234Y1029D01*
G01X219Y1015D01*
G01X206Y1000D01*
G01X194Y983D01*
G01X184Y966D01*
G01X175Y948D01*
G01X167Y929D01*
G01X161Y909D01*
G01X157Y889D01*
G01X154Y867D01*
G01X153Y846D01*
G01X155Y819D01*
G01X159Y795D01*
G01X166Y772D01*
G01X175Y751D01*
G01X186Y732D01*
G01X198Y715D01*
G01X211Y699D01*
G01X225Y686D01*
G01X267Y723D01*
G01X245Y748D01*
G01X227Y776D01*
G01X216Y808D01*
G01X211Y844D01*
G01X213Y865D01*
G01X216Y885D01*
G01X221Y904D01*
G01X228Y922D01*
G01X238Y939D01*
G01X249Y954D01*
G01X262Y969D01*
G01X277Y982D01*
G01X294Y994D01*
G01X312Y1004D01*
G01X332Y1013D01*
G01X354Y1020D01*
G01X377Y1026D01*
G01X402Y1030D01*
G01X428Y1033D01*
G01X455Y1034D01*
G01X483Y1033D01*
G01X509Y1030D01*
G01X534Y1026D01*
G01X558Y1021D01*
G01X580Y1013D01*
G01X600Y1005D01*
G01X618Y994D01*
G01X635Y983D01*
G01X650Y970D01*
G01X663Y956D01*
G01X675Y941D01*
G01X684Y924D01*
G01X692Y907D01*
G01X697Y888D01*
G01X700Y867D01*
G01X701Y846D01*
G01X700Y826D01*
G01X697Y806D01*
G01X692Y788D01*
G01X684Y770D01*
G01X675Y754D01*
G01X663Y738D01*
G01X650Y723D01*
G01X634Y709D01*
G01X676Y671D01*
G01X695Y689D01*
G01X711Y708D01*
G01X726Y728D01*
G01X738Y749D01*
G01X747Y772D01*
G01X754Y796D01*
G01X758Y822D01*
G01X759Y850D01*
G01X759Y871D01*
G01X756Y892D01*
G01X752Y912D01*
G01X746Y931D01*
G01X739Y950D01*
G01X730Y968D01*
G01X719Y985D01*
G01X707Y1001D01*
G01X694Y1016D01*
G01X679Y1030D01*
G01X663Y1043D01*
G01X645Y1055D01*
G01X626Y1065D01*
G01X606Y1075D01*
G01X584Y1082D01*
G01X561Y1089D01*
G01X537Y1094D01*
G01X511Y1098D01*
G01X484Y1101D01*
G37*

%LPD*%
G36*
G01X750Y561D02*
G01X163Y561D01*
G01X163Y494D01*
G01X465Y494D01*
G01X465Y492D01*
G01X163Y238D01*
G01X163Y163D01*
G01X386Y346D01*
G01X750Y136D01*
G01X750Y209D01*
G01X436Y390D01*
G01X561Y494D01*
G01X750Y494D01*
G01X750Y561D01*
G37*

%LPD*%

%LPD*%
G36*
G01X6438Y2136D02*
G01X6371Y2136D01*
G01X6371Y1605D01*
G01X6111Y1605D01*
G01X6111Y1550D01*
G01X6438Y1550D01*
G01X6438Y2136D01*
G37*

%LPD*%
G36*
G01X6743Y2145D02*
G01X6722Y2146D01*
G01X6696Y2144D01*
G01X6672Y2140D01*
G01X6649Y2133D01*
G01X6628Y2124D01*
G01X6609Y2113D01*
G01X6592Y2101D01*
G01X6576Y2088D01*
G01X6563Y2075D01*
G01X6600Y2032D01*
G01X6624Y2054D01*
G01X6652Y2072D01*
G01X6685Y2083D01*
G01X6722Y2088D01*
G01X6743Y2086D01*
G01X6762Y2083D01*
G01X6781Y2078D01*
G01X6799Y2071D01*
G01X6816Y2061D01*
G01X6831Y2050D01*
G01X6846Y2037D01*
G01X6859Y2022D01*
G01X6871Y2005D01*
G01X6881Y1987D01*
G01X6890Y1967D01*
G01X6897Y1945D01*
G01X6903Y1922D01*
G01X6907Y1897D01*
G01X6910Y1871D01*
G01X6910Y1816D01*
G01X6907Y1790D01*
G01X6903Y1765D01*
G01X6897Y1741D01*
G01X6890Y1719D01*
G01X6882Y1699D01*
G01X6872Y1681D01*
G01X6860Y1664D01*
G01X6847Y1649D01*
G01X6833Y1636D01*
G01X6818Y1624D01*
G01X6801Y1615D01*
G01X6784Y1607D01*
G01X6764Y1602D01*
G01X6744Y1599D01*
G01X6723Y1598D01*
G01X6703Y1599D01*
G01X6683Y1602D01*
G01X6665Y1607D01*
G01X6647Y1615D01*
G01X6631Y1625D01*
G01X6615Y1636D01*
G01X6600Y1649D01*
G01X6585Y1665D01*
G01X6548Y1623D01*
G01X6566Y1604D01*
G01X6585Y1588D01*
G01X6605Y1573D01*
G01X6626Y1561D01*
G01X6649Y1552D01*
G01X6673Y1545D01*
G01X6699Y1541D01*
G01X6727Y1540D01*
G01X6748Y1540D01*
G01X6769Y1543D01*
G01X6789Y1547D01*
G01X6808Y1553D01*
G01X6827Y1560D01*
G01X6845Y1569D01*
G01X6862Y1580D01*
G01X6878Y1592D01*
G01X6893Y1605D01*
G01X6907Y1620D01*
G01X6920Y1636D01*
G01X6931Y1654D01*
G01X6942Y1673D01*
G01X6952Y1693D01*
G01X6960Y1715D01*
G01X6966Y1738D01*
G01X6972Y1762D01*
G01X6975Y1788D01*
G01X6978Y1815D01*
G01X6978Y1870D01*
G01X6975Y1897D01*
G01X6971Y1922D01*
G01X6966Y1946D01*
G01X6959Y1969D01*
G01X6951Y1991D01*
G01X6942Y2011D01*
G01X6931Y2030D01*
G01X6919Y2048D01*
G01X6906Y2065D01*
G01X6891Y2080D01*
G01X6876Y2093D01*
G01X6860Y2105D01*
G01X6824Y2125D01*
G01X6805Y2132D01*
G01X6785Y2138D01*
G01X6765Y2142D01*
G01X6743Y2145D01*
G37*

%LPD*%
G36*
G01X7277Y2144D02*
G01X7252Y2146D01*
G01X7226Y2144D01*
G01X7201Y2140D01*
G01X7177Y2134D01*
G01X7155Y2125D01*
G01X7135Y2115D01*
G01X7115Y2103D01*
G01X7097Y2089D01*
G01X7081Y2073D01*
G01X7117Y2032D01*
G01X7130Y2044D01*
G01X7145Y2055D01*
G01X7160Y2064D01*
G01X7177Y2072D01*
G01X7194Y2079D01*
G01X7212Y2084D01*
G01X7231Y2086D01*
G01X7252Y2088D01*
G01X7276Y2086D01*
G01X7298Y2081D01*
G01X7318Y2073D01*
G01X7334Y2063D01*
G01X7347Y2050D01*
G01X7357Y2035D01*
G01X7363Y2017D01*
G01X7365Y1998D01*
G01X7363Y1977D01*
G01X7356Y1959D01*
G01X7346Y1944D01*
G01X7333Y1932D01*
G01X7318Y1921D01*
G01X7302Y1911D01*
G01X7285Y1903D01*
G01X7268Y1896D01*
G01X7182Y1859D01*
G01X7158Y1848D01*
G01X7135Y1835D01*
G01X7115Y1820D01*
G01X7097Y1803D01*
G01X7082Y1784D01*
G01X7071Y1761D01*
G01X7064Y1734D01*
G01X7061Y1703D01*
G01X7063Y1681D01*
G01X7068Y1659D01*
G01X7075Y1639D01*
G01X7086Y1620D01*
G01X7099Y1603D01*
G01X7114Y1587D01*
G01X7133Y1573D01*
G01X7153Y1561D01*
G01X7176Y1552D01*
G01X7201Y1545D01*
G01X7228Y1541D01*
G01X7257Y1540D01*
G01X7288Y1541D01*
G01X7318Y1546D01*
G01X7346Y1553D01*
G01X7372Y1563D01*
G01X7397Y1575D01*
G01X7420Y1590D01*
G01X7442Y1607D01*
G01X7461Y1626D01*
G01X7422Y1671D01*
G01X7405Y1655D01*
G01X7386Y1641D01*
G01X7367Y1628D01*
G01X7347Y1618D01*
G01X7325Y1609D01*
G01X7303Y1603D01*
G01X7281Y1599D01*
G01X7257Y1598D01*
G01X7229Y1599D01*
G01X7203Y1605D01*
G01X7181Y1614D01*
G01X7163Y1626D01*
G01X7148Y1640D01*
G01X7138Y1657D01*
G01X7131Y1677D01*
G01X7128Y1698D01*
G01X7131Y1720D01*
G01X7136Y1738D01*
G01X7145Y1754D01*
G01X7157Y1767D01*
G01X7172Y1778D01*
G01X7189Y1788D01*
G01X7208Y1797D01*
G01X7228Y1807D01*
G01X7314Y1844D01*
G01X7334Y1853D01*
G01X7355Y1865D01*
G01X7375Y1879D01*
G01X7393Y1895D01*
G01X7409Y1914D01*
G01X7422Y1937D01*
G01X7430Y1963D01*
G01X7432Y1992D01*
G01X7431Y2014D01*
G01X7426Y2035D01*
G01X7419Y2054D01*
G01X7409Y2072D01*
G01X7396Y2088D01*
G01X7381Y2102D01*
G01X7364Y2115D01*
G01X7345Y2126D01*
G01X7324Y2134D01*
G01X7301Y2140D01*
G01X7277Y2144D01*
G37*

%LPD*%

%LPD*%
G36*
G01X5909Y2145D02*
G01X5886Y2146D01*
G01X5857Y2144D01*
G01X5831Y2139D01*
G01X5807Y2132D01*
G01X5785Y2123D01*
G01X5766Y2112D01*
G01X5749Y2100D01*
G01X5733Y2087D01*
G01X5719Y2075D01*
G01X5756Y2032D01*
G01X5780Y2053D01*
G01X5809Y2071D01*
G01X5844Y2083D01*
G01X5885Y2088D01*
G01X5908Y2086D01*
G01X5929Y2083D01*
G01X5949Y2078D01*
G01X5968Y2071D01*
G01X5985Y2061D01*
G01X6002Y2050D01*
G01X6017Y2037D01*
G01X6030Y2022D01*
G01X6043Y2005D01*
G01X6053Y1987D01*
G01X6063Y1967D01*
G01X6070Y1945D01*
G01X6077Y1922D01*
G01X6081Y1897D01*
G01X6084Y1871D01*
G01X6085Y1844D01*
G01X6084Y1816D01*
G01X6081Y1790D01*
G01X6077Y1765D01*
G01X6071Y1741D01*
G01X6064Y1720D01*
G01X6055Y1699D01*
G01X6045Y1681D01*
G01X6033Y1664D01*
G01X6019Y1649D01*
G01X6004Y1636D01*
G01X5988Y1624D01*
G01X5970Y1615D01*
G01X5951Y1607D01*
G01X5931Y1602D01*
G01X5909Y1599D01*
G01X5885Y1598D01*
G01X5853Y1600D01*
G01X5822Y1607D01*
G01X5795Y1619D01*
G01X5773Y1634D01*
G01X5773Y1794D01*
G01X5902Y1794D01*
G01X5902Y1850D01*
G01X5713Y1850D01*
G01X5713Y1607D01*
G01X5728Y1592D01*
G01X5745Y1580D01*
G01X5765Y1568D01*
G01X5787Y1558D01*
G01X5810Y1550D01*
G01X5836Y1544D01*
G01X5863Y1541D01*
G01X5892Y1540D01*
G01X5914Y1540D01*
G01X5936Y1543D01*
G01X5957Y1547D01*
G01X5977Y1553D01*
G01X5997Y1560D01*
G01X6015Y1569D01*
G01X6033Y1579D01*
G01X6049Y1591D01*
G01X6065Y1605D01*
G01X6079Y1620D01*
G01X6093Y1636D01*
G01X6105Y1654D01*
G01X6116Y1673D01*
G01X6125Y1693D01*
G01X6133Y1715D01*
G01X6140Y1738D01*
G01X6145Y1762D01*
G01X6149Y1788D01*
G01X6152Y1815D01*
G01X6152Y1870D01*
G01X6149Y1897D01*
G01X6145Y1922D01*
G01X6140Y1946D01*
G01X6133Y1969D01*
G01X6124Y1991D01*
G01X6115Y2011D01*
G01X6104Y2030D01*
G01X6091Y2048D01*
G01X6078Y2065D01*
G01X6063Y2079D01*
G01X6047Y2093D01*
G01X6030Y2105D01*
G01X6012Y2116D01*
G01X5993Y2125D01*
G01X5974Y2132D01*
G01X5953Y2138D01*
G01X5932Y2142D01*
G01X5909Y2145D01*
G37*

%LPD*%

%LPD*%
G36*
G01X4485Y2136D02*
G01X4411Y2136D01*
G01X4210Y1550D01*
G01X4281Y1550D01*
G01X4339Y1734D01*
G01X4557Y1734D01*
G01X4618Y1550D01*
G01X4685Y1550D01*
G01X4485Y2136D01*
G37*

%LPC*%
G36*
G01X4451Y2080D02*
G01X4447Y2080D01*
G01X4440Y2054D01*
G01X4426Y2004D01*
G01X4418Y1980D01*
G01X4411Y1955D01*
G01X4403Y1931D01*
G01X4395Y1906D01*
G01X4386Y1882D01*
G01X4356Y1786D01*
G01X4542Y1786D01*
G01X4510Y1882D01*
G01X4503Y1906D01*
G01X4495Y1930D01*
G01X4480Y1979D01*
G01X4472Y2004D01*
G01X4458Y2054D01*
G01X4451Y2080D01*
G37*

%LPD*%
G36*
G01X5144Y2136D02*
G01X5001Y2136D01*
G01X4974Y2135D01*
G01X4949Y2132D01*
G01X4925Y2128D01*
G01X4903Y2123D01*
G01X4882Y2116D01*
G01X4862Y2107D01*
G01X4843Y2098D01*
G01X4826Y2086D01*
G01X4810Y2073D01*
G01X4796Y2059D01*
G01X4783Y2043D01*
G01X4771Y2026D01*
G01X4761Y2008D01*
G01X4752Y1988D01*
G01X4744Y1967D01*
G01X4738Y1946D01*
G01X4733Y1922D01*
G01X4729Y1897D01*
G01X4727Y1871D01*
G01X4727Y1817D01*
G01X4729Y1792D01*
G01X4733Y1767D01*
G01X4738Y1743D01*
G01X4744Y1721D01*
G01X4752Y1700D01*
G01X4760Y1680D01*
G01X4771Y1661D01*
G01X4783Y1644D01*
G01X4796Y1628D01*
G01X4810Y1613D01*
G01X4826Y1600D01*
G01X4843Y1589D01*
G01X4861Y1578D01*
G01X4881Y1570D01*
G01X4901Y1563D01*
G01X4923Y1557D01*
G01X4947Y1553D01*
G01X4972Y1550D01*
G01X5144Y1550D01*
G01X5144Y2136D01*
G37*

%LPC*%
G36*
G01X5077Y2080D02*
G01X4980Y2080D01*
G01X4956Y2076D01*
G01X4933Y2071D01*
G01X4913Y2065D01*
G01X4894Y2056D01*
G01X4876Y2045D01*
G01X4861Y2033D01*
G01X4847Y2019D01*
G01X4835Y2003D01*
G01X4824Y1985D01*
G01X4815Y1966D01*
G01X4807Y1945D01*
G01X4802Y1922D01*
G01X4798Y1898D01*
G01X4795Y1872D01*
G01X4794Y1844D01*
G01X4795Y1817D01*
G01X4798Y1791D01*
G01X4802Y1767D01*
G01X4807Y1744D01*
G01X4815Y1723D01*
G01X4824Y1703D01*
G01X4835Y1684D01*
G01X4847Y1668D01*
G01X4861Y1653D01*
G01X4876Y1640D01*
G01X4894Y1629D01*
G01X4913Y1620D01*
G01X4933Y1613D01*
G01X4956Y1608D01*
G01X4980Y1605D01*
G01X5006Y1603D01*
G01X5077Y1603D01*
G01X5077Y2080D01*
G37*

%LPD*%
G36*
G01X5477Y2144D02*
G01X5452Y2146D01*
G01X5426Y2144D01*
G01X5401Y2140D01*
G01X5377Y2134D01*
G01X5355Y2125D01*
G01X5335Y2115D01*
G01X5315Y2103D01*
G01X5297Y2089D01*
G01X5281Y2073D01*
G01X5317Y2032D01*
G01X5330Y2044D01*
G01X5345Y2055D01*
G01X5360Y2064D01*
G01X5377Y2072D01*
G01X5394Y2079D01*
G01X5412Y2084D01*
G01X5431Y2086D01*
G01X5452Y2088D01*
G01X5476Y2086D01*
G01X5498Y2081D01*
G01X5518Y2073D01*
G01X5534Y2063D01*
G01X5547Y2050D01*
G01X5557Y2035D01*
G01X5563Y2017D01*
G01X5565Y1998D01*
G01X5563Y1977D01*
G01X5556Y1959D01*
G01X5546Y1944D01*
G01X5533Y1932D01*
G01X5518Y1921D01*
G01X5502Y1911D01*
G01X5485Y1903D01*
G01X5468Y1896D01*
G01X5382Y1859D01*
G01X5358Y1848D01*
G01X5335Y1835D01*
G01X5315Y1820D01*
G01X5297Y1803D01*
G01X5282Y1784D01*
G01X5271Y1761D01*
G01X5264Y1734D01*
G01X5261Y1703D01*
G01X5263Y1681D01*
G01X5268Y1659D01*
G01X5275Y1639D01*
G01X5286Y1620D01*
G01X5299Y1603D01*
G01X5314Y1587D01*
G01X5333Y1573D01*
G01X5353Y1561D01*
G01X5376Y1552D01*
G01X5401Y1545D01*
G01X5428Y1541D01*
G01X5457Y1540D01*
G01X5488Y1541D01*
G01X5518Y1546D01*
G01X5546Y1553D01*
G01X5572Y1563D01*
G01X5597Y1575D01*
G01X5620Y1590D01*
G01X5642Y1607D01*
G01X5661Y1626D01*
G01X5622Y1671D01*
G01X5605Y1655D01*
G01X5586Y1641D01*
G01X5567Y1628D01*
G01X5547Y1618D01*
G01X5525Y1609D01*
G01X5503Y1603D01*
G01X5481Y1599D01*
G01X5457Y1598D01*
G01X5429Y1599D01*
G01X5403Y1605D01*
G01X5381Y1614D01*
G01X5363Y1626D01*
G01X5348Y1640D01*
G01X5338Y1657D01*
G01X5331Y1677D01*
G01X5328Y1698D01*
G01X5331Y1720D01*
G01X5336Y1738D01*
G01X5345Y1754D01*
G01X5357Y1767D01*
G01X5372Y1778D01*
G01X5389Y1788D01*
G01X5408Y1797D01*
G01X5428Y1807D01*
G01X5514Y1844D01*
G01X5534Y1853D01*
G01X5555Y1865D01*
G01X5575Y1879D01*
G01X5593Y1895D01*
G01X5609Y1914D01*
G01X5622Y1937D01*
G01X5630Y1963D01*
G01X5632Y1992D01*
G01X5631Y2014D01*
G01X5626Y2035D01*
G01X5619Y2054D01*
G01X5609Y2072D01*
G01X5596Y2088D01*
G01X5581Y2102D01*
G01X5564Y2115D01*
G01X5545Y2126D01*
G01X5524Y2134D01*
G01X5501Y2140D01*
G01X5477Y2144D01*
G37*

%LPD*%

%LPD*%
G36*
G01X3375Y2136D02*
G01X3307Y2136D01*
G01X3494Y1550D01*
G01X3571Y1550D01*
G01X3759Y2136D01*
G01X3689Y2136D01*
G01X3590Y1811D01*
G01X3583Y1786D01*
G01X3569Y1738D01*
G01X3562Y1715D01*
G01X3556Y1692D01*
G01X3542Y1644D01*
G01X3534Y1619D01*
G01X3530Y1619D01*
G01X3522Y1644D01*
G01X3514Y1668D01*
G01X3507Y1692D01*
G01X3501Y1715D01*
G01X3494Y1738D01*
G01X3480Y1786D01*
G01X3472Y1811D01*
G01X3375Y2136D01*
G37*

%LPD*%
G36*
G01X4111Y2136D02*
G01X3831Y2136D01*
G01X3831Y2080D01*
G01X4053Y2080D01*
G01X4069Y1901D01*
G01X4049Y1912D01*
G01X4028Y1920D01*
G01X4005Y1925D01*
G01X3978Y1926D01*
G01X3955Y1925D01*
G01X3932Y1922D01*
G01X3910Y1915D01*
G01X3890Y1907D01*
G01X3872Y1895D01*
G01X3855Y1881D01*
G01X3840Y1865D01*
G01X3827Y1845D01*
G01X3817Y1823D01*
G01X3810Y1798D01*
G01X3805Y1770D01*
G01X3803Y1740D01*
G01X3805Y1709D01*
G01X3811Y1680D01*
G01X3819Y1654D01*
G01X3831Y1631D01*
G01X3845Y1610D01*
G01X3862Y1592D01*
G01X3880Y1576D01*
G01X3900Y1563D01*
G01X3922Y1553D01*
G01X3945Y1546D01*
G01X3968Y1541D01*
G01X3993Y1540D01*
G01X4025Y1541D01*
G01X4054Y1546D01*
G01X4081Y1553D01*
G01X4104Y1563D01*
G01X4125Y1575D01*
G01X4144Y1588D01*
G01X4162Y1602D01*
G01X4177Y1617D01*
G01X4144Y1659D01*
G01X4131Y1647D01*
G01X4117Y1635D01*
G01X4102Y1624D01*
G01X4085Y1614D01*
G01X4066Y1605D01*
G01X4045Y1599D01*
G01X4022Y1595D01*
G01X3997Y1594D01*
G01X3972Y1596D01*
G01X3948Y1604D01*
G01X3926Y1616D01*
G01X3907Y1632D01*
G01X3892Y1653D01*
G01X3880Y1678D01*
G01X3872Y1706D01*
G01X3869Y1738D01*
G01X3872Y1768D01*
G01X3878Y1795D01*
G01X3889Y1819D01*
G01X3903Y1839D01*
G01X3922Y1855D01*
G01X3943Y1866D01*
G01X3967Y1873D01*
G01X3994Y1876D01*
G01X4022Y1873D01*
G01X4047Y1867D01*
G01X4070Y1856D01*
G01X4093Y1840D01*
G01X4130Y1863D01*
G01X4111Y2136D01*
G37*

%LPD*%

%LPD*%
G36*
G01X3088Y5636D02*
G01X3021Y5636D01*
G01X3021Y5105D01*
G01X2761Y5105D01*
G01X2761Y5050D01*
G01X3088Y5050D01*
G01X3088Y5636D01*
G37*

%LPD*%
G36*
G01X3393Y5645D02*
G01X3372Y5646D01*
G01X3346Y5644D01*
G01X3321Y5640D01*
G01X3299Y5633D01*
G01X3278Y5624D01*
G01X3259Y5613D01*
G01X3242Y5601D01*
G01X3226Y5588D01*
G01X3213Y5575D01*
G01X3250Y5532D01*
G01X3274Y5554D01*
G01X3302Y5572D01*
G01X3335Y5583D01*
G01X3372Y5588D01*
G01X3393Y5586D01*
G01X3412Y5583D01*
G01X3431Y5578D01*
G01X3449Y5571D01*
G01X3466Y5561D01*
G01X3481Y5550D01*
G01X3496Y5537D01*
G01X3509Y5522D01*
G01X3521Y5505D01*
G01X3531Y5487D01*
G01X3540Y5467D01*
G01X3547Y5445D01*
G01X3553Y5422D01*
G01X3557Y5397D01*
G01X3560Y5371D01*
G01X3560Y5316D01*
G01X3557Y5290D01*
G01X3553Y5265D01*
G01X3547Y5241D01*
G01X3540Y5219D01*
G01X3532Y5199D01*
G01X3522Y5181D01*
G01X3510Y5164D01*
G01X3497Y5149D01*
G01X3483Y5136D01*
G01X3468Y5124D01*
G01X3451Y5115D01*
G01X3434Y5107D01*
G01X3414Y5102D01*
G01X3394Y5099D01*
G01X3373Y5098D01*
G01X3353Y5099D01*
G01X3333Y5102D01*
G01X3315Y5107D01*
G01X3297Y5115D01*
G01X3281Y5125D01*
G01X3265Y5136D01*
G01X3250Y5149D01*
G01X3236Y5165D01*
G01X3198Y5123D01*
G01X3216Y5104D01*
G01X3235Y5088D01*
G01X3255Y5073D01*
G01X3276Y5061D01*
G01X3299Y5052D01*
G01X3323Y5045D01*
G01X3349Y5041D01*
G01X3377Y5040D01*
G01X3398Y5040D01*
G01X3419Y5043D01*
G01X3439Y5047D01*
G01X3458Y5053D01*
G01X3477Y5060D01*
G01X3495Y5069D01*
G01X3512Y5080D01*
G01X3528Y5092D01*
G01X3543Y5105D01*
G01X3557Y5120D01*
G01X3570Y5136D01*
G01X3581Y5154D01*
G01X3592Y5173D01*
G01X3602Y5193D01*
G01X3610Y5215D01*
G01X3616Y5238D01*
G01X3622Y5262D01*
G01X3625Y5288D01*
G01X3628Y5315D01*
G01X3628Y5370D01*
G01X3625Y5397D01*
G01X3621Y5422D01*
G01X3616Y5446D01*
G01X3609Y5469D01*
G01X3601Y5491D01*
G01X3592Y5511D01*
G01X3581Y5530D01*
G01X3569Y5548D01*
G01X3556Y5565D01*
G01X3541Y5580D01*
G01X3526Y5593D01*
G01X3510Y5605D01*
G01X3474Y5625D01*
G01X3455Y5632D01*
G01X3435Y5638D01*
G01X3415Y5642D01*
G01X3393Y5645D01*
G37*

%LPD*%
G36*
G01X3927Y5644D02*
G01X3902Y5646D01*
G01X3876Y5644D01*
G01X3851Y5640D01*
G01X3827Y5634D01*
G01X3805Y5625D01*
G01X3785Y5615D01*
G01X3765Y5603D01*
G01X3747Y5589D01*
G01X3731Y5573D01*
G01X3767Y5532D01*
G01X3780Y5544D01*
G01X3795Y5555D01*
G01X3810Y5564D01*
G01X3827Y5572D01*
G01X3844Y5579D01*
G01X3862Y5584D01*
G01X3881Y5586D01*
G01X3902Y5588D01*
G01X3926Y5586D01*
G01X3948Y5581D01*
G01X3968Y5573D01*
G01X3984Y5563D01*
G01X3997Y5550D01*
G01X4007Y5535D01*
G01X4013Y5517D01*
G01X4015Y5498D01*
G01X4013Y5477D01*
G01X4006Y5459D01*
G01X3996Y5444D01*
G01X3983Y5432D01*
G01X3968Y5421D01*
G01X3952Y5411D01*
G01X3935Y5403D01*
G01X3918Y5396D01*
G01X3832Y5359D01*
G01X3808Y5348D01*
G01X3785Y5335D01*
G01X3765Y5320D01*
G01X3747Y5303D01*
G01X3732Y5284D01*
G01X3721Y5261D01*
G01X3714Y5234D01*
G01X3711Y5203D01*
G01X3713Y5181D01*
G01X3718Y5159D01*
G01X3725Y5139D01*
G01X3736Y5120D01*
G01X3749Y5103D01*
G01X3764Y5087D01*
G01X3783Y5073D01*
G01X3803Y5061D01*
G01X3826Y5052D01*
G01X3851Y5045D01*
G01X3878Y5041D01*
G01X3907Y5040D01*
G01X3938Y5041D01*
G01X3968Y5046D01*
G01X3996Y5053D01*
G01X4022Y5063D01*
G01X4047Y5075D01*
G01X4070Y5090D01*
G01X4092Y5107D01*
G01X4111Y5126D01*
G01X4072Y5171D01*
G01X4055Y5155D01*
G01X4036Y5141D01*
G01X4017Y5128D01*
G01X3997Y5118D01*
G01X3975Y5109D01*
G01X3953Y5103D01*
G01X3931Y5099D01*
G01X3907Y5098D01*
G01X3879Y5099D01*
G01X3853Y5105D01*
G01X3831Y5114D01*
G01X3813Y5126D01*
G01X3798Y5140D01*
G01X3788Y5157D01*
G01X3781Y5177D01*
G01X3778Y5198D01*
G01X3781Y5220D01*
G01X3786Y5238D01*
G01X3795Y5254D01*
G01X3807Y5267D01*
G01X3822Y5278D01*
G01X3839Y5288D01*
G01X3858Y5297D01*
G01X3878Y5307D01*
G01X3964Y5344D01*
G01X3984Y5353D01*
G01X4005Y5365D01*
G01X4025Y5379D01*
G01X4043Y5395D01*
G01X4059Y5414D01*
G01X4072Y5437D01*
G01X4080Y5463D01*
G01X4082Y5492D01*
G01X4081Y5514D01*
G01X4076Y5535D01*
G01X4069Y5554D01*
G01X4059Y5572D01*
G01X4046Y5588D01*
G01X4031Y5602D01*
G01X4014Y5615D01*
G01X3995Y5626D01*
G01X3974Y5634D01*
G01X3951Y5640D01*
G01X3927Y5644D01*
G37*

%LPD*%

%LPD*%
G36*
G01X4625Y5636D02*
G01X4557Y5636D01*
G01X4744Y5050D01*
G01X4821Y5050D01*
G01X5009Y5636D01*
G01X4939Y5636D01*
G01X4840Y5311D01*
G01X4833Y5286D01*
G01X4819Y5238D01*
G01X4812Y5215D01*
G01X4806Y5192D01*
G01X4792Y5144D01*
G01X4784Y5119D01*
G01X4780Y5119D01*
G01X4772Y5144D01*
G01X4764Y5168D01*
G01X4757Y5192D01*
G01X4751Y5215D01*
G01X4744Y5238D01*
G01X4730Y5286D01*
G01X4722Y5311D01*
G01X4625Y5636D01*
G37*

%LPD*%
G36*
G01X4374Y5644D02*
G01X4350Y5646D01*
G01X4326Y5644D01*
G01X4304Y5641D01*
G01X4283Y5636D01*
G01X4264Y5628D01*
G01X4246Y5619D01*
G01X4231Y5607D01*
G01X4217Y5594D01*
G01X4205Y5579D01*
G01X4196Y5562D01*
G01X4189Y5543D01*
G01X4185Y5523D01*
G01X4184Y5501D01*
G01X4185Y5474D01*
G01X4191Y5451D01*
G01X4200Y5429D01*
G01X4212Y5410D01*
G01X4227Y5394D01*
G01X4245Y5380D01*
G01X4265Y5368D01*
G01X4288Y5359D01*
G01X4288Y5355D01*
G01X4263Y5348D01*
G01X4239Y5337D01*
G01X4218Y5322D01*
G01X4200Y5305D01*
G01X4185Y5284D01*
G01X4173Y5261D01*
G01X4166Y5234D01*
G01X4164Y5205D01*
G01X4165Y5180D01*
G01X4170Y5157D01*
G01X4178Y5136D01*
G01X4188Y5116D01*
G01X4202Y5099D01*
G01X4217Y5084D01*
G01X4235Y5070D01*
G01X4254Y5059D01*
G01X4275Y5051D01*
G01X4298Y5044D01*
G01X4322Y5041D01*
G01X4347Y5040D01*
G01X4380Y5041D01*
G01X4410Y5046D01*
G01X4436Y5054D01*
G01X4460Y5064D01*
G01X4482Y5076D01*
G01X4501Y5090D01*
G01X4518Y5104D01*
G01X4532Y5119D01*
G01X4500Y5161D01*
G01X4486Y5148D01*
G01X4471Y5136D01*
G01X4456Y5125D01*
G01X4438Y5114D01*
G01X4419Y5106D01*
G01X4399Y5099D01*
G01X4376Y5095D01*
G01X4352Y5094D01*
G01X4326Y5096D01*
G01X4302Y5101D01*
G01X4281Y5111D01*
G01X4263Y5124D01*
G01X4248Y5141D01*
G01X4238Y5160D01*
G01X4231Y5182D01*
G01X4228Y5207D01*
G01X4230Y5225D01*
G01X4233Y5242D01*
G01X4239Y5257D01*
G01X4247Y5271D01*
G01X4257Y5284D01*
G01X4271Y5295D01*
G01X4287Y5305D01*
G01X4306Y5313D01*
G01X4328Y5320D01*
G01X4353Y5325D01*
G01X4382Y5328D01*
G01X4414Y5328D01*
G01X4414Y5380D01*
G01X4385Y5380D01*
G01X4360Y5384D01*
G01X4337Y5388D01*
G01X4317Y5395D01*
G01X4300Y5403D01*
G01X4286Y5413D01*
G01X4274Y5424D01*
G01X4265Y5436D01*
G01X4258Y5450D01*
G01X4253Y5464D01*
G01X4250Y5480D01*
G01X4250Y5496D01*
G01X4251Y5516D01*
G01X4256Y5535D01*
G01X4265Y5551D01*
G01X4277Y5565D01*
G01X4292Y5577D01*
G01X4309Y5585D01*
G01X4329Y5590D01*
G01X4352Y5592D01*
G01X4386Y5588D01*
G01X4419Y5576D01*
G01X4449Y5557D01*
G01X4476Y5534D01*
G01X4511Y5576D01*
G01X4495Y5591D01*
G01X4477Y5604D01*
G01X4459Y5615D01*
G01X4439Y5626D01*
G01X4418Y5634D01*
G01X4397Y5640D01*
G01X4374Y5644D01*
G37*

%LPD*%
G36*
G01X5267Y5644D02*
G01X5243Y5646D01*
G01X5219Y5644D01*
G01X5197Y5641D01*
G01X5176Y5636D01*
G01X5156Y5628D01*
G01X5139Y5619D01*
G01X5123Y5607D01*
G01X5109Y5594D01*
G01X5097Y5579D01*
G01X5088Y5562D01*
G01X5081Y5543D01*
G01X5077Y5523D01*
G01X5076Y5501D01*
G01X5077Y5474D01*
G01X5083Y5451D01*
G01X5092Y5429D01*
G01X5105Y5410D01*
G01X5120Y5394D01*
G01X5138Y5380D01*
G01X5158Y5368D01*
G01X5181Y5359D01*
G01X5181Y5355D01*
G01X5155Y5348D01*
G01X5132Y5337D01*
G01X5111Y5322D01*
G01X5092Y5305D01*
G01X5077Y5284D01*
G01X5065Y5261D01*
G01X5058Y5234D01*
G01X5056Y5205D01*
G01X5057Y5180D01*
G01X5062Y5157D01*
G01X5070Y5136D01*
G01X5081Y5116D01*
G01X5094Y5099D01*
G01X5109Y5084D01*
G01X5127Y5070D01*
G01X5147Y5059D01*
G01X5168Y5051D01*
G01X5190Y5044D01*
G01X5214Y5041D01*
G01X5239Y5040D01*
G01X5272Y5041D01*
G01X5302Y5046D01*
G01X5329Y5054D01*
G01X5353Y5064D01*
G01X5374Y5076D01*
G01X5393Y5090D01*
G01X5410Y5104D01*
G01X5426Y5119D01*
G01X5392Y5161D01*
G01X5378Y5148D01*
G01X5364Y5136D01*
G01X5348Y5125D01*
G01X5331Y5114D01*
G01X5312Y5106D01*
G01X5291Y5099D01*
G01X5268Y5095D01*
G01X5243Y5094D01*
G01X5218Y5096D01*
G01X5194Y5101D01*
G01X5174Y5111D01*
G01X5156Y5124D01*
G01X5141Y5141D01*
G01X5131Y5160D01*
G01X5124Y5182D01*
G01X5122Y5207D01*
G01X5122Y5225D01*
G01X5126Y5242D01*
G01X5131Y5257D01*
G01X5139Y5271D01*
G01X5150Y5284D01*
G01X5164Y5295D01*
G01X5180Y5305D01*
G01X5199Y5313D01*
G01X5221Y5320D01*
G01X5247Y5325D01*
G01X5275Y5328D01*
G01X5307Y5328D01*
G01X5307Y5380D01*
G01X5278Y5380D01*
G01X5252Y5384D01*
G01X5230Y5388D01*
G01X5210Y5395D01*
G01X5193Y5403D01*
G01X5179Y5413D01*
G01X5167Y5424D01*
G01X5158Y5436D01*
G01X5151Y5450D01*
G01X5146Y5464D01*
G01X5143Y5480D01*
G01X5143Y5496D01*
G01X5144Y5516D01*
G01X5150Y5535D01*
G01X5158Y5551D01*
G01X5170Y5565D01*
G01X5185Y5577D01*
G01X5202Y5585D01*
G01X5222Y5590D01*
G01X5244Y5592D01*
G01X5280Y5588D01*
G01X5312Y5576D01*
G01X5342Y5557D01*
G01X5368Y5534D01*
G01X5403Y5576D01*
G01X5387Y5591D01*
G01X5370Y5604D01*
G01X5332Y5626D01*
G01X5311Y5634D01*
G01X5290Y5640D01*
G01X5267Y5644D01*
G37*

%LPD*%

%LPD*%
G36*
G01X6385Y5636D02*
G01X6311Y5636D01*
G01X6110Y5050D01*
G01X6181Y5050D01*
G01X6239Y5234D01*
G01X6457Y5234D01*
G01X6518Y5050D01*
G01X6585Y5050D01*
G01X6385Y5636D01*
G37*

%LPC*%
G36*
G01X6351Y5580D02*
G01X6347Y5580D01*
G01X6340Y5554D01*
G01X6326Y5504D01*
G01X6318Y5480D01*
G01X6311Y5455D01*
G01X6303Y5431D01*
G01X6295Y5406D01*
G01X6286Y5382D01*
G01X6256Y5286D01*
G01X6442Y5286D01*
G01X6410Y5382D01*
G01X6403Y5406D01*
G01X6395Y5430D01*
G01X6380Y5479D01*
G01X6372Y5504D01*
G01X6358Y5554D01*
G01X6351Y5580D01*
G37*

%LPD*%
G36*
G01X7044Y5636D02*
G01X6901Y5636D01*
G01X6874Y5635D01*
G01X6849Y5632D01*
G01X6825Y5628D01*
G01X6803Y5623D01*
G01X6782Y5616D01*
G01X6762Y5607D01*
G01X6743Y5598D01*
G01X6726Y5586D01*
G01X6710Y5573D01*
G01X6696Y5559D01*
G01X6683Y5543D01*
G01X6671Y5526D01*
G01X6661Y5508D01*
G01X6652Y5488D01*
G01X6644Y5467D01*
G01X6638Y5446D01*
G01X6633Y5422D01*
G01X6629Y5397D01*
G01X6627Y5371D01*
G01X6627Y5317D01*
G01X6629Y5292D01*
G01X6633Y5267D01*
G01X6638Y5243D01*
G01X6644Y5221D01*
G01X6652Y5200D01*
G01X6660Y5180D01*
G01X6671Y5161D01*
G01X6683Y5144D01*
G01X6696Y5128D01*
G01X6710Y5113D01*
G01X6726Y5100D01*
G01X6743Y5089D01*
G01X6761Y5078D01*
G01X6781Y5070D01*
G01X6801Y5063D01*
G01X6823Y5057D01*
G01X6847Y5053D01*
G01X6872Y5050D01*
G01X7044Y5050D01*
G01X7044Y5636D01*
G37*

%LPC*%
G36*
G01X6977Y5580D02*
G01X6880Y5580D01*
G01X6856Y5576D01*
G01X6833Y5571D01*
G01X6813Y5565D01*
G01X6794Y5556D01*
G01X6776Y5545D01*
G01X6761Y5533D01*
G01X6747Y5519D01*
G01X6735Y5503D01*
G01X6724Y5485D01*
G01X6715Y5466D01*
G01X6707Y5445D01*
G01X6702Y5422D01*
G01X6698Y5398D01*
G01X6695Y5372D01*
G01X6694Y5344D01*
G01X6695Y5317D01*
G01X6698Y5291D01*
G01X6702Y5267D01*
G01X6707Y5244D01*
G01X6715Y5223D01*
G01X6724Y5203D01*
G01X6735Y5184D01*
G01X6747Y5168D01*
G01X6761Y5153D01*
G01X6776Y5140D01*
G01X6794Y5129D01*
G01X6813Y5120D01*
G01X6833Y5113D01*
G01X6856Y5108D01*
G01X6880Y5105D01*
G01X6906Y5103D01*
G01X6977Y5103D01*
G01X6977Y5580D01*
G37*

%LPD*%
G36*
G01X7377Y5644D02*
G01X7352Y5646D01*
G01X7326Y5644D01*
G01X7301Y5640D01*
G01X7277Y5634D01*
G01X7255Y5625D01*
G01X7235Y5615D01*
G01X7215Y5603D01*
G01X7197Y5589D01*
G01X7181Y5573D01*
G01X7217Y5532D01*
G01X7230Y5544D01*
G01X7245Y5555D01*
G01X7260Y5564D01*
G01X7277Y5572D01*
G01X7294Y5579D01*
G01X7312Y5584D01*
G01X7331Y5586D01*
G01X7352Y5588D01*
G01X7376Y5586D01*
G01X7398Y5581D01*
G01X7418Y5573D01*
G01X7434Y5563D01*
G01X7447Y5550D01*
G01X7457Y5535D01*
G01X7463Y5517D01*
G01X7465Y5498D01*
G01X7463Y5477D01*
G01X7456Y5459D01*
G01X7446Y5444D01*
G01X7433Y5432D01*
G01X7418Y5421D01*
G01X7402Y5411D01*
G01X7385Y5403D01*
G01X7368Y5396D01*
G01X7282Y5359D01*
G01X7258Y5348D01*
G01X7235Y5335D01*
G01X7215Y5320D01*
G01X7197Y5303D01*
G01X7182Y5284D01*
G01X7171Y5261D01*
G01X7164Y5234D01*
G01X7161Y5203D01*
G01X7163Y5181D01*
G01X7168Y5159D01*
G01X7175Y5139D01*
G01X7186Y5120D01*
G01X7199Y5103D01*
G01X7214Y5087D01*
G01X7233Y5073D01*
G01X7253Y5061D01*
G01X7276Y5052D01*
G01X7301Y5045D01*
G01X7328Y5041D01*
G01X7357Y5040D01*
G01X7388Y5041D01*
G01X7418Y5046D01*
G01X7446Y5053D01*
G01X7472Y5063D01*
G01X7497Y5075D01*
G01X7520Y5090D01*
G01X7542Y5107D01*
G01X7561Y5126D01*
G01X7522Y5171D01*
G01X7505Y5155D01*
G01X7486Y5141D01*
G01X7467Y5128D01*
G01X7447Y5118D01*
G01X7425Y5109D01*
G01X7403Y5103D01*
G01X7381Y5099D01*
G01X7357Y5098D01*
G01X7329Y5099D01*
G01X7303Y5105D01*
G01X7281Y5114D01*
G01X7263Y5126D01*
G01X7248Y5140D01*
G01X7238Y5157D01*
G01X7231Y5177D01*
G01X7228Y5198D01*
G01X7231Y5220D01*
G01X7236Y5238D01*
G01X7245Y5254D01*
G01X7257Y5267D01*
G01X7272Y5278D01*
G01X7289Y5288D01*
G01X7308Y5297D01*
G01X7328Y5307D01*
G01X7414Y5344D01*
G01X7434Y5353D01*
G01X7455Y5365D01*
G01X7475Y5379D01*
G01X7493Y5395D01*
G01X7509Y5414D01*
G01X7522Y5437D01*
G01X7530Y5463D01*
G01X7532Y5492D01*
G01X7531Y5514D01*
G01X7526Y5535D01*
G01X7519Y5554D01*
G01X7509Y5572D01*
G01X7496Y5588D01*
G01X7481Y5602D01*
G01X7464Y5615D01*
G01X7445Y5626D01*
G01X7424Y5634D01*
G01X7401Y5640D01*
G01X7377Y5644D01*
G37*

%LPD*%

%LPD*%
G36*
G01X5759Y5645D02*
G01X5736Y5646D01*
G01X5707Y5644D01*
G01X5681Y5639D01*
G01X5657Y5632D01*
G01X5635Y5623D01*
G01X5616Y5612D01*
G01X5599Y5600D01*
G01X5583Y5587D01*
G01X5569Y5575D01*
G01X5606Y5532D01*
G01X5630Y5553D01*
G01X5659Y5571D01*
G01X5694Y5583D01*
G01X5735Y5588D01*
G01X5758Y5586D01*
G01X5779Y5583D01*
G01X5799Y5578D01*
G01X5818Y5571D01*
G01X5835Y5561D01*
G01X5852Y5550D01*
G01X5867Y5537D01*
G01X5880Y5522D01*
G01X5893Y5505D01*
G01X5903Y5487D01*
G01X5913Y5467D01*
G01X5920Y5445D01*
G01X5927Y5422D01*
G01X5931Y5397D01*
G01X5934Y5371D01*
G01X5935Y5344D01*
G01X5934Y5316D01*
G01X5931Y5290D01*
G01X5927Y5265D01*
G01X5921Y5241D01*
G01X5914Y5220D01*
G01X5905Y5199D01*
G01X5895Y5181D01*
G01X5883Y5164D01*
G01X5869Y5149D01*
G01X5854Y5136D01*
G01X5838Y5124D01*
G01X5820Y5115D01*
G01X5801Y5107D01*
G01X5781Y5102D01*
G01X5759Y5099D01*
G01X5735Y5098D01*
G01X5703Y5100D01*
G01X5672Y5107D01*
G01X5645Y5119D01*
G01X5623Y5134D01*
G01X5623Y5294D01*
G01X5752Y5294D01*
G01X5752Y5350D01*
G01X5563Y5350D01*
G01X5563Y5107D01*
G01X5578Y5092D01*
G01X5595Y5080D01*
G01X5615Y5068D01*
G01X5637Y5058D01*
G01X5660Y5050D01*
G01X5686Y5044D01*
G01X5713Y5041D01*
G01X5742Y5040D01*
G01X5764Y5040D01*
G01X5786Y5043D01*
G01X5807Y5047D01*
G01X5827Y5053D01*
G01X5847Y5060D01*
G01X5865Y5069D01*
G01X5883Y5079D01*
G01X5899Y5091D01*
G01X5915Y5105D01*
G01X5929Y5120D01*
G01X5943Y5136D01*
G01X5955Y5154D01*
G01X5966Y5173D01*
G01X5975Y5193D01*
G01X5983Y5215D01*
G01X5990Y5238D01*
G01X5995Y5262D01*
G01X5999Y5288D01*
G01X6002Y5315D01*
G01X6002Y5370D01*
G01X5999Y5397D01*
G01X5995Y5422D01*
G01X5990Y5446D01*
G01X5983Y5469D01*
G01X5974Y5491D01*
G01X5965Y5511D01*
G01X5954Y5530D01*
G01X5941Y5548D01*
G01X5928Y5565D01*
G01X5913Y5579D01*
G01X5897Y5593D01*
G01X5880Y5605D01*
G01X5862Y5616D01*
G01X5843Y5625D01*
G01X5824Y5632D01*
G01X5803Y5638D01*
G01X5782Y5642D01*
G01X5759Y5645D01*
G37*

%LPD*%
M00*
M02*
