G04 Layer: TopLayer*
G04 EasyEDA v6.3.22, 2020-01-02T15:01:47+01:00*
G04 c4e2bc18f26c4d9383367568540c3147,ba5f4a7848fa453cbffb73795f9272bb,10*
G04 Gerber Generator version 0.2*
G04 Scale: 100 percent, Rotated: No, Reflected: No *
G04 Dimensions in inches *
G04 leading zeros omitted , absolute positions ,2 integer and 4 decimal *
%FSLAX24Y24*%
%MOIN*%
G90*
G70D02*

%ADD10C,0.010000*%
%ADD11C,0.070866*%
%ADD12R,0.070866X0.070866*%
%ADD13C,0.060000*%

%LPD*%
G54D10*
G01X4014Y6250D02*
G01X4014Y6483D01*
G01X4731Y7200D01*
G01X10500Y7200D01*
G01X3550Y6250D02*
G01X4015Y6250D01*
G01X10500Y6200D02*
G01X9965Y6734D01*
G01X5033Y6734D01*
G01X4550Y6250D01*
G01X4550Y3250D02*
G01X4084Y2784D01*
G01X1865Y2784D01*
G01X1400Y3250D01*
G01X10500Y5200D02*
G01X7600Y5200D01*
G01X6550Y6250D01*
G01X6550Y6250D02*
G01X4550Y4250D01*
G01X1400Y4250D01*
G01X10500Y4200D02*
G01X6500Y4200D01*
G01X5550Y3250D01*
G01X5550Y6250D02*
G01X4550Y5250D01*
G01X1400Y5250D01*
G01X5550Y6250D02*
G01X4550Y5250D01*
G01X1300Y5250D01*
G54D11*
G01X1400Y7250D03*
G01X1400Y6250D03*
G01X1400Y5250D03*
G01X1400Y4250D03*
G01X1400Y3250D03*
G54D12*
G01X1400Y2250D03*
G54D11*
G01X8550Y3250D03*
G01X7550Y3250D03*
G01X6550Y3250D03*
G01X5550Y3250D03*
G01X4550Y3250D03*
G54D12*
G01X3550Y3250D03*
G54D11*
G01X10500Y2200D03*
G01X10500Y3200D03*
G01X10500Y4200D03*
G01X10500Y5200D03*
G01X10500Y6200D03*
G54D12*
G01X10500Y7200D03*
G54D11*
G01X8550Y6250D03*
G01X7550Y6250D03*
G01X6550Y6250D03*
G01X5550Y6250D03*
G01X4550Y6250D03*
G54D12*
G01X3550Y6250D03*
G54D13*
G01X9500Y950D03*
G01X8500Y950D03*
G01X7500Y950D03*
G01X6500Y950D03*
G01X5500Y950D03*
G01X4500Y950D03*
G01X3500Y950D03*
G01X2500Y950D03*
M00*
M02*
