;Layer: Drill PTH
;EasyEDA v6.3.22, 2020-01-03T19:35:36+01:00
;9f626787e5d5468d8dcfaf528492fa1b,ba5f4a7848fa453cbffb73795f9272bb,10
;Gerber Generator version 0.2
M48
INCH,LZ,00.0000
;Holesize 1 = 0.039 INCH
T01C0.039
;Holesize 2 = 0.047 INCH
T02C0.047
%
G05
G90
T01
X+008750Y+000900
X+007750Y+000900
X+006750Y+000900
X+005750Y+000900
X+004750Y+000900
X+003750Y+000900
X+002750Y+000900
X+001750Y+000900
T02
X+003800Y+002900
X+004800Y+002900
X+005800Y+002900
X+006800Y+002900
X+006750Y+006350
X+005750Y+006350
X+004750Y+006350
X+003750Y+006350
X+001400Y+007950
X+001400Y+006950
X+001400Y+005950
X+001400Y+004950
X+001400Y+003950
X+001400Y+002950
X+007800Y+004300
X+006800Y+004300
X+005800Y+004300
X+004800Y+004300
X+003800Y+004300
X+002800Y+004300
X+002800Y+007750
X+003800Y+007750
X+004800Y+007750
X+005800Y+007750
X+006800Y+007750
X+007800Y+007750
X+009200Y+002950
X+009200Y+003950
X+009200Y+004950
X+009200Y+005950
X+009200Y+006950
X+009200Y+007950
M30
