;Layer: Drill PTH
;EasyEDA v6.3.22, 2020-01-02T15:01:47+01:00
;c4e2bc18f26c4d9383367568540c3147,ba5f4a7848fa453cbffb73795f9272bb,10
;Gerber Generator version 0.2
M48
INCH,LZ,00.0000
;Holesize 1 = 0.039 INCH
T01C0.039
;Holesize 2 = 0.047 INCH
T02C0.047
%
G05
G90
T01
X+009500Y+000950
X+008500Y+000950
X+007500Y+000950
X+006500Y+000950
X+005500Y+000950
X+004500Y+000950
X+003500Y+000950
X+002500Y+000950
T02
X+001400Y+007250
X+001400Y+006250
X+001400Y+005250
X+001400Y+004250
X+001400Y+003250
X+001400Y+002250
X+008550Y+003250
X+007550Y+003250
X+006550Y+003250
X+005550Y+003250
X+004550Y+003250
X+003550Y+003250
X+010500Y+002200
X+010500Y+003200
X+010500Y+004200
X+010500Y+005200
X+010500Y+006200
X+010500Y+007200
X+008550Y+006250
X+007550Y+006250
X+006550Y+006250
X+005550Y+006250
X+004550Y+006250
X+003550Y+006250
M30
