G04 Layer: BottomSilkLayer*
G04 EasyEDA v6.3.22, 2020-01-02T15:01:47+01:00*
G04 c4e2bc18f26c4d9383367568540c3147,ba5f4a7848fa453cbffb73795f9272bb,10*
G04 Gerber Generator version 0.2*
G04 Scale: 100 percent, Rotated: No, Reflected: No *
G04 Dimensions in inches *
G04 leading zeros omitted , absolute positions ,2 integer and 4 decimal *
%FSLAX24Y24*%
%MOIN*%
G90*
G70D02*


%LPD*%

%LPD*%
G36*
G01X4145Y7694D02*
G01X4103Y7698D01*
G01X4076Y7696D01*
G01X4051Y7692D01*
G01X4029Y7686D01*
G01X4010Y7678D01*
G01X3993Y7667D01*
G01X3979Y7654D01*
G01X3967Y7640D01*
G01X3957Y7623D01*
G01X3949Y7605D01*
G01X3944Y7586D01*
G01X3940Y7565D01*
G01X3940Y7524D01*
G01X3948Y7488D01*
G01X3956Y7469D01*
G01X3966Y7451D01*
G01X3978Y7431D01*
G01X3994Y7410D01*
G01X4012Y7387D01*
G01X4033Y7363D01*
G01X4057Y7336D01*
G01X4084Y7306D01*
G01X4115Y7273D01*
G01X4136Y7253D01*
G01X4160Y7227D01*
G01X4188Y7198D01*
G01X4219Y7167D01*
G01X3915Y7167D01*
G01X3915Y7100D01*
G01X4275Y7100D01*
G01X4275Y7153D01*
G01X4257Y7174D01*
G01X4239Y7194D01*
G01X4222Y7213D01*
G01X4205Y7233D01*
G01X4188Y7252D01*
G01X4172Y7270D01*
G01X4157Y7288D01*
G01X4142Y7305D01*
G01X4121Y7328D01*
G01X4103Y7351D01*
G01X4086Y7372D01*
G01X4071Y7393D01*
G01X4058Y7413D01*
G01X4047Y7432D01*
G01X4038Y7450D01*
G01X4030Y7468D01*
G01X4024Y7486D01*
G01X4020Y7503D01*
G01X4017Y7521D01*
G01X4017Y7538D01*
G01X4018Y7565D01*
G01X4024Y7590D01*
G01X4033Y7611D01*
G01X4045Y7629D01*
G01X4061Y7644D01*
G01X4079Y7655D01*
G01X4100Y7661D01*
G01X4123Y7663D01*
G01X4134Y7663D01*
G01X4145Y7662D01*
G01X4157Y7660D01*
G01X4171Y7657D01*
G01X4188Y7594D01*
G01X4197Y7568D01*
G01X4208Y7551D01*
G01X4221Y7542D01*
G01X4236Y7538D01*
G01X4249Y7540D01*
G01X4261Y7546D01*
G01X4271Y7555D01*
G01X4278Y7565D01*
G01X4274Y7586D01*
G01X4267Y7606D01*
G01X4258Y7623D01*
G01X4247Y7639D01*
G01X4234Y7653D01*
G01X4219Y7665D01*
G01X4202Y7675D01*
G01X4184Y7683D01*
G01X4165Y7689D01*
G01X4145Y7694D01*
G37*

%LPD*%
G36*
G01X5003Y7696D02*
G01X4981Y7698D01*
G01X4955Y7696D01*
G01X4930Y7692D01*
G01X4908Y7686D01*
G01X4889Y7678D01*
G01X4872Y7667D01*
G01X4857Y7654D01*
G01X4845Y7640D01*
G01X4835Y7623D01*
G01X4827Y7605D01*
G01X4822Y7586D01*
G01X4818Y7565D01*
G01X4818Y7524D01*
G01X4822Y7506D01*
G01X4827Y7488D01*
G01X4834Y7469D01*
G01X4844Y7451D01*
G01X4856Y7431D01*
G01X4872Y7410D01*
G01X4890Y7387D01*
G01X4911Y7363D01*
G01X4935Y7336D01*
G01X4963Y7306D01*
G01X4993Y7273D01*
G01X5014Y7253D01*
G01X5039Y7227D01*
G01X5067Y7198D01*
G01X5097Y7167D01*
G01X4793Y7167D01*
G01X4793Y7100D01*
G01X5153Y7100D01*
G01X5153Y7153D01*
G01X5135Y7174D01*
G01X5118Y7194D01*
G01X5100Y7213D01*
G01X5083Y7233D01*
G01X5067Y7252D01*
G01X5035Y7288D01*
G01X5021Y7305D01*
G01X5000Y7328D01*
G01X4981Y7351D01*
G01X4964Y7372D01*
G01X4950Y7393D01*
G01X4936Y7413D01*
G01X4925Y7432D01*
G01X4916Y7450D01*
G01X4908Y7468D01*
G01X4902Y7486D01*
G01X4898Y7503D01*
G01X4895Y7521D01*
G01X4894Y7538D01*
G01X4897Y7565D01*
G01X4902Y7590D01*
G01X4911Y7611D01*
G01X4924Y7629D01*
G01X4939Y7644D01*
G01X4957Y7655D01*
G01X4978Y7661D01*
G01X5002Y7663D01*
G01X5012Y7663D01*
G01X5023Y7662D01*
G01X5036Y7660D01*
G01X5050Y7657D01*
G01X5067Y7594D01*
G01X5076Y7568D01*
G01X5086Y7551D01*
G01X5099Y7542D01*
G01X5114Y7538D01*
G01X5128Y7540D01*
G01X5140Y7546D01*
G01X5150Y7555D01*
G01X5157Y7565D01*
G01X5153Y7586D01*
G01X5146Y7606D01*
G01X5137Y7623D01*
G01X5126Y7639D01*
G01X5113Y7653D01*
G01X5098Y7665D01*
G01X5081Y7675D01*
G01X5063Y7683D01*
G01X5044Y7689D01*
G01X5024Y7694D01*
G01X5003Y7696D01*
G37*

%LPD*%
G36*
G01X7348Y7525D02*
G01X7330Y7526D01*
G01X7310Y7524D01*
G01X7292Y7518D01*
G01X7277Y7507D01*
G01X7267Y7494D01*
G01X7269Y7469D01*
G01X7278Y7450D01*
G01X7294Y7438D01*
G01X7317Y7434D01*
G01X7331Y7435D01*
G01X7345Y7440D01*
G01X7358Y7448D01*
G01X7371Y7459D01*
G01X7381Y7469D01*
G01X7406Y7446D01*
G01X7427Y7420D01*
G01X7443Y7389D01*
G01X7457Y7353D01*
G01X7457Y7212D01*
G01X7456Y7173D01*
G01X7456Y7138D01*
G01X7382Y7126D01*
G01X7382Y7100D01*
G01X7596Y7100D01*
G01X7596Y7126D01*
G01X7531Y7136D01*
G01X7531Y7172D01*
G01X7530Y7211D01*
G01X7530Y7392D01*
G01X7531Y7419D01*
G01X7532Y7444D01*
G01X7602Y7451D01*
G01X7602Y7478D01*
G01X7478Y7526D01*
G01X7467Y7517D01*
G01X7457Y7413D01*
G01X7446Y7438D01*
G01X7432Y7461D01*
G01X7418Y7480D01*
G01X7401Y7496D01*
G01X7384Y7509D01*
G01X7366Y7519D01*
G01X7348Y7525D01*
G37*

%LPD*%
G36*
G01X3693Y7694D02*
G01X3657Y7698D01*
G01X3623Y7694D01*
G01X3607Y7688D01*
G01X3590Y7682D01*
G01X3575Y7672D01*
G01X3559Y7660D01*
G01X3545Y7646D01*
G01X3532Y7630D01*
G01X3520Y7611D01*
G01X3509Y7589D01*
G01X3499Y7564D01*
G01X3491Y7537D01*
G01X3484Y7507D01*
G01X3480Y7473D01*
G01X3476Y7437D01*
G01X3476Y7357D01*
G01X3480Y7319D01*
G01X3484Y7285D01*
G01X3491Y7253D01*
G01X3499Y7225D01*
G01X3509Y7200D01*
G01X3520Y7178D01*
G01X3532Y7158D01*
G01X3545Y7141D01*
G01X3559Y7126D01*
G01X3575Y7115D01*
G01X3590Y7105D01*
G01X3607Y7098D01*
G01X3623Y7092D01*
G01X3657Y7088D01*
G01X3693Y7092D01*
G01X3710Y7098D01*
G01X3726Y7105D01*
G01X3742Y7115D01*
G01X3758Y7126D01*
G01X3772Y7141D01*
G01X3786Y7158D01*
G01X3798Y7178D01*
G01X3809Y7200D01*
G01X3819Y7225D01*
G01X3827Y7253D01*
G01X3834Y7285D01*
G01X3838Y7319D01*
G01X3842Y7357D01*
G01X3842Y7437D01*
G01X3838Y7473D01*
G01X3834Y7507D01*
G01X3827Y7537D01*
G01X3819Y7564D01*
G01X3809Y7589D01*
G01X3798Y7611D01*
G01X3786Y7630D01*
G01X3772Y7646D01*
G01X3758Y7660D01*
G01X3742Y7672D01*
G01X3726Y7682D01*
G01X3710Y7688D01*
G01X3693Y7694D01*
G37*

%LPC*%
G36*
G01X3671Y7661D02*
G01X3657Y7663D01*
G01X3644Y7661D01*
G01X3631Y7657D01*
G01X3619Y7651D01*
G01X3607Y7640D01*
G01X3596Y7627D01*
G01X3586Y7609D01*
G01X3576Y7586D01*
G01X3569Y7559D01*
G01X3562Y7528D01*
G01X3557Y7490D01*
G01X3555Y7447D01*
G01X3553Y7398D01*
G01X3555Y7346D01*
G01X3557Y7301D01*
G01X3562Y7263D01*
G01X3569Y7229D01*
G01X3576Y7201D01*
G01X3586Y7178D01*
G01X3596Y7159D01*
G01X3607Y7145D01*
G01X3619Y7134D01*
G01X3631Y7127D01*
G01X3644Y7123D01*
G01X3657Y7121D01*
G01X3668Y7122D01*
G01X3678Y7124D01*
G01X3688Y7128D01*
G01X3698Y7134D01*
G01X3707Y7142D01*
G01X3716Y7151D01*
G01X3725Y7163D01*
G01X3732Y7177D01*
G01X3740Y7194D01*
G01X3746Y7214D01*
G01X3752Y7236D01*
G01X3757Y7262D01*
G01X3760Y7291D01*
G01X3763Y7323D01*
G01X3765Y7358D01*
G01X3765Y7447D01*
G01X3761Y7490D01*
G01X3757Y7528D01*
G01X3750Y7559D01*
G01X3742Y7586D01*
G01X3732Y7609D01*
G01X3722Y7627D01*
G01X3710Y7640D01*
G01X3698Y7651D01*
G01X3685Y7657D01*
G01X3671Y7661D01*
G37*

%LPD*%
G36*
G01X4554Y7696D02*
G01X4536Y7698D01*
G01X4502Y7694D01*
G01X4486Y7688D01*
G01X4469Y7682D01*
G01X4453Y7672D01*
G01X4438Y7660D01*
G01X4424Y7646D01*
G01X4411Y7630D01*
G01X4398Y7611D01*
G01X4387Y7589D01*
G01X4378Y7564D01*
G01X4369Y7537D01*
G01X4363Y7507D01*
G01X4357Y7473D01*
G01X4355Y7437D01*
G01X4353Y7398D01*
G01X4355Y7357D01*
G01X4357Y7319D01*
G01X4363Y7285D01*
G01X4369Y7253D01*
G01X4378Y7225D01*
G01X4387Y7200D01*
G01X4398Y7178D01*
G01X4411Y7158D01*
G01X4424Y7141D01*
G01X4438Y7126D01*
G01X4453Y7115D01*
G01X4469Y7105D01*
G01X4486Y7098D01*
G01X4502Y7092D01*
G01X4536Y7088D01*
G01X4554Y7090D01*
G01X4571Y7092D01*
G01X4588Y7098D01*
G01X4605Y7105D01*
G01X4621Y7115D01*
G01X4636Y7126D01*
G01X4651Y7141D01*
G01X4664Y7158D01*
G01X4677Y7178D01*
G01X4688Y7200D01*
G01X4697Y7225D01*
G01X4706Y7253D01*
G01X4713Y7285D01*
G01X4718Y7319D01*
G01X4721Y7357D01*
G01X4722Y7398D01*
G01X4721Y7437D01*
G01X4718Y7473D01*
G01X4713Y7507D01*
G01X4706Y7537D01*
G01X4697Y7564D01*
G01X4688Y7589D01*
G01X4677Y7611D01*
G01X4664Y7630D01*
G01X4651Y7646D01*
G01X4636Y7660D01*
G01X4621Y7672D01*
G01X4605Y7682D01*
G01X4571Y7694D01*
G01X4554Y7696D01*
G37*

%LPC*%
G36*
G01X4550Y7661D02*
G01X4536Y7663D01*
G01X4523Y7661D01*
G01X4510Y7657D01*
G01X4498Y7651D01*
G01X4486Y7640D01*
G01X4475Y7627D01*
G01X4464Y7609D01*
G01X4455Y7586D01*
G01X4448Y7559D01*
G01X4441Y7528D01*
G01X4436Y7490D01*
G01X4434Y7447D01*
G01X4432Y7398D01*
G01X4434Y7346D01*
G01X4436Y7301D01*
G01X4441Y7263D01*
G01X4448Y7229D01*
G01X4455Y7201D01*
G01X4464Y7178D01*
G01X4475Y7159D01*
G01X4486Y7145D01*
G01X4498Y7134D01*
G01X4510Y7127D01*
G01X4523Y7123D01*
G01X4536Y7121D01*
G01X4547Y7122D01*
G01X4557Y7124D01*
G01X4567Y7128D01*
G01X4577Y7134D01*
G01X4586Y7142D01*
G01X4595Y7151D01*
G01X4603Y7163D01*
G01X4611Y7177D01*
G01X4618Y7194D01*
G01X4625Y7214D01*
G01X4630Y7236D01*
G01X4635Y7262D01*
G01X4639Y7291D01*
G01X4641Y7323D01*
G01X4643Y7358D01*
G01X4643Y7447D01*
G01X4639Y7490D01*
G01X4635Y7528D01*
G01X4628Y7559D01*
G01X4620Y7586D01*
G01X4611Y7609D01*
G01X4601Y7627D01*
G01X4589Y7640D01*
G01X4577Y7651D01*
G01X4564Y7657D01*
G01X4550Y7661D01*
G37*

%LPD*%
G36*
G01X6143Y7524D02*
G01X6109Y7526D01*
G01X6075Y7524D01*
G01X6044Y7517D01*
G01X6014Y7506D01*
G01X5985Y7490D01*
G01X5989Y7401D01*
G01X6028Y7401D01*
G01X6046Y7476D01*
G01X6061Y7483D01*
G01X6076Y7488D01*
G01X6092Y7492D01*
G01X6109Y7492D01*
G01X6146Y7488D01*
G01X6172Y7475D01*
G01X6188Y7455D01*
G01X6193Y7428D01*
G01X6189Y7403D01*
G01X6175Y7383D01*
G01X6150Y7367D01*
G01X6113Y7351D01*
G01X6081Y7340D01*
G01X6052Y7328D01*
G01X6027Y7315D01*
G01X6006Y7301D01*
G01X5989Y7286D01*
G01X5977Y7270D01*
G01X5968Y7252D01*
G01X5963Y7234D01*
G01X5961Y7213D01*
G01X5963Y7197D01*
G01X5966Y7181D01*
G01X5972Y7165D01*
G01X5981Y7151D01*
G01X5992Y7138D01*
G01X6005Y7126D01*
G01X6020Y7115D01*
G01X6038Y7106D01*
G01X6058Y7098D01*
G01X6080Y7093D01*
G01X6105Y7090D01*
G01X6131Y7088D01*
G01X6167Y7090D01*
G01X6200Y7097D01*
G01X6232Y7107D01*
G01X6264Y7121D01*
G01X6265Y7217D01*
G01X6223Y7217D01*
G01X6205Y7136D01*
G01X6188Y7130D01*
G01X6171Y7125D01*
G01X6153Y7123D01*
G01X6132Y7121D01*
G01X6108Y7123D01*
G01X6088Y7127D01*
G01X6070Y7133D01*
G01X6056Y7141D01*
G01X6045Y7151D01*
G01X6038Y7164D01*
G01X6033Y7177D01*
G01X6031Y7192D01*
G01X6036Y7218D01*
G01X6051Y7238D01*
G01X6076Y7256D01*
G01X6114Y7273D01*
G01X6153Y7286D01*
G01X6177Y7295D01*
G01X6198Y7306D01*
G01X6216Y7318D01*
G01X6232Y7332D01*
G01X6244Y7347D01*
G01X6254Y7364D01*
G01X6260Y7383D01*
G01X6261Y7405D01*
G01X6259Y7428D01*
G01X6251Y7451D01*
G01X6239Y7472D01*
G01X6222Y7490D01*
G01X6200Y7505D01*
G01X6174Y7517D01*
G01X6143Y7524D01*
G37*

%LPD*%
G36*
G01X6534Y7526D02*
G01X6514Y7526D01*
G01X6490Y7525D01*
G01X6468Y7521D01*
G01X6448Y7515D01*
G01X6429Y7506D01*
G01X6411Y7495D01*
G01X6396Y7482D01*
G01X6382Y7466D01*
G01X6371Y7448D01*
G01X6362Y7429D01*
G01X6355Y7408D01*
G01X6351Y7384D01*
G01X6350Y7359D01*
G01X6350Y7345D01*
G01X6351Y7332D01*
G01X6353Y7321D01*
G01X6356Y7311D01*
G01X6638Y7311D01*
G01X6636Y7284D01*
G01X6632Y7258D01*
G01X6626Y7235D01*
G01X6618Y7215D01*
G01X6608Y7197D01*
G01X6596Y7181D01*
G01X6582Y7168D01*
G01X6567Y7157D01*
G01X6550Y7148D01*
G01X6532Y7142D01*
G01X6513Y7139D01*
G01X6492Y7138D01*
G01X6452Y7142D01*
G01X6420Y7155D01*
G01X6393Y7175D01*
G01X6368Y7201D01*
G01X6351Y7188D01*
G01X6364Y7167D01*
G01X6379Y7147D01*
G01X6397Y7130D01*
G01X6416Y7115D01*
G01X6438Y7104D01*
G01X6462Y7096D01*
G01X6488Y7090D01*
G01X6517Y7088D01*
G01X6559Y7092D01*
G01X6578Y7097D01*
G01X6597Y7103D01*
G01X6614Y7111D01*
G01X6630Y7121D01*
G01X6645Y7132D01*
G01X6659Y7145D01*
G01X6671Y7160D01*
G01X6682Y7176D01*
G01X6691Y7194D01*
G01X6699Y7213D01*
G01X6705Y7234D01*
G01X6710Y7256D01*
G01X6713Y7280D01*
G01X6714Y7305D01*
G01X6713Y7329D01*
G01X6709Y7353D01*
G01X6704Y7375D01*
G01X6697Y7396D01*
G01X6689Y7416D01*
G01X6679Y7434D01*
G01X6667Y7451D01*
G01X6654Y7466D01*
G01X6640Y7480D01*
G01X6624Y7492D01*
G01X6608Y7502D01*
G01X6590Y7511D01*
G01X6572Y7517D01*
G01X6553Y7523D01*
G01X6534Y7526D01*
G37*

%LPC*%
G36*
G01X6538Y7491D02*
G01X6518Y7494D01*
G01X6497Y7491D01*
G01X6478Y7485D01*
G01X6462Y7476D01*
G01X6448Y7463D01*
G01X6436Y7448D01*
G01X6428Y7430D01*
G01X6422Y7411D01*
G01X6421Y7392D01*
G01X6422Y7372D01*
G01X6430Y7356D01*
G01X6444Y7346D01*
G01X6468Y7342D01*
G01X6636Y7344D01*
G01X6631Y7381D01*
G01X6622Y7412D01*
G01X6609Y7437D01*
G01X6593Y7458D01*
G01X6576Y7474D01*
G01X6557Y7485D01*
G01X6538Y7491D01*
G37*

%LPD*%
G36*
G01X6969Y7507D02*
G01X6843Y7521D01*
G01X6835Y7513D01*
G01X6838Y7388D01*
G01X6838Y7136D01*
G01X6777Y7126D01*
G01X6777Y7100D01*
G01X6900Y7092D01*
G01X6907Y7171D01*
G01X6925Y7152D01*
G01X6943Y7135D01*
G01X6962Y7121D01*
G01X6982Y7109D01*
G01X7002Y7100D01*
G01X7022Y7094D01*
G01X7043Y7090D01*
G01X7064Y7088D01*
G01X7089Y7090D01*
G01X7111Y7097D01*
G01X7131Y7108D01*
G01X7147Y7124D01*
G01X7160Y7145D01*
G01X7170Y7173D01*
G01X7176Y7206D01*
G01X7177Y7246D01*
G01X7176Y7469D01*
G01X7239Y7482D01*
G01X7239Y7509D01*
G01X7110Y7521D01*
G01X7102Y7513D01*
G01X7106Y7388D01*
G01X7106Y7251D01*
G01X7104Y7223D01*
G01X7101Y7201D01*
G01X7095Y7183D01*
G01X7087Y7169D01*
G01X7077Y7158D01*
G01X7064Y7151D01*
G01X7050Y7147D01*
G01X7032Y7146D01*
G01X7001Y7149D01*
G01X6969Y7160D01*
G01X6939Y7178D01*
G01X6910Y7203D01*
G01X6907Y7469D01*
G01X6969Y7482D01*
G01X6969Y7507D01*
G37*

%LPD*%
G36*
G01X7855Y7507D02*
G01X7728Y7521D01*
G01X7721Y7513D01*
G01X7722Y7388D01*
G01X7722Y7136D01*
G01X7663Y7126D01*
G01X7663Y7100D01*
G01X7785Y7092D01*
G01X7793Y7171D01*
G01X7810Y7152D01*
G01X7828Y7135D01*
G01X7847Y7121D01*
G01X7867Y7109D01*
G01X7887Y7100D01*
G01X7907Y7094D01*
G01X7928Y7090D01*
G01X7948Y7088D01*
G01X7974Y7090D01*
G01X7997Y7097D01*
G01X8016Y7108D01*
G01X8032Y7124D01*
G01X8046Y7145D01*
G01X8055Y7173D01*
G01X8061Y7206D01*
G01X8063Y7246D01*
G01X8060Y7469D01*
G01X8123Y7482D01*
G01X8123Y7509D01*
G01X7994Y7521D01*
G01X7985Y7513D01*
G01X7989Y7388D01*
G01X7989Y7251D01*
G01X7988Y7223D01*
G01X7985Y7201D01*
G01X7979Y7183D01*
G01X7972Y7169D01*
G01X7961Y7158D01*
G01X7949Y7151D01*
G01X7934Y7147D01*
G01X7918Y7146D01*
G01X7886Y7149D01*
G01X7855Y7160D01*
G01X7824Y7178D01*
G01X7794Y7203D01*
G01X7793Y7469D01*
G01X7855Y7482D01*
G01X7855Y7507D01*
G37*

%LPD*%
G36*
G01X5535Y7667D02*
G01X5485Y7667D01*
G01X5460Y7664D01*
G01X5436Y7660D01*
G01X5414Y7654D01*
G01X5392Y7647D01*
G01X5372Y7638D01*
G01X5352Y7628D01*
G01X5335Y7616D01*
G01X5318Y7603D01*
G01X5303Y7588D01*
G01X5289Y7573D01*
G01X5276Y7556D01*
G01X5265Y7538D01*
G01X5255Y7519D01*
G01X5247Y7499D01*
G01X5240Y7478D01*
G01X5235Y7456D01*
G01X5231Y7434D01*
G01X5228Y7410D01*
G01X5227Y7386D01*
G01X5229Y7354D01*
G01X5233Y7325D01*
G01X5239Y7298D01*
G01X5247Y7274D01*
G01X5257Y7251D01*
G01X5268Y7231D01*
G01X5281Y7213D01*
G01X5295Y7197D01*
G01X5310Y7182D01*
G01X5326Y7170D01*
G01X5342Y7160D01*
G01X5358Y7152D01*
G01X5374Y7146D01*
G01X5390Y7141D01*
G01X5406Y7138D01*
G01X5421Y7138D01*
G01X5455Y7143D01*
G01X5482Y7158D01*
G01X5500Y7180D01*
G01X5510Y7209D01*
G01X5537Y7180D01*
G01X5567Y7157D01*
G01X5598Y7143D01*
G01X5631Y7138D01*
G01X5649Y7139D01*
G01X5666Y7144D01*
G01X5682Y7153D01*
G01X5696Y7165D01*
G01X5708Y7181D01*
G01X5717Y7201D01*
G01X5722Y7225D01*
G01X5725Y7253D01*
G01X5723Y7280D01*
G01X5719Y7306D01*
G01X5712Y7331D01*
G01X5703Y7355D01*
G01X5693Y7378D01*
G01X5681Y7400D01*
G01X5667Y7420D01*
G01X5652Y7438D01*
G01X5638Y7455D01*
G01X5622Y7470D01*
G01X5606Y7482D01*
G01X5590Y7493D01*
G01X5573Y7501D01*
G01X5556Y7507D01*
G01X5539Y7511D01*
G01X5522Y7513D01*
G01X5506Y7511D01*
G01X5492Y7507D01*
G01X5478Y7500D01*
G01X5464Y7488D01*
G01X5418Y7513D01*
G01X5402Y7501D01*
G01X5453Y7246D01*
G01X5456Y7214D01*
G01X5449Y7191D01*
G01X5432Y7177D01*
G01X5406Y7173D01*
G01X5391Y7174D01*
G01X5375Y7178D01*
G01X5359Y7186D01*
G01X5344Y7196D01*
G01X5329Y7209D01*
G01X5315Y7226D01*
G01X5302Y7245D01*
G01X5291Y7268D01*
G01X5281Y7294D01*
G01X5275Y7324D01*
G01X5270Y7357D01*
G01X5268Y7394D01*
G01X5270Y7421D01*
G01X5273Y7447D01*
G01X5279Y7472D01*
G01X5288Y7495D01*
G01X5297Y7517D01*
G01X5310Y7537D01*
G01X5324Y7555D01*
G01X5339Y7572D01*
G01X5357Y7587D01*
G01X5376Y7600D01*
G01X5396Y7611D01*
G01X5418Y7621D01*
G01X5441Y7628D01*
G01X5465Y7633D01*
G01X5490Y7636D01*
G01X5515Y7638D01*
G01X5540Y7637D01*
G01X5564Y7634D01*
G01X5588Y7630D01*
G01X5610Y7624D01*
G01X5632Y7617D01*
G01X5653Y7608D01*
G01X5673Y7598D01*
G01X5692Y7587D01*
G01X5710Y7575D01*
G01X5728Y7561D01*
G01X5744Y7546D01*
G01X5760Y7530D01*
G01X5774Y7514D01*
G01X5787Y7496D01*
G01X5799Y7478D01*
G01X5810Y7459D01*
G01X5820Y7439D01*
G01X5829Y7418D01*
G01X5836Y7397D01*
G01X5842Y7376D01*
G01X5847Y7353D01*
G01X5851Y7331D01*
G01X5853Y7309D01*
G01X5853Y7286D01*
G01X5852Y7257D01*
G01X5850Y7230D01*
G01X5845Y7204D01*
G01X5838Y7180D01*
G01X5830Y7157D01*
G01X5820Y7136D01*
G01X5809Y7116D01*
G01X5797Y7098D01*
G01X5782Y7081D01*
G01X5767Y7065D01*
G01X5751Y7052D01*
G01X5734Y7039D01*
G01X5715Y7028D01*
G01X5696Y7019D01*
G01X5676Y7011D01*
G01X5655Y7004D01*
G01X5633Y6999D01*
G01X5589Y6993D01*
G01X5565Y6992D01*
G01X5525Y6994D01*
G01X5488Y7000D01*
G01X5453Y7010D01*
G01X5422Y7023D01*
G01X5413Y7001D01*
G01X5432Y6992D01*
G01X5453Y6984D01*
G01X5474Y6978D01*
G01X5495Y6973D01*
G01X5517Y6969D01*
G01X5538Y6966D01*
G01X5560Y6964D01*
G01X5581Y6963D01*
G01X5602Y6964D01*
G01X5623Y6966D01*
G01X5665Y6972D01*
G01X5685Y6977D01*
G01X5704Y6983D01*
G01X5722Y6990D01*
G01X5758Y7008D01*
G01X5790Y7030D01*
G01X5805Y7042D01*
G01X5818Y7056D01*
G01X5831Y7071D01*
G01X5843Y7087D01*
G01X5854Y7104D01*
G01X5864Y7122D01*
G01X5872Y7141D01*
G01X5880Y7161D01*
G01X5886Y7182D01*
G01X5891Y7204D01*
G01X5895Y7228D01*
G01X5897Y7252D01*
G01X5897Y7301D01*
G01X5895Y7323D01*
G01X5892Y7346D01*
G01X5888Y7368D01*
G01X5876Y7410D01*
G01X5868Y7430D01*
G01X5859Y7450D01*
G01X5850Y7469D01*
G01X5839Y7488D01*
G01X5827Y7505D01*
G01X5814Y7523D01*
G01X5801Y7539D01*
G01X5787Y7554D01*
G01X5771Y7569D01*
G01X5755Y7583D01*
G01X5739Y7596D01*
G01X5703Y7618D01*
G01X5684Y7628D01*
G01X5664Y7637D01*
G01X5644Y7645D01*
G01X5623Y7652D01*
G01X5602Y7657D01*
G01X5580Y7662D01*
G01X5557Y7665D01*
G01X5535Y7667D01*
G37*

%LPC*%
G36*
G01X5547Y7473D02*
G01X5526Y7476D01*
G01X5512Y7475D01*
G01X5498Y7470D01*
G01X5486Y7461D01*
G01X5473Y7446D01*
G01X5514Y7230D01*
G01X5542Y7209D01*
G01X5565Y7194D01*
G01X5585Y7187D01*
G01X5605Y7184D01*
G01X5631Y7190D01*
G01X5650Y7206D01*
G01X5661Y7233D01*
G01X5665Y7271D01*
G01X5664Y7294D01*
G01X5661Y7315D01*
G01X5657Y7336D01*
G01X5651Y7356D01*
G01X5643Y7374D01*
G01X5634Y7392D01*
G01X5625Y7408D01*
G01X5614Y7423D01*
G01X5593Y7447D01*
G01X5570Y7464D01*
G01X5547Y7473D01*
G37*

%LPD*%
G36*
G01X8278Y7492D02*
G01X8178Y7526D01*
G01X8165Y7517D01*
G01X8165Y7465D01*
G01X8255Y7467D01*
G01X8245Y7450D01*
G01X8238Y7430D01*
G01X8233Y7408D01*
G01X8231Y7384D01*
G01X8233Y7361D01*
G01X8237Y7341D01*
G01X8243Y7322D01*
G01X8252Y7305D01*
G01X8263Y7290D01*
G01X8276Y7276D01*
G01X8291Y7265D01*
G01X8308Y7256D01*
G01X8326Y7248D01*
G01X8346Y7243D01*
G01X8367Y7240D01*
G01X8389Y7238D01*
G01X8408Y7239D01*
G01X8426Y7241D01*
G01X8442Y7245D01*
G01X8459Y7250D01*
G01X8469Y7235D01*
G01X8477Y7221D01*
G01X8481Y7207D01*
G01X8482Y7192D01*
G01X8480Y7175D01*
G01X8471Y7162D01*
G01X8454Y7154D01*
G01X8427Y7151D01*
G01X8310Y7151D01*
G01X8277Y7150D01*
G01X8248Y7144D01*
G01X8224Y7134D01*
G01X8204Y7122D01*
G01X8189Y7106D01*
G01X8178Y7087D01*
G01X8172Y7065D01*
G01X8169Y7040D01*
G01X8171Y7021D01*
G01X8176Y7003D01*
G01X8183Y6985D01*
G01X8194Y6967D01*
G01X8207Y6951D01*
G01X8224Y6936D01*
G01X8243Y6923D01*
G01X8266Y6912D01*
G01X8292Y6903D01*
G01X8320Y6896D01*
G01X8351Y6891D01*
G01X8385Y6890D01*
G01X8416Y6890D01*
G01X8443Y6893D01*
G01X8468Y6898D01*
G01X8490Y6903D01*
G01X8509Y6911D01*
G01X8525Y6920D01*
G01X8539Y6930D01*
G01X8550Y6942D01*
G01X8558Y6954D01*
G01X8564Y6968D01*
G01X8567Y6982D01*
G01X8568Y6998D01*
G01X8564Y7025D01*
G01X8549Y7049D01*
G01X8523Y7073D01*
G01X8484Y7094D01*
G01X8507Y7105D01*
G01X8526Y7120D01*
G01X8537Y7139D01*
G01X8540Y7163D01*
G01X8537Y7184D01*
G01X8527Y7206D01*
G01X8509Y7231D01*
G01X8481Y7259D01*
G01X8495Y7269D01*
G01X8508Y7280D01*
G01X8520Y7293D01*
G01X8529Y7308D01*
G01X8537Y7325D01*
G01X8543Y7342D01*
G01X8546Y7362D01*
G01X8547Y7384D01*
G01X8546Y7405D01*
G01X8542Y7426D01*
G01X8536Y7444D01*
G01X8527Y7461D01*
G01X8516Y7476D01*
G01X8503Y7489D01*
G01X8488Y7500D01*
G01X8471Y7510D01*
G01X8453Y7517D01*
G01X8433Y7522D01*
G01X8412Y7526D01*
G01X8389Y7526D01*
G01X8357Y7525D01*
G01X8327Y7518D01*
G01X8301Y7507D01*
G01X8278Y7492D01*
G37*

%LPC*%
G36*
G01X8409Y7494D02*
G01X8389Y7496D01*
G01X8369Y7494D01*
G01X8352Y7488D01*
G01X8337Y7478D01*
G01X8324Y7465D01*
G01X8314Y7449D01*
G01X8307Y7430D01*
G01X8303Y7409D01*
G01X8302Y7386D01*
G01X8303Y7361D01*
G01X8307Y7338D01*
G01X8315Y7319D01*
G01X8325Y7301D01*
G01X8338Y7288D01*
G01X8353Y7277D01*
G01X8371Y7271D01*
G01X8392Y7269D01*
G01X8411Y7271D01*
G01X8428Y7277D01*
G01X8443Y7286D01*
G01X8455Y7300D01*
G01X8465Y7316D01*
G01X8472Y7336D01*
G01X8477Y7358D01*
G01X8478Y7382D01*
G01X8477Y7407D01*
G01X8472Y7428D01*
G01X8465Y7448D01*
G01X8455Y7465D01*
G01X8442Y7478D01*
G01X8426Y7488D01*
G01X8409Y7494D01*
G37*
G36*
G01X8481Y7070D02*
G01X8464Y7090D01*
G01X8455Y7089D01*
G01X8445Y7088D01*
G01X8321Y7088D01*
G01X8280Y7082D01*
G01X8253Y7067D01*
G01X8238Y7045D01*
G01X8234Y7017D01*
G01X8236Y6999D01*
G01X8243Y6981D01*
G01X8255Y6965D01*
G01X8272Y6952D01*
G01X8293Y6941D01*
G01X8319Y6932D01*
G01X8350Y6927D01*
G01X8385Y6926D01*
G01X8410Y6927D01*
G01X8432Y6930D01*
G01X8452Y6937D01*
G01X8469Y6946D01*
G01X8482Y6957D01*
G01X8492Y6972D01*
G01X8498Y6989D01*
G01X8501Y7009D01*
G01X8498Y7032D01*
G01X8492Y7051D01*
G01X8481Y7070D01*
G37*

%LPD*%

%LPD*%
G36*
G01X4242Y5586D02*
G01X4040Y5586D01*
G01X4040Y5555D01*
G01X4123Y5546D01*
G01X4273Y5365D01*
G01X4092Y5038D01*
G01X4023Y5030D01*
G01X4023Y5000D01*
G01X4248Y5000D01*
G01X4248Y5030D01*
G01X4176Y5038D01*
G01X4319Y5307D01*
G01X4407Y5203D01*
G01X4407Y5082D01*
G01X4405Y5040D01*
G01X4323Y5030D01*
G01X4323Y5000D01*
G01X4567Y5000D01*
G01X4567Y5030D01*
G01X4486Y5038D01*
G01X4486Y5067D01*
G01X4485Y5096D01*
G01X4485Y5183D01*
G01X4484Y5212D01*
G01X4484Y5373D01*
G01X4485Y5402D01*
G01X4485Y5489D01*
G01X4486Y5518D01*
G01X4486Y5546D01*
G01X4567Y5555D01*
G01X4567Y5586D01*
G01X4323Y5586D01*
G01X4323Y5555D01*
G01X4405Y5546D01*
G01X4406Y5518D01*
G01X4407Y5489D01*
G01X4407Y5253D01*
G01X4171Y5544D01*
G01X4242Y5555D01*
G01X4242Y5586D01*
G37*

%LPD*%
G36*
G01X5447Y5590D02*
G01X5396Y5590D01*
G01X5206Y5038D01*
G01X5138Y5030D01*
G01X5138Y5000D01*
G01X5376Y5000D01*
G01X5376Y5030D01*
G01X5289Y5040D01*
G01X5340Y5194D01*
G01X5543Y5194D01*
G01X5594Y5042D01*
G01X5509Y5030D01*
G01X5509Y5000D01*
G01X5703Y5000D01*
G01X5703Y5030D01*
G01X5632Y5042D01*
G01X5447Y5590D01*
G37*

%LPC*%
G36*
G01X5532Y5228D02*
G01X5443Y5501D01*
G01X5352Y5228D01*
G01X5532Y5228D01*
G37*

%LPD*%
G36*
G01X6156Y5586D02*
G01X5675Y5586D01*
G01X5668Y5430D01*
G01X5711Y5430D01*
G01X5735Y5548D01*
G01X5873Y5548D01*
G01X5875Y5490D01*
G01X5875Y5402D01*
G01X5876Y5373D01*
G01X5876Y5213D01*
G01X5875Y5184D01*
G01X5875Y5097D01*
G01X5874Y5068D01*
G01X5873Y5040D01*
G01X5784Y5030D01*
G01X5784Y5000D01*
G01X6047Y5000D01*
G01X6047Y5030D01*
G01X5956Y5040D01*
G01X5956Y5548D01*
G01X6094Y5548D01*
G01X6118Y5430D01*
G01X6163Y5430D01*
G01X6156Y5586D01*
G37*

%LPD*%
G36*
G01X7268Y5586D02*
G01X7100Y5586D01*
G01X7100Y5555D01*
G01X7181Y5546D01*
G01X7182Y5518D01*
G01X7183Y5489D01*
G01X7183Y5402D01*
G01X7184Y5373D01*
G01X7184Y5213D01*
G01X7183Y5184D01*
G01X7183Y5097D01*
G01X7181Y5038D01*
G01X7101Y5030D01*
G01X7101Y5000D01*
G01X7339Y5000D01*
G01X7339Y5030D01*
G01X7264Y5038D01*
G01X7262Y5096D01*
G01X7262Y5182D01*
G01X7261Y5211D01*
G01X7261Y5269D01*
G01X7260Y5503D01*
G01X7459Y5000D01*
G01X7496Y5000D01*
G01X7701Y5501D01*
G01X7700Y5472D01*
G01X7699Y5442D01*
G01X7698Y5411D01*
G01X7698Y5383D01*
G01X7697Y5358D01*
G01X7696Y5338D01*
G01X7696Y5042D01*
G01X7619Y5030D01*
G01X7619Y5000D01*
G01X7815Y5000D01*
G01X7815Y5030D01*
G01X7736Y5042D01*
G01X7735Y5546D01*
G01X7815Y5555D01*
G01X7815Y5586D01*
G01X7656Y5586D01*
G01X7459Y5100D01*
G01X7268Y5586D01*
G37*

%LPD*%
G36*
G01X6960Y5586D02*
G01X6675Y5586D01*
G01X6675Y5517D01*
G01X6927Y5517D01*
G01X6939Y5351D01*
G01X6917Y5357D01*
G01X6895Y5361D01*
G01X6873Y5364D01*
G01X6850Y5365D01*
G01X6822Y5363D01*
G01X6796Y5359D01*
G01X6772Y5352D01*
G01X6749Y5343D01*
G01X6729Y5331D01*
G01X6711Y5316D01*
G01X6696Y5300D01*
G01X6683Y5280D01*
G01X6672Y5259D01*
G01X6665Y5235D01*
G01X6660Y5209D01*
G01X6659Y5180D01*
G01X6660Y5159D01*
G01X6662Y5139D01*
G01X6667Y5120D01*
G01X6673Y5102D01*
G01X6681Y5085D01*
G01X6691Y5069D01*
G01X6702Y5055D01*
G01X6714Y5041D01*
G01X6744Y5019D01*
G01X6761Y5010D01*
G01X6779Y5002D01*
G01X6798Y4996D01*
G01X6819Y4992D01*
G01X6841Y4989D01*
G01X6864Y4988D01*
G01X6895Y4990D01*
G01X6923Y4996D01*
G01X6949Y5006D01*
G01X6971Y5019D01*
G01X6990Y5036D01*
G01X7006Y5057D01*
G01X7018Y5081D01*
G01X7027Y5109D01*
G01X7020Y5122D01*
G01X7010Y5131D01*
G01X6998Y5136D01*
G01X6985Y5138D01*
G01X6968Y5135D01*
G01X6955Y5126D01*
G01X6946Y5109D01*
G01X6938Y5082D01*
G01X6923Y5030D01*
G01X6910Y5026D01*
G01X6882Y5022D01*
G01X6868Y5021D01*
G01X6847Y5023D01*
G01X6828Y5026D01*
G01X6811Y5032D01*
G01X6796Y5040D01*
G01X6782Y5051D01*
G01X6770Y5063D01*
G01X6759Y5077D01*
G01X6751Y5093D01*
G01X6744Y5111D01*
G01X6739Y5130D01*
G01X6736Y5151D01*
G01X6735Y5173D01*
G01X6736Y5196D01*
G01X6740Y5216D01*
G01X6745Y5235D01*
G01X6752Y5252D01*
G01X6761Y5267D01*
G01X6772Y5280D01*
G01X6785Y5291D01*
G01X6800Y5301D01*
G01X6816Y5308D01*
G01X6833Y5313D01*
G01X6852Y5317D01*
G01X6893Y5317D01*
G01X6914Y5315D01*
G01X6935Y5311D01*
G01X6956Y5305D01*
G01X6980Y5313D01*
G01X6960Y5586D01*
G37*

%LPD*%
G36*
G01X4846Y5598D02*
G01X4821Y5600D01*
G01X4781Y5598D01*
G01X4761Y5594D01*
G01X4740Y5590D01*
G01X4719Y5585D01*
G01X4697Y5577D01*
G01X4675Y5568D01*
G01X4653Y5557D01*
G01X4652Y5428D01*
G01X4700Y5428D01*
G01X4722Y5540D01*
G01X4744Y5549D01*
G01X4767Y5556D01*
G01X4789Y5560D01*
G01X4811Y5561D01*
G01X4834Y5561D01*
G01X4855Y5557D01*
G01X4876Y5552D01*
G01X4896Y5544D01*
G01X4915Y5534D01*
G01X4932Y5523D01*
G01X4949Y5509D01*
G01X4964Y5493D01*
G01X4978Y5475D01*
G01X4991Y5455D01*
G01X5002Y5433D01*
G01X5011Y5409D01*
G01X5018Y5383D01*
G01X5023Y5355D01*
G01X5026Y5325D01*
G01X5027Y5294D01*
G01X5027Y5261D01*
G01X5023Y5232D01*
G01X5018Y5203D01*
G01X5012Y5177D01*
G01X5003Y5153D01*
G01X4993Y5131D01*
G01X4981Y5111D01*
G01X4968Y5094D01*
G01X4953Y5078D01*
G01X4937Y5064D01*
G01X4919Y5052D01*
G01X4901Y5043D01*
G01X4881Y5035D01*
G01X4860Y5030D01*
G01X4838Y5026D01*
G01X4789Y5026D01*
G01X4764Y5030D01*
G01X4739Y5036D01*
G01X4714Y5046D01*
G01X4692Y5157D01*
G01X4643Y5157D01*
G01X4646Y5030D01*
G01X4666Y5019D01*
G01X4687Y5010D01*
G01X4708Y5003D01*
G01X4730Y4997D01*
G01X4752Y4992D01*
G01X4775Y4989D01*
G01X4797Y4987D01*
G01X4821Y4986D01*
G01X4847Y4988D01*
G01X4872Y4990D01*
G01X4896Y4995D01*
G01X4919Y5001D01*
G01X4942Y5009D01*
G01X4963Y5018D01*
G01X4983Y5029D01*
G01X5002Y5042D01*
G01X5019Y5056D01*
G01X5036Y5071D01*
G01X5051Y5088D01*
G01X5064Y5106D01*
G01X5077Y5126D01*
G01X5088Y5146D01*
G01X5097Y5168D01*
G01X5105Y5191D01*
G01X5110Y5215D01*
G01X5115Y5240D01*
G01X5118Y5267D01*
G01X5118Y5320D01*
G01X5115Y5346D01*
G01X5110Y5370D01*
G01X5104Y5394D01*
G01X5096Y5417D01*
G01X5086Y5438D01*
G01X5075Y5459D01*
G01X5063Y5478D01*
G01X5049Y5497D01*
G01X5034Y5514D01*
G01X5017Y5529D01*
G01X4999Y5543D01*
G01X4980Y5556D01*
G01X4960Y5567D01*
G01X4939Y5577D01*
G01X4917Y5585D01*
G01X4894Y5591D01*
G01X4870Y5596D01*
G01X4846Y5598D01*
G37*

%LPD*%
G36*
G01X6405Y5598D02*
G01X6377Y5600D01*
G01X6356Y5599D01*
G01X6335Y5596D01*
G01X6316Y5592D01*
G01X6298Y5587D01*
G01X6280Y5580D01*
G01X6264Y5573D01*
G01X6248Y5563D01*
G01X6234Y5553D01*
G01X6239Y5438D01*
G01X6285Y5438D01*
G01X6307Y5544D01*
G01X6324Y5552D01*
G01X6341Y5557D01*
G01X6359Y5561D01*
G01X6378Y5561D01*
G01X6404Y5560D01*
G01X6427Y5555D01*
G01X6448Y5546D01*
G01X6466Y5535D01*
G01X6480Y5521D01*
G01X6491Y5503D01*
G01X6498Y5482D01*
G01X6501Y5459D01*
G01X6499Y5438D01*
G01X6494Y5421D01*
G01X6486Y5405D01*
G01X6475Y5390D01*
G01X6460Y5377D01*
G01X6443Y5365D01*
G01X6424Y5354D01*
G01X6402Y5344D01*
G01X6367Y5330D01*
G01X6339Y5319D01*
G01X6314Y5307D01*
G01X6292Y5295D01*
G01X6273Y5282D01*
G01X6256Y5269D01*
G01X6243Y5255D01*
G01X6231Y5241D01*
G01X6222Y5226D01*
G01X6215Y5209D01*
G01X6210Y5192D01*
G01X6207Y5173D01*
G01X6206Y5153D01*
G01X6208Y5128D01*
G01X6213Y5105D01*
G01X6222Y5084D01*
G01X6233Y5064D01*
G01X6247Y5046D01*
G01X6264Y5031D01*
G01X6284Y5018D01*
G01X6305Y5007D01*
G01X6329Y4998D01*
G01X6355Y4992D01*
G01X6383Y4988D01*
G01X6413Y4986D01*
G01X6438Y4988D01*
G01X6462Y4990D01*
G01X6485Y4994D01*
G01X6508Y5000D01*
G01X6530Y5007D01*
G01X6549Y5015D01*
G01X6568Y5024D01*
G01X6584Y5034D01*
G01X6577Y5157D01*
G01X6532Y5157D01*
G01X6510Y5046D01*
G01X6489Y5037D01*
G01X6468Y5030D01*
G01X6444Y5027D01*
G01X6418Y5026D01*
G01X6388Y5027D01*
G01X6361Y5032D01*
G01X6337Y5041D01*
G01X6317Y5053D01*
G01X6300Y5069D01*
G01X6289Y5088D01*
G01X6281Y5109D01*
G01X6278Y5134D01*
G01X6280Y5155D01*
G01X6285Y5172D01*
G01X6293Y5188D01*
G01X6304Y5202D01*
G01X6319Y5215D01*
G01X6339Y5226D01*
G01X6361Y5238D01*
G01X6389Y5250D01*
G01X6422Y5263D01*
G01X6464Y5283D01*
G01X6484Y5294D01*
G01X6501Y5306D01*
G01X6517Y5318D01*
G01X6531Y5332D01*
G01X6543Y5346D01*
G01X6553Y5362D01*
G01X6562Y5379D01*
G01X6568Y5398D01*
G01X6571Y5417D01*
G01X6572Y5438D01*
G01X6571Y5463D01*
G01X6566Y5486D01*
G01X6557Y5507D01*
G01X6546Y5526D01*
G01X6532Y5542D01*
G01X6516Y5557D01*
G01X6498Y5570D01*
G01X6477Y5580D01*
G01X6454Y5589D01*
G01X6430Y5595D01*
G01X6405Y5598D01*
G37*

%LPD*%

%LPD*%
G36*
G01X4290Y2486D02*
G01X3855Y2486D01*
G01X3850Y2332D01*
G01X3894Y2332D01*
G01X3917Y2448D01*
G01X4125Y2448D01*
G01X4125Y2333D01*
G01X4126Y2303D01*
G01X4126Y2215D01*
G01X3994Y2215D01*
G01X3982Y2301D01*
G01X3946Y2301D01*
G01X3946Y2096D01*
G01X3982Y2096D01*
G01X3994Y2180D01*
G01X4126Y2180D01*
G01X4126Y2086D01*
G01X4125Y2056D01*
G01X4125Y1938D01*
G01X3900Y1938D01*
G01X3876Y2055D01*
G01X3834Y2055D01*
G01X3838Y1900D01*
G01X4290Y1900D01*
G01X4290Y1930D01*
G01X4207Y1938D01*
G01X4207Y1967D01*
G01X4206Y1996D01*
G01X4206Y2083D01*
G01X4205Y2112D01*
G01X4205Y2273D01*
G01X4206Y2302D01*
G01X4206Y2389D01*
G01X4207Y2418D01*
G01X4207Y2446D01*
G01X4290Y2455D01*
G01X4290Y2486D01*
G37*

%LPD*%
G36*
G01X6618Y2486D02*
G01X6369Y2486D01*
G01X6369Y2455D01*
G01X6452Y2446D01*
G01X6453Y2418D01*
G01X6453Y1966D01*
G01X6452Y1938D01*
G01X6251Y1938D01*
G01X6222Y2065D01*
G01X6177Y2065D01*
G01X6182Y1900D01*
G01X6618Y1900D01*
G01X6618Y1930D01*
G01X6535Y1938D01*
G01X6535Y1968D01*
G01X6534Y1997D01*
G01X6534Y2389D01*
G01X6535Y2418D01*
G01X6535Y2446D01*
G01X6618Y2455D01*
G01X6618Y2486D01*
G37*

%LPD*%
G36*
G01X6965Y2490D02*
G01X6914Y2490D01*
G01X6726Y1938D01*
G01X6657Y1930D01*
G01X6657Y1900D01*
G01X6896Y1900D01*
G01X6896Y1930D01*
G01X6810Y1940D01*
G01X6860Y2094D01*
G01X7064Y2094D01*
G01X7114Y1942D01*
G01X7028Y1930D01*
G01X7028Y1900D01*
G01X7223Y1900D01*
G01X7223Y1930D01*
G01X7152Y1942D01*
G01X6965Y2490D01*
G37*

%LPC*%
G36*
G01X7052Y2128D02*
G01X6963Y2401D01*
G01X6872Y2128D01*
G01X7052Y2128D01*
G37*

%LPD*%
G36*
G01X7675Y2486D02*
G01X7193Y2486D01*
G01X7189Y2330D01*
G01X7231Y2330D01*
G01X7256Y2448D01*
G01X7393Y2448D01*
G01X7394Y2419D01*
G01X7394Y1968D01*
G01X7393Y1940D01*
G01X7302Y1930D01*
G01X7302Y1900D01*
G01X7567Y1900D01*
G01X7567Y1930D01*
G01X7477Y1940D01*
G01X7475Y1997D01*
G01X7475Y2390D01*
G01X7477Y2448D01*
G01X7614Y2448D01*
G01X7638Y2330D01*
G01X7681Y2330D01*
G01X7675Y2486D01*
G37*

%LPD*%
G36*
G01X7964Y2490D02*
G01X7914Y2490D01*
G01X7725Y1938D01*
G01X7656Y1930D01*
G01X7656Y1900D01*
G01X7893Y1900D01*
G01X7893Y1930D01*
G01X7807Y1940D01*
G01X7859Y2094D01*
G01X8061Y2094D01*
G01X8113Y1942D01*
G01X8027Y1930D01*
G01X8027Y1900D01*
G01X8222Y1900D01*
G01X8222Y1930D01*
G01X8151Y1942D01*
G01X7964Y2490D01*
G37*

%LPC*%
G36*
G01X8051Y2128D02*
G01X7961Y2401D01*
G01X7869Y2128D01*
G01X8051Y2128D01*
G37*

%LPD*%
G36*
G01X8760Y2486D02*
G01X8506Y2486D01*
G01X8480Y2485D01*
G01X8456Y2482D01*
G01X8432Y2478D01*
G01X8410Y2473D01*
G01X8389Y2466D01*
G01X8368Y2458D01*
G01X8349Y2448D01*
G01X8331Y2437D01*
G01X8314Y2424D01*
G01X8299Y2410D01*
G01X8285Y2394D01*
G01X8272Y2377D01*
G01X8260Y2359D01*
G01X8250Y2339D01*
G01X8241Y2318D01*
G01X8234Y2296D01*
G01X8228Y2272D01*
G01X8224Y2247D01*
G01X8221Y2220D01*
G01X8221Y2192D01*
G01X8222Y2165D01*
G01X8224Y2139D01*
G01X8229Y2113D01*
G01X8235Y2090D01*
G01X8243Y2067D01*
G01X8252Y2046D01*
G01X8264Y2026D01*
G01X8276Y2008D01*
G01X8290Y1991D01*
G01X8305Y1976D01*
G01X8322Y1961D01*
G01X8340Y1948D01*
G01X8359Y1937D01*
G01X8379Y1927D01*
G01X8401Y1919D01*
G01X8423Y1912D01*
G01X8446Y1907D01*
G01X8471Y1903D01*
G01X8496Y1900D01*
G01X8760Y1900D01*
G01X8760Y1930D01*
G01X8678Y1938D01*
G01X8678Y2056D01*
G01X8677Y2086D01*
G01X8677Y2301D01*
G01X8678Y2330D01*
G01X8678Y2446D01*
G01X8760Y2455D01*
G01X8760Y2486D01*
G37*

%LPC*%
G36*
G01X8596Y2451D02*
G01X8495Y2451D01*
G01X8472Y2447D01*
G01X8451Y2442D01*
G01X8431Y2435D01*
G01X8412Y2426D01*
G01X8395Y2414D01*
G01X8380Y2401D01*
G01X8366Y2385D01*
G01X8353Y2368D01*
G01X8342Y2349D01*
G01X8333Y2328D01*
G01X8325Y2304D01*
G01X8319Y2279D01*
G01X8315Y2252D01*
G01X8312Y2223D01*
G01X8311Y2192D01*
G01X8312Y2163D01*
G01X8315Y2135D01*
G01X8319Y2108D01*
G01X8326Y2084D01*
G01X8333Y2061D01*
G01X8343Y2039D01*
G01X8354Y2020D01*
G01X8367Y2002D01*
G01X8381Y1987D01*
G01X8397Y1973D01*
G01X8414Y1961D01*
G01X8434Y1952D01*
G01X8455Y1944D01*
G01X8477Y1939D01*
G01X8501Y1936D01*
G01X8527Y1934D01*
G01X8596Y1934D01*
G01X8596Y1964D01*
G01X8597Y1994D01*
G01X8597Y2393D01*
G01X8596Y2451D01*
G37*

%LPD*%
G36*
G01X3761Y2486D02*
G01X3515Y2486D01*
G01X3484Y2484D01*
G01X3454Y2481D01*
G01X3426Y2475D01*
G01X3402Y2467D01*
G01X3380Y2457D01*
G01X3360Y2445D01*
G01X3344Y2431D01*
G01X3330Y2415D01*
G01X3319Y2397D01*
G01X3311Y2378D01*
G01X3306Y2356D01*
G01X3305Y2332D01*
G01X3305Y2315D01*
G01X3309Y2299D01*
G01X3314Y2283D01*
G01X3321Y2267D01*
G01X3330Y2253D01*
G01X3342Y2239D01*
G01X3355Y2226D01*
G01X3371Y2215D01*
G01X3389Y2205D01*
G01X3409Y2196D01*
G01X3430Y2190D01*
G01X3455Y2184D01*
G01X3435Y2179D01*
G01X3418Y2172D01*
G01X3402Y2162D01*
G01X3389Y2150D01*
G01X3377Y2135D01*
G01X3367Y2118D01*
G01X3357Y2097D01*
G01X3350Y2073D01*
G01X3309Y1936D01*
G01X3242Y1930D01*
G01X3242Y1900D01*
G01X3255Y1896D01*
G01X3270Y1893D01*
G01X3288Y1891D01*
G01X3307Y1890D01*
G01X3343Y1894D01*
G01X3369Y1903D01*
G01X3386Y1921D01*
G01X3396Y1946D01*
G01X3432Y2086D01*
G01X3440Y2110D01*
G01X3448Y2130D01*
G01X3458Y2145D01*
G01X3471Y2157D01*
G01X3486Y2165D01*
G01X3505Y2170D01*
G01X3526Y2173D01*
G01X3598Y2173D01*
G01X3598Y2083D01*
G01X3597Y2054D01*
G01X3597Y1968D01*
G01X3596Y1940D01*
G01X3515Y1930D01*
G01X3515Y1900D01*
G01X3761Y1900D01*
G01X3761Y1930D01*
G01X3680Y1938D01*
G01X3678Y1996D01*
G01X3678Y2389D01*
G01X3679Y2418D01*
G01X3680Y2446D01*
G01X3761Y2455D01*
G01X3761Y2486D01*
G37*

%LPC*%
G36*
G01X3596Y2451D02*
G01X3521Y2451D01*
G01X3488Y2450D01*
G01X3461Y2444D01*
G01X3438Y2434D01*
G01X3419Y2421D01*
G01X3405Y2404D01*
G01X3394Y2384D01*
G01X3388Y2360D01*
G01X3386Y2334D01*
G01X3389Y2307D01*
G01X3395Y2283D01*
G01X3406Y2261D01*
G01X3422Y2243D01*
G01X3441Y2228D01*
G01X3465Y2216D01*
G01X3494Y2209D01*
G01X3526Y2207D01*
G01X3598Y2207D01*
G01X3598Y2303D01*
G01X3597Y2334D01*
G01X3597Y2422D01*
G01X3596Y2451D01*
G37*

%LPD*%
G36*
G01X4603Y2498D02*
G01X4578Y2500D01*
G01X4551Y2499D01*
G01X4526Y2497D01*
G01X4503Y2494D01*
G01X4481Y2489D01*
G01X4460Y2483D01*
G01X4440Y2476D01*
G01X4421Y2467D01*
G01X4403Y2457D01*
G01X4401Y2326D01*
G01X4448Y2326D01*
G01X4469Y2436D01*
G01X4493Y2447D01*
G01X4517Y2455D01*
G01X4543Y2460D01*
G01X4569Y2461D01*
G01X4592Y2460D01*
G01X4615Y2457D01*
G01X4636Y2451D01*
G01X4656Y2444D01*
G01X4675Y2434D01*
G01X4693Y2421D01*
G01X4709Y2407D01*
G01X4724Y2391D01*
G01X4738Y2373D01*
G01X4750Y2353D01*
G01X4760Y2331D01*
G01X4769Y2307D01*
G01X4776Y2281D01*
G01X4781Y2254D01*
G01X4785Y2225D01*
G01X4785Y2163D01*
G01X4782Y2134D01*
G01X4777Y2106D01*
G01X4770Y2081D01*
G01X4762Y2057D01*
G01X4752Y2035D01*
G01X4740Y2015D01*
G01X4727Y1996D01*
G01X4712Y1980D01*
G01X4695Y1966D01*
G01X4677Y1954D01*
G01X4658Y1944D01*
G01X4637Y1936D01*
G01X4615Y1930D01*
G01X4591Y1927D01*
G01X4567Y1926D01*
G01X4541Y1926D01*
G01X4517Y1930D01*
G01X4493Y1935D01*
G01X4469Y1942D01*
G01X4469Y2142D01*
G01X4563Y2148D01*
G01X4563Y2178D01*
G01X4334Y2178D01*
G01X4334Y2148D01*
G01X4388Y2144D01*
G01X4388Y2123D01*
G01X4389Y2103D01*
G01X4389Y2041D01*
G01X4390Y2020D01*
G01X4390Y1938D01*
G01X4412Y1926D01*
G01X4435Y1916D01*
G01X4458Y1907D01*
G01X4481Y1900D01*
G01X4505Y1894D01*
G01X4529Y1890D01*
G01X4555Y1887D01*
G01X4580Y1886D01*
G01X4606Y1888D01*
G01X4631Y1890D01*
G01X4656Y1895D01*
G01X4679Y1901D01*
G01X4701Y1909D01*
G01X4722Y1919D01*
G01X4742Y1930D01*
G01X4761Y1943D01*
G01X4778Y1957D01*
G01X4794Y1973D01*
G01X4810Y1990D01*
G01X4823Y2008D01*
G01X4835Y2027D01*
G01X4846Y2048D01*
G01X4855Y2069D01*
G01X4863Y2092D01*
G01X4869Y2116D01*
G01X4873Y2141D01*
G01X4876Y2167D01*
G01X4877Y2194D01*
G01X4876Y2220D01*
G01X4873Y2245D01*
G01X4868Y2270D01*
G01X4862Y2293D01*
G01X4855Y2316D01*
G01X4845Y2338D01*
G01X4834Y2358D01*
G01X4822Y2378D01*
G01X4808Y2396D01*
G01X4793Y2413D01*
G01X4777Y2428D01*
G01X4759Y2443D01*
G01X4740Y2455D01*
G01X4720Y2467D01*
G01X4676Y2485D01*
G01X4653Y2491D01*
G01X4629Y2496D01*
G01X4603Y2498D01*
G37*

%LPD*%
G36*
G01X5210Y2498D02*
G01X5184Y2500D01*
G01X5157Y2499D01*
G01X5132Y2497D01*
G01X5108Y2494D01*
G01X5086Y2489D01*
G01X5065Y2483D01*
G01X5046Y2476D01*
G01X5027Y2467D01*
G01X5009Y2457D01*
G01X5006Y2326D01*
G01X5053Y2326D01*
G01X5076Y2436D01*
G01X5098Y2447D01*
G01X5122Y2455D01*
G01X5148Y2460D01*
G01X5175Y2461D01*
G01X5198Y2460D01*
G01X5220Y2457D01*
G01X5241Y2451D01*
G01X5261Y2444D01*
G01X5281Y2434D01*
G01X5298Y2421D01*
G01X5315Y2407D01*
G01X5330Y2391D01*
G01X5344Y2373D01*
G01X5356Y2353D01*
G01X5367Y2331D01*
G01X5375Y2307D01*
G01X5382Y2281D01*
G01X5387Y2254D01*
G01X5390Y2225D01*
G01X5392Y2194D01*
G01X5390Y2163D01*
G01X5388Y2134D01*
G01X5383Y2106D01*
G01X5376Y2081D01*
G01X5368Y2057D01*
G01X5357Y2035D01*
G01X5346Y2015D01*
G01X5332Y1996D01*
G01X5317Y1980D01*
G01X5301Y1966D01*
G01X5283Y1954D01*
G01X5263Y1944D01*
G01X5243Y1936D01*
G01X5220Y1930D01*
G01X5197Y1927D01*
G01X5172Y1926D01*
G01X5147Y1926D01*
G01X5122Y1930D01*
G01X5098Y1935D01*
G01X5073Y1942D01*
G01X5073Y1998D01*
G01X5074Y2018D01*
G01X5074Y2059D01*
G01X5075Y2080D01*
G01X5075Y2100D01*
G01X5076Y2142D01*
G01X5168Y2148D01*
G01X5168Y2178D01*
G01X4940Y2178D01*
G01X4940Y2148D01*
G01X4993Y2144D01*
G01X4994Y2123D01*
G01X4994Y2082D01*
G01X4995Y2062D01*
G01X4995Y2020D01*
G01X4996Y1999D01*
G01X4996Y1938D01*
G01X5018Y1926D01*
G01X5041Y1916D01*
G01X5064Y1907D01*
G01X5087Y1900D01*
G01X5110Y1894D01*
G01X5135Y1890D01*
G01X5160Y1887D01*
G01X5185Y1886D01*
G01X5211Y1888D01*
G01X5236Y1890D01*
G01X5261Y1895D01*
G01X5284Y1901D01*
G01X5306Y1909D01*
G01X5327Y1919D01*
G01X5347Y1930D01*
G01X5366Y1943D01*
G01X5383Y1957D01*
G01X5400Y1973D01*
G01X5414Y1990D01*
G01X5428Y2008D01*
G01X5440Y2027D01*
G01X5451Y2048D01*
G01X5460Y2069D01*
G01X5468Y2092D01*
G01X5474Y2116D01*
G01X5478Y2141D01*
G01X5481Y2167D01*
G01X5481Y2220D01*
G01X5478Y2245D01*
G01X5473Y2270D01*
G01X5468Y2293D01*
G01X5460Y2316D01*
G01X5450Y2338D01*
G01X5439Y2358D01*
G01X5427Y2378D01*
G01X5414Y2396D01*
G01X5398Y2413D01*
G01X5382Y2428D01*
G01X5364Y2443D01*
G01X5346Y2455D01*
G01X5326Y2467D01*
G01X5282Y2485D01*
G01X5259Y2491D01*
G01X5235Y2496D01*
G01X5210Y2498D01*
G37*

%LPD*%
G36*
G01X5862Y2499D02*
G01X5842Y2500D01*
G01X5821Y2499D01*
G01X5801Y2496D01*
G01X5781Y2492D01*
G01X5762Y2486D01*
G01X5743Y2479D01*
G01X5724Y2471D01*
G01X5706Y2460D01*
G01X5689Y2448D01*
G01X5673Y2435D01*
G01X5657Y2420D01*
G01X5643Y2404D01*
G01X5630Y2386D01*
G01X5618Y2367D01*
G01X5607Y2346D01*
G01X5598Y2325D01*
G01X5590Y2301D01*
G01X5584Y2276D01*
G01X5579Y2250D01*
G01X5577Y2222D01*
G01X5576Y2194D01*
G01X5577Y2165D01*
G01X5579Y2138D01*
G01X5584Y2112D01*
G01X5590Y2088D01*
G01X5598Y2064D01*
G01X5607Y2042D01*
G01X5618Y2021D01*
G01X5630Y2002D01*
G01X5643Y1984D01*
G01X5657Y1968D01*
G01X5672Y1953D01*
G01X5689Y1939D01*
G01X5706Y1927D01*
G01X5724Y1916D01*
G01X5742Y1907D01*
G01X5761Y1900D01*
G01X5781Y1894D01*
G01X5801Y1890D01*
G01X5821Y1887D01*
G01X5842Y1886D01*
G01X5862Y1887D01*
G01X5883Y1890D01*
G01X5903Y1894D01*
G01X5923Y1899D01*
G01X5942Y1906D01*
G01X5961Y1915D01*
G01X5979Y1925D01*
G01X5996Y1937D01*
G01X6012Y1950D01*
G01X6028Y1965D01*
G01X6042Y1981D01*
G01X6055Y1999D01*
G01X6067Y2018D01*
G01X6078Y2039D01*
G01X6087Y2061D01*
G01X6095Y2085D01*
G01X6101Y2110D01*
G01X6106Y2136D01*
G01X6109Y2164D01*
G01X6110Y2194D01*
G01X6109Y2222D01*
G01X6106Y2249D01*
G01X6101Y2275D01*
G01X6095Y2299D01*
G01X6087Y2322D01*
G01X6078Y2344D01*
G01X6067Y2365D01*
G01X6055Y2384D01*
G01X6042Y2402D01*
G01X6027Y2419D01*
G01X6012Y2434D01*
G01X5996Y2447D01*
G01X5978Y2459D01*
G01X5960Y2470D01*
G01X5942Y2479D01*
G01X5922Y2486D01*
G01X5903Y2492D01*
G01X5882Y2496D01*
G01X5862Y2499D01*
G37*

%LPC*%
G36*
G01X5864Y2460D02*
G01X5842Y2461D01*
G01X5819Y2460D01*
G01X5799Y2456D01*
G01X5781Y2448D01*
G01X5763Y2439D01*
G01X5747Y2427D01*
G01X5733Y2413D01*
G01X5720Y2397D01*
G01X5709Y2379D01*
G01X5698Y2359D01*
G01X5690Y2338D01*
G01X5683Y2316D01*
G01X5677Y2293D01*
G01X5672Y2269D01*
G01X5669Y2244D01*
G01X5667Y2219D01*
G01X5667Y2167D01*
G01X5669Y2142D01*
G01X5672Y2117D01*
G01X5677Y2093D01*
G01X5683Y2069D01*
G01X5690Y2047D01*
G01X5698Y2026D01*
G01X5709Y2007D01*
G01X5720Y1989D01*
G01X5733Y1973D01*
G01X5747Y1959D01*
G01X5763Y1947D01*
G01X5781Y1938D01*
G01X5799Y1930D01*
G01X5819Y1926D01*
G01X5842Y1925D01*
G01X5864Y1926D01*
G01X5885Y1930D01*
G01X5904Y1938D01*
G01X5921Y1947D01*
G01X5937Y1959D01*
G01X5952Y1973D01*
G01X5965Y1989D01*
G01X5977Y2007D01*
G01X5987Y2026D01*
G01X5996Y2047D01*
G01X6003Y2069D01*
G01X6009Y2093D01*
G01X6014Y2117D01*
G01X6017Y2142D01*
G01X6019Y2167D01*
G01X6019Y2219D01*
G01X6017Y2244D01*
G01X6014Y2269D01*
G01X6009Y2293D01*
G01X6003Y2316D01*
G01X5996Y2338D01*
G01X5987Y2359D01*
G01X5977Y2379D01*
G01X5965Y2397D01*
G01X5952Y2413D01*
G01X5937Y2427D01*
G01X5921Y2439D01*
G01X5904Y2448D01*
G01X5885Y2456D01*
G01X5864Y2460D01*
G37*

%LPD*%

%LPD*%
G36*
G01X7017Y4486D02*
G01X6581Y4486D01*
G01X6577Y4332D01*
G01X6621Y4332D01*
G01X6643Y4448D01*
G01X6852Y4448D01*
G01X6853Y4390D01*
G01X6853Y4215D01*
G01X6722Y4215D01*
G01X6709Y4301D01*
G01X6672Y4301D01*
G01X6672Y4096D01*
G01X6709Y4096D01*
G01X6721Y4180D01*
G01X6853Y4180D01*
G01X6853Y3996D01*
G01X6852Y3967D01*
G01X6852Y3938D01*
G01X6627Y3938D01*
G01X6603Y4055D01*
G01X6560Y4055D01*
G01X6565Y3900D01*
G01X7017Y3900D01*
G01X7017Y3930D01*
G01X6935Y3938D01*
G01X6934Y3967D01*
G01X6934Y4418D01*
G01X6935Y4446D01*
G01X7017Y4455D01*
G01X7017Y4486D01*
G37*

%LPD*%
G36*
G01X6126Y4486D02*
G01X5918Y4486D01*
G01X5918Y4455D01*
G01X5993Y4446D01*
G01X5993Y3894D01*
G01X6025Y3894D01*
G01X6381Y4386D01*
G01X6381Y3942D01*
G01X6286Y3930D01*
G01X6286Y3900D01*
G01X6493Y3900D01*
G01X6493Y3930D01*
G01X6421Y3940D01*
G01X6418Y4436D01*
G01X6427Y4448D01*
G01X6489Y4455D01*
G01X6489Y4486D01*
G01X6355Y4486D01*
G01X6031Y4038D01*
G01X6032Y4444D01*
G01X6126Y4455D01*
G01X6126Y4486D01*
G37*

%LPD*%
G36*
G01X4803Y4486D02*
G01X4557Y4486D01*
G01X4526Y4484D01*
G01X4496Y4481D01*
G01X4469Y4475D01*
G01X4444Y4467D01*
G01X4422Y4457D01*
G01X4403Y4445D01*
G01X4386Y4431D01*
G01X4372Y4415D01*
G01X4361Y4397D01*
G01X4353Y4378D01*
G01X4348Y4356D01*
G01X4346Y4332D01*
G01X4348Y4315D01*
G01X4351Y4299D01*
G01X4356Y4283D01*
G01X4363Y4267D01*
G01X4373Y4253D01*
G01X4384Y4239D01*
G01X4398Y4226D01*
G01X4414Y4215D01*
G01X4432Y4205D01*
G01X4451Y4196D01*
G01X4473Y4190D01*
G01X4498Y4184D01*
G01X4478Y4179D01*
G01X4460Y4172D01*
G01X4445Y4162D01*
G01X4432Y4150D01*
G01X4420Y4135D01*
G01X4409Y4118D01*
G01X4401Y4097D01*
G01X4392Y4073D01*
G01X4351Y3936D01*
G01X4284Y3930D01*
G01X4284Y3900D01*
G01X4297Y3896D01*
G01X4313Y3893D01*
G01X4330Y3891D01*
G01X4350Y3890D01*
G01X4385Y3894D01*
G01X4411Y3903D01*
G01X4428Y3921D01*
G01X4438Y3946D01*
G01X4475Y4086D01*
G01X4482Y4110D01*
G01X4490Y4130D01*
G01X4501Y4145D01*
G01X4514Y4157D01*
G01X4529Y4165D01*
G01X4547Y4170D01*
G01X4569Y4173D01*
G01X4640Y4173D01*
G01X4640Y3996D01*
G01X4639Y3968D01*
G01X4639Y3940D01*
G01X4557Y3930D01*
G01X4557Y3900D01*
G01X4803Y3900D01*
G01X4803Y3930D01*
G01X4722Y3938D01*
G01X4721Y3967D01*
G01X4721Y4418D01*
G01X4722Y4446D01*
G01X4803Y4455D01*
G01X4803Y4486D01*
G37*

%LPC*%
G36*
G01X4639Y4451D02*
G01X4563Y4451D01*
G01X4530Y4450D01*
G01X4503Y4444D01*
G01X4480Y4434D01*
G01X4461Y4421D01*
G01X4447Y4404D01*
G01X4437Y4384D01*
G01X4432Y4360D01*
G01X4430Y4334D01*
G01X4432Y4307D01*
G01X4438Y4283D01*
G01X4449Y4261D01*
G01X4464Y4243D01*
G01X4484Y4228D01*
G01X4508Y4216D01*
G01X4536Y4209D01*
G01X4569Y4207D01*
G01X4640Y4207D01*
G01X4640Y4393D01*
G01X4639Y4451D01*
G37*

%LPD*%
G36*
G01X5151Y4499D02*
G01X5131Y4500D01*
G01X5110Y4499D01*
G01X5090Y4496D01*
G01X5070Y4492D01*
G01X5051Y4486D01*
G01X5031Y4479D01*
G01X5013Y4471D01*
G01X4995Y4460D01*
G01X4978Y4448D01*
G01X4962Y4435D01*
G01X4947Y4420D01*
G01X4932Y4404D01*
G01X4919Y4386D01*
G01X4907Y4367D01*
G01X4896Y4346D01*
G01X4887Y4325D01*
G01X4879Y4301D01*
G01X4873Y4276D01*
G01X4868Y4250D01*
G01X4865Y4222D01*
G01X4864Y4194D01*
G01X4865Y4165D01*
G01X4868Y4138D01*
G01X4873Y4112D01*
G01X4879Y4088D01*
G01X4887Y4064D01*
G01X4896Y4042D01*
G01X4907Y4021D01*
G01X4919Y4002D01*
G01X4932Y3984D01*
G01X4946Y3968D01*
G01X4961Y3953D01*
G01X4978Y3939D01*
G01X4995Y3927D01*
G01X5013Y3916D01*
G01X5031Y3907D01*
G01X5050Y3900D01*
G01X5070Y3894D01*
G01X5090Y3890D01*
G01X5110Y3887D01*
G01X5131Y3886D01*
G01X5151Y3887D01*
G01X5172Y3890D01*
G01X5192Y3894D01*
G01X5212Y3899D01*
G01X5231Y3906D01*
G01X5250Y3915D01*
G01X5268Y3925D01*
G01X5285Y3937D01*
G01X5301Y3950D01*
G01X5317Y3965D01*
G01X5331Y3981D01*
G01X5344Y3999D01*
G01X5356Y4018D01*
G01X5367Y4039D01*
G01X5376Y4061D01*
G01X5384Y4085D01*
G01X5390Y4110D01*
G01X5395Y4136D01*
G01X5397Y4164D01*
G01X5398Y4194D01*
G01X5397Y4222D01*
G01X5395Y4249D01*
G01X5390Y4275D01*
G01X5384Y4299D01*
G01X5376Y4322D01*
G01X5367Y4344D01*
G01X5356Y4365D01*
G01X5344Y4384D01*
G01X5331Y4402D01*
G01X5316Y4419D01*
G01X5301Y4434D01*
G01X5285Y4447D01*
G01X5267Y4459D01*
G01X5249Y4470D01*
G01X5231Y4479D01*
G01X5211Y4486D01*
G01X5192Y4492D01*
G01X5172Y4496D01*
G01X5151Y4499D01*
G37*

%LPC*%
G36*
G01X5153Y4460D02*
G01X5131Y4461D01*
G01X5109Y4460D01*
G01X5088Y4456D01*
G01X5069Y4448D01*
G01X5052Y4439D01*
G01X5036Y4427D01*
G01X5022Y4413D01*
G01X5009Y4397D01*
G01X4998Y4379D01*
G01X4988Y4359D01*
G01X4979Y4338D01*
G01X4972Y4316D01*
G01X4966Y4293D01*
G01X4961Y4269D01*
G01X4958Y4244D01*
G01X4956Y4219D01*
G01X4956Y4167D01*
G01X4958Y4142D01*
G01X4961Y4117D01*
G01X4966Y4093D01*
G01X4972Y4069D01*
G01X4979Y4047D01*
G01X4988Y4026D01*
G01X4998Y4007D01*
G01X5009Y3989D01*
G01X5022Y3973D01*
G01X5036Y3959D01*
G01X5052Y3947D01*
G01X5069Y3938D01*
G01X5088Y3930D01*
G01X5109Y3926D01*
G01X5131Y3925D01*
G01X5153Y3926D01*
G01X5173Y3930D01*
G01X5193Y3938D01*
G01X5210Y3947D01*
G01X5226Y3959D01*
G01X5241Y3973D01*
G01X5254Y3989D01*
G01X5266Y4007D01*
G01X5276Y4026D01*
G01X5285Y4047D01*
G01X5292Y4069D01*
G01X5298Y4093D01*
G01X5303Y4117D01*
G01X5306Y4142D01*
G01X5308Y4167D01*
G01X5309Y4194D01*
G01X5308Y4219D01*
G01X5306Y4244D01*
G01X5303Y4269D01*
G01X5298Y4293D01*
G01X5292Y4316D01*
G01X5285Y4338D01*
G01X5276Y4359D01*
G01X5266Y4379D01*
G01X5254Y4397D01*
G01X5241Y4413D01*
G01X5226Y4427D01*
G01X5210Y4439D01*
G01X5193Y4448D01*
G01X5173Y4456D01*
G01X5153Y4460D01*
G37*

%LPD*%
G36*
G01X5676Y4498D02*
G01X5648Y4500D01*
G01X5627Y4499D01*
G01X5606Y4496D01*
G01X5587Y4492D01*
G01X5569Y4487D01*
G01X5551Y4480D01*
G01X5535Y4473D01*
G01X5519Y4463D01*
G01X5505Y4453D01*
G01X5510Y4338D01*
G01X5556Y4338D01*
G01X5577Y4444D01*
G01X5594Y4452D01*
G01X5612Y4457D01*
G01X5630Y4461D01*
G01X5650Y4461D01*
G01X5675Y4460D01*
G01X5698Y4455D01*
G01X5719Y4446D01*
G01X5737Y4435D01*
G01X5751Y4421D01*
G01X5762Y4403D01*
G01X5769Y4382D01*
G01X5772Y4359D01*
G01X5770Y4338D01*
G01X5765Y4321D01*
G01X5757Y4305D01*
G01X5746Y4290D01*
G01X5731Y4277D01*
G01X5714Y4265D01*
G01X5695Y4254D01*
G01X5672Y4244D01*
G01X5638Y4230D01*
G01X5610Y4219D01*
G01X5585Y4207D01*
G01X5563Y4195D01*
G01X5544Y4182D01*
G01X5527Y4169D01*
G01X5514Y4155D01*
G01X5502Y4141D01*
G01X5493Y4126D01*
G01X5486Y4109D01*
G01X5481Y4092D01*
G01X5478Y4073D01*
G01X5477Y4053D01*
G01X5479Y4028D01*
G01X5484Y4005D01*
G01X5493Y3984D01*
G01X5504Y3964D01*
G01X5518Y3946D01*
G01X5535Y3931D01*
G01X5554Y3918D01*
G01X5576Y3907D01*
G01X5600Y3898D01*
G01X5626Y3892D01*
G01X5654Y3888D01*
G01X5684Y3886D01*
G01X5732Y3890D01*
G01X5756Y3894D01*
G01X5778Y3900D01*
G01X5800Y3907D01*
G01X5819Y3915D01*
G01X5838Y3924D01*
G01X5853Y3934D01*
G01X5848Y4057D01*
G01X5803Y4057D01*
G01X5781Y3946D01*
G01X5760Y3937D01*
G01X5739Y3930D01*
G01X5715Y3927D01*
G01X5689Y3926D01*
G01X5659Y3927D01*
G01X5632Y3932D01*
G01X5608Y3941D01*
G01X5588Y3953D01*
G01X5571Y3969D01*
G01X5560Y3988D01*
G01X5552Y4009D01*
G01X5550Y4034D01*
G01X5551Y4055D01*
G01X5556Y4072D01*
G01X5564Y4088D01*
G01X5575Y4102D01*
G01X5590Y4115D01*
G01X5610Y4126D01*
G01X5632Y4138D01*
G01X5660Y4150D01*
G01X5693Y4163D01*
G01X5735Y4183D01*
G01X5755Y4194D01*
G01X5772Y4206D01*
G01X5788Y4218D01*
G01X5802Y4232D01*
G01X5814Y4246D01*
G01X5825Y4262D01*
G01X5833Y4279D01*
G01X5839Y4298D01*
G01X5842Y4317D01*
G01X5843Y4338D01*
G01X5842Y4363D01*
G01X5837Y4386D01*
G01X5828Y4407D01*
G01X5817Y4426D01*
G01X5803Y4442D01*
G01X5787Y4457D01*
G01X5769Y4470D01*
G01X5748Y4480D01*
G01X5725Y4489D01*
G01X5701Y4495D01*
G01X5676Y4498D01*
G37*

%LPD*%
G36*
G01X7284Y4498D02*
G01X7256Y4500D01*
G01X7235Y4499D01*
G01X7214Y4496D01*
G01X7195Y4492D01*
G01X7177Y4487D01*
G01X7159Y4480D01*
G01X7143Y4473D01*
G01X7127Y4463D01*
G01X7113Y4453D01*
G01X7118Y4338D01*
G01X7164Y4338D01*
G01X7185Y4444D01*
G01X7202Y4452D01*
G01X7220Y4457D01*
G01X7238Y4461D01*
G01X7257Y4461D01*
G01X7283Y4460D01*
G01X7306Y4455D01*
G01X7327Y4446D01*
G01X7345Y4435D01*
G01X7359Y4421D01*
G01X7370Y4403D01*
G01X7377Y4382D01*
G01X7380Y4359D01*
G01X7378Y4338D01*
G01X7373Y4321D01*
G01X7365Y4305D01*
G01X7354Y4290D01*
G01X7339Y4277D01*
G01X7322Y4265D01*
G01X7303Y4254D01*
G01X7281Y4244D01*
G01X7246Y4230D01*
G01X7218Y4219D01*
G01X7193Y4207D01*
G01X7171Y4195D01*
G01X7152Y4182D01*
G01X7135Y4169D01*
G01X7122Y4155D01*
G01X7110Y4141D01*
G01X7101Y4126D01*
G01X7094Y4109D01*
G01X7089Y4092D01*
G01X7086Y4073D01*
G01X7085Y4053D01*
G01X7087Y4028D01*
G01X7092Y4005D01*
G01X7101Y3984D01*
G01X7112Y3964D01*
G01X7126Y3946D01*
G01X7143Y3931D01*
G01X7162Y3918D01*
G01X7184Y3907D01*
G01X7208Y3898D01*
G01X7234Y3892D01*
G01X7262Y3888D01*
G01X7292Y3886D01*
G01X7340Y3890D01*
G01X7364Y3894D01*
G01X7386Y3900D01*
G01X7407Y3907D01*
G01X7427Y3915D01*
G01X7446Y3924D01*
G01X7461Y3934D01*
G01X7456Y4057D01*
G01X7411Y4057D01*
G01X7389Y3946D01*
G01X7368Y3937D01*
G01X7347Y3930D01*
G01X7323Y3927D01*
G01X7297Y3926D01*
G01X7267Y3927D01*
G01X7240Y3932D01*
G01X7216Y3941D01*
G01X7196Y3953D01*
G01X7179Y3969D01*
G01X7168Y3988D01*
G01X7160Y4009D01*
G01X7157Y4034D01*
G01X7159Y4055D01*
G01X7164Y4072D01*
G01X7172Y4088D01*
G01X7183Y4102D01*
G01X7198Y4115D01*
G01X7218Y4126D01*
G01X7240Y4138D01*
G01X7268Y4150D01*
G01X7301Y4163D01*
G01X7343Y4183D01*
G01X7363Y4194D01*
G01X7380Y4206D01*
G01X7396Y4218D01*
G01X7410Y4232D01*
G01X7422Y4246D01*
G01X7432Y4262D01*
G01X7441Y4279D01*
G01X7447Y4298D01*
G01X7450Y4317D01*
G01X7452Y4338D01*
G01X7450Y4363D01*
G01X7445Y4386D01*
G01X7436Y4407D01*
G01X7425Y4426D01*
G01X7411Y4442D01*
G01X7395Y4457D01*
G01X7377Y4470D01*
G01X7356Y4480D01*
G01X7333Y4489D01*
G01X7309Y4495D01*
G01X7284Y4498D01*
G37*

%LPD*%
M00*
M02*
